<?xml version="1.0" encoding="UTF-8" standalone="no"?>
<!DOCTYPE svg PUBLIC "-//W3C//DTD SVG 1.1//EN"
"http://www.w3.org/Graphics/SVG/1.1/DTD/svg11.dtd">
<svg viewBox="0 0 1466 825" version="1.1" xmlns="http://www.w3.org/2000/svg" xmlns:xlink="http://www.w3.org/1999/xlink">
<defs>
<clipPath id="c0_7"><path d="M0,825V0H1466.6V825Z"/></clipPath>
<style type="text/css"><![CDATA[
.g0_7{
fill: #FFFFFF;
}
.g1_7{
fill: #FBE5D6;
}
.g2_7{
fill: none;
stroke: #43729D;
stroke-width: 1.515;
stroke-linecap: butt;
stroke-linejoin: miter;
stroke-miterlimit: 3;
}
.g3_7{
fill: #FFE699;
}
.g4_7{
fill: none;
stroke: #FFE699;
stroke-width: 1.515;
stroke-linecap: butt;
stroke-linejoin: miter;
stroke-miterlimit: 3;
}
]]></style>
</defs>
<g clip-path="url(#c0_7)">
<path fill-rule="evenodd" d="M0,0H1466.6V825H0V0Z" class="g0_7"/>
<path fill-rule="evenodd" d="M0,0H1466.7V825H0V0Z" class="g0_7"/>
<image preserveAspectRatio="none" x="325" y="166" width="804" height="604" xlink:href="img/1.jpg"/>
</g>
<path fill-rule="evenodd" d="M12.5,516.8L62.8,264h201c8.9,0,17.5,11.7,25.1,33.9c7.7,22.2,14,54.1,18.5,92.5c4.4,38.4,6.7,82,6.7,126.4c0,44.4,-2.3,88,-6.7,126.4c-4.5,38.5,-10.8,70.4,-18.5,92.6c-7.6,22.2,-16.2,33.9,-25.1,33.9H62.8L12.5,516.8Z" class="g1_7"/>
<path d="M12.5,516.8L62.8,264h201c8.9,0,17.5,11.7,25.1,33.9c7.7,22.2,14,54.1,18.5,92.5c4.4,38.4,6.7,82,6.7,126.4c0,44.4,-2.3,88,-6.7,126.4c-4.5,38.5,-10.8,70.4,-18.5,92.6c-7.6,22.2,-16.2,33.9,-25.1,33.9H62.8L12.5,516.8Z" class="g2_7"/>
<image clip-path="url(#c0_7)" preserveAspectRatio="none" x="1075" y="216" width="360" height="360" xlink:href="img/2.jpg"/>
<path fill-rule="evenodd" d="M1009.7,90l33,-9.8l7.2,-45.7l7.1,45.7l33.1,9.8L1057,99.8l-7.1,45.8l-7.2,-45.8l-33,-9.8Z" class="g3_7"/>
<path d="M1009.7,90l33,-9.8l7.2,-45.7l7.1,45.7l33.1,9.8L1057,99.8l-7.1,45.8l-7.2,-45.8l-33,-9.8Z" class="g4_7"/>
<path fill-rule="evenodd" d="M1231.3,142.5l56.7,-6.9l12.3,-32.2l12.1,32.2l56.8,6.9l-56.8,7l-12.1,32.2L1288,149.5l-56.7,-7Z" class="g3_7"/>
<path d="M1231.3,142.5l56.7,-6.9l12.3,-32.2l12.1,32.2l56.8,6.9l-56.8,7l-12.1,32.2L1288,149.5l-56.7,-7Z" class="g4_7"/>
<path fill-rule="evenodd" d="M1369.2,306.8l27.1,-7.5l5.8,-35.3l5.8,35.3l27.1,7.5l-27.1,7.6l-5.8,35.3l-5.8,-35.3l-27.1,-7.6Z" class="g3_7"/>
<path d="M1369.2,306.8l27.1,-7.5l5.8,-35.3l5.8,35.3l27.1,7.5l-27.1,7.6l-5.8,35.3l-5.8,-35.3l-27.1,-7.6Z" class="g4_7"/>
<path fill-rule="evenodd" d="M1063.8,787.3l34.4,-3.1l7.3,-14.5l7.4,14.5l34.4,3.1l-34.4,3.1l-7.4,14.6l-7.3,-14.6l-34.4,-3.1Z" class="g3_7"/>
<path d="M1063.8,787.3l34.4,-3.1l7.3,-14.5l7.4,14.5l34.4,3.1l-34.4,3.1l-7.4,14.6l-7.3,-14.6l-34.4,-3.1Z" class="g4_7"/>
<path fill-rule="evenodd" d="M1324.9,773l38.9,-5.6l8.4,-26.3l8.4,26.3l39,5.6l-39,5.7l-8.4,26.2l-8.4,-26.2L1324.9,773Z" class="g3_7"/>
<path d="M1324.9,773l38.9,-5.6l8.4,-26.3l8.4,26.3l39,5.6l-39,5.7l-8.4,26.2l-8.4,-26.2L1324.9,773Z" class="g4_7"/>
<path fill-rule="evenodd" d="M1327.4,33.3c0,-.3,-.1,-.6,-.1,-.9c0,-1.3,.8,-2.5,2.1,-3.6c1.4,-1,3.4,-1.9,5.8,-2.5c2.4,-.6,5.2,-1,7.9,-1c2.8,0,5.5,.4,8,1c.1,-.1,.2,-.1,.3,-.1c1,-.9,2.6,-1.6,4.5,-2.1c1.9,-.5,4.1,-.7,6.2,-.7c2.2,0,4.4,.2,6.3,.7c.9,.2,1.7,.5,2.5,.8c.1,0,.2,-.1,.3,-.2c.9,-.7,2.2,-1.2,3.8,-1.7c1.5,-.4,3.3,-.6,5.1,-.6c1.8,0,3.5,.2,5.1,.6c1.1,.3,2.2,.8,3,1.3c.8,-.5,1.9,-.9,3,-1.2c1.7,-.4,3.7,-.6,5.7,-.6c2,0,4,.2,5.7,.6c1.7,.5,3.1,1.1,4.1,1.9c.7,.5,1.2,1,1.4,1.6c1,.1,2,.3,2.9,.6c1.9,.4,3.5,1.1,4.6,2c1.1,.8,1.7,1.8,1.7,2.8c0,.7,-.3,1.4,-1,2.1c.4,.3,.8,.5,1.1,.8c1.4,1.1,2.2,2.3,2.2,3.5c0,1.3,-.8,2.5,-2.2,3.5c-1.3,1.1,-3.3,2,-5.8,2.6c-1.7,.5,-3.6,.8,-5.7,.9c0,1,-.6,2,-1.8,2.9c-1.2,.9,-2.9,1.7,-4.9,2.2c-2.1,.6,-4.5,.8,-6.8,.8c-2.4,0,-4.7,-.2,-6.8,-.8c-.1,0,-.2,0,-.4,-.1c-.3,.5,-.8,1,-1.4,1.5c-1.4,1.1,-3.4,2,-5.8,2.6c-2.4,.6,-5.2,.9,-7.9,.9c-2.8,0,-5.5,-.3,-7.9,-.9c-2.1,-.6,-3.9,-1.3,-5.3,-2.2c-.1,0,-.2,.1,-.3,.1c-2.7,.7,-5.8,1,-9,1c-3.2,0,-6.3,-.3,-9,-1c-2.8,-.7,-5.1,-1.8,-6.6,-3c0,0,-.1,0,-.1,0c-.4,0,-.8,0,-1.2,0c-1.8,0,-3.6,-.2,-5.1,-.6c-1.5,-.4,-2.8,-.9,-3.7,-1.6c-.9,-.7,-1.4,-1.5,-1.4,-2.3c0,-.8,.5,-1.5,1.4,-2.2c.4,-.3,.8,-.6,1.3,-.9c-1.5,-.4,-2.7,-.9,-3.6,-1.6c-.9,-.7,-1.4,-1.5,-1.4,-2.3c0,-.8,.5,-1.6,1.4,-2.3c.9,-.7,2.2,-1.2,3.7,-1.6c1.2,-.4,2.6,-.5,4.1,-.6v-.1Z" class="g3_7"/>
<path d="M1327.4,33.3c0,-.3,-.1,-.6,-.1,-.9c0,-1.3,.8,-2.5,2.1,-3.6c1.4,-1,3.4,-1.9,5.8,-2.5c2.4,-.6,5.2,-1,7.9,-1c2.8,0,5.5,.4,8,1c.1,-.1,.2,-.1,.3,-.1c1,-.9,2.6,-1.6,4.5,-2.1c1.9,-.5,4.1,-.7,6.2,-.7c2.2,0,4.4,.2,6.3,.7c.9,.2,1.7,.5,2.5,.8c.1,0,.2,-.1,.3,-.2c.9,-.7,2.2,-1.2,3.8,-1.7c1.5,-.4,3.3,-.6,5.1,-.6c1.8,0,3.5,.2,5.1,.6c1.1,.3,2.2,.8,3,1.3c.8,-.5,1.9,-.9,3,-1.2c1.7,-.4,3.7,-.6,5.7,-.6c2,0,4,.2,5.7,.6c1.7,.5,3.1,1.1,4.1,1.9c.7,.5,1.2,1,1.4,1.6c1,.1,2,.3,2.9,.6c1.9,.4,3.5,1.1,4.6,2c1.1,.8,1.7,1.8,1.7,2.8c0,.7,-.3,1.4,-1,2.1c.4,.3,.8,.5,1.1,.8c1.4,1.1,2.2,2.3,2.2,3.5c0,1.3,-.8,2.5,-2.2,3.5c-1.3,1.1,-3.3,2,-5.8,2.6c-1.7,.5,-3.6,.8,-5.7,.9c0,1,-.6,2,-1.8,2.9c-1.2,.9,-2.9,1.7,-4.9,2.2c-2.1,.6,-4.5,.8,-6.8,.8c-2.4,0,-4.7,-.2,-6.8,-.8c-.1,0,-.2,0,-.4,-.1c-.3,.5,-.8,1,-1.4,1.5c-1.4,1.1,-3.4,2,-5.8,2.6c-2.4,.6,-5.2,.9,-7.9,.9c-2.8,0,-5.5,-.3,-7.9,-.9c-2.1,-.6,-3.9,-1.3,-5.3,-2.2c-.1,0,-.2,.1,-.3,.1c-2.7,.7,-5.8,1,-9,1c-3.2,0,-6.3,-.3,-9,-1c-2.8,-.7,-5.1,-1.8,-6.6,-3c0,0,-.1,0,-.1,0c-.4,0,-.8,0,-1.2,0c-1.8,0,-3.6,-.2,-5.1,-.6c-1.5,-.4,-2.8,-.9,-3.7,-1.6c-.9,-.7,-1.4,-1.5,-1.4,-2.3c0,-.8,.5,-1.5,1.4,-2.2c.4,-.3,.8,-.6,1.3,-.9c-1.5,-.4,-2.7,-.9,-3.6,-1.6c-.9,-.7,-1.4,-1.5,-1.4,-2.3c0,-.8,.5,-1.6,1.4,-2.3c.9,-.7,2.2,-1.2,3.7,-1.6c1.2,-.4,2.6,-.5,4.1,-.6v-.1Zm1.9,9c-.2,0,-.5,0,-.8,0c-1.8,0,-3.5,-.2,-5.1,-.6m11.2,7.2c-.9,.2,-1.7,.3,-2.6,.3m24.9,2.9c-.1,-.1,-.3,-.2,-.5,-.3c-.4,-.4,-.8,-.7,-1,-1m30.5,-1.9c-.1,.4,-.3,.9,-.6,1.4m13,-10.5c.3,.1,.6,.2,.8,.3c2.1,.5,3.8,1.2,5,2.1c1.2,.9,1.8,2,1.8,3.1M1416.3,34c-.2,.3,-.5,.4,-.7,.6c-.7,.6,-1.6,1.1,-2.7,1.5m-4.8,-9.6c.2,.3,.2,.6,.2,.9m-21.8,-2.1c.1,-.1,.3,-.3,.5,-.4c.4,-.3,.8,-.6,1.2,-.8m-18,1.8c.2,-.3,.5,-.7,.8,-1m-19.9,1.4c1.2,.3,2.2,.6,3.1,1M1328,34.4c-.2,-.4,-.4,-.8,-.5,-1.1" class="g4_7"/>
<path fill-rule="evenodd" d="M1135.2,104c-.1,-.7,-.1,-1.5,-.1,-2.2c0,-3,.5,-5.9,1.5,-8.4c.9,-2.6,2.3,-4.7,3.9,-6.1c1.7,-1.5,3.6,-2.3,5.5,-2.3c1.9,0,3.8,.8,5.4,2.3c.1,-.1,.2,-.3,.2,-.4c.8,-2,1.8,-3.7,3.1,-4.9c1.3,-1.1,2.9,-1.8,4.3,-1.8c1.5,0,3,.7,4.3,1.8c.7,.6,1.2,1.3,1.7,2.1c.1,-.2,.2,-.4,.3,-.6c.6,-1.6,1.5,-3,2.5,-4c1.1,-.9,2.3,-1.4,3.6,-1.4c1.2,0,2.4,.5,3.5,1.4c.8,.7,1.5,1.7,2,2.8c.6,-1,1.3,-1.9,2.1,-2.6c1.2,-1.1,2.5,-1.6,3.9,-1.6c1.4,0,2.7,.5,3.9,1.6c1.2,1.1,2.2,2.6,2.8,4.4c.5,1.2,.8,2.5,1,3.9c.7,.3,1.4,.7,2,1.3c1.3,1.2,2.4,2.8,3.2,4.8c.7,2.1,1.1,4.3,1.1,6.7c0,1.8,-.2,3.6,-.7,5.2c.3,.6,.6,1.2,.8,1.8c1,2.6,1.5,5.5,1.5,8.5c0,2.9,-.5,5.8,-1.5,8.4c-.9,2.5,-2.3,4.7,-4,6.1c-1.2,1.1,-2.5,1.8,-3.9,2.1c0,2.5,-.4,4.9,-1.2,7.1c-.9,2.1,-2,4,-3.5,5.2c-1.3,1.3,-2.9,2,-4.6,2c-1.6,0,-3.2,-.7,-4.7,-2c0,0,-.1,-.1,-.2,-.2c-.3,1.2,-.6,2.4,-1,3.5c-1,2.6,-2.3,4.7,-4,6.1c-1.6,1.5,-3.5,2.3,-5.4,2.3c-1.9,0,-3.8,-.8,-5.4,-2.3c-1.5,-1.2,-2.7,-3,-3.7,-5.1c0,0,-.1,0,-.1,.1c-1.9,1.7,-4.1,2.6,-6.2,2.6c-2.2,0,-4.4,-.9,-6.3,-2.6c-1.8,-1.7,-3.4,-4.1,-4.5,-7c0,0,0,-.1,0,-.1c-.3,.1,-.6,.1,-.8,.1c-1.3,0,-2.5,-.5,-3.5,-1.5c-1.1,-.9,-2,-2.3,-2.6,-3.9c-.7,-1.6,-1,-3.5,-1,-5.4c0,-1.9,.3,-3.7,1,-5.4c.3,-.7,.6,-1.4,1,-2c-1.1,-.9,-2,-2.3,-2.6,-3.9c-.6,-1.7,-.9,-3.5,-.9,-5.4c0,-1.9,.3,-3.8,.9,-5.4c.6,-1.7,1.5,-3.1,2.6,-4c.8,-.8,1.8,-1.3,2.8,-1.4V104Z" class="g3_7"/>
<path d="M1135.2,104c-.1,-.7,-.1,-1.5,-.1,-2.2c0,-3,.5,-5.9,1.5,-8.4c.9,-2.6,2.3,-4.7,3.9,-6.1c1.7,-1.5,3.6,-2.3,5.5,-2.3c1.9,0,3.8,.8,5.4,2.3c.1,-.1,.2,-.3,.2,-.4c.8,-2,1.8,-3.7,3.1,-4.9c1.3,-1.1,2.9,-1.8,4.3,-1.8c1.5,0,3,.7,4.3,1.8c.7,.6,1.2,1.3,1.7,2.1c.1,-.2,.2,-.4,.3,-.6c.6,-1.6,1.5,-3,2.5,-4c1.1,-.9,2.3,-1.4,3.6,-1.4c1.2,0,2.4,.5,3.5,1.4c.8,.7,1.5,1.7,2,2.8c.6,-1,1.3,-1.9,2.1,-2.6c1.2,-1.1,2.5,-1.6,3.9,-1.6c1.4,0,2.7,.5,3.9,1.6c1.2,1.1,2.2,2.6,2.8,4.4c.5,1.2,.8,2.5,1,3.9c.7,.3,1.4,.7,2,1.3c1.3,1.2,2.4,2.8,3.2,4.8c.7,2.1,1.1,4.3,1.1,6.7c0,1.8,-.2,3.6,-.7,5.2c.3,.6,.6,1.2,.8,1.8c1,2.6,1.5,5.5,1.5,8.5c0,2.9,-.5,5.8,-1.5,8.4c-.9,2.5,-2.3,4.7,-4,6.1c-1.2,1.1,-2.5,1.8,-3.9,2.1c0,2.5,-.4,4.9,-1.2,7.1c-.9,2.1,-2,4,-3.5,5.2c-1.3,1.3,-2.9,2,-4.6,2c-1.6,0,-3.2,-.7,-4.7,-2c0,0,-.1,-.1,-.2,-.2c-.3,1.2,-.6,2.4,-1,3.5c-1,2.6,-2.3,4.7,-4,6.1c-1.6,1.5,-3.5,2.3,-5.4,2.3c-1.9,0,-3.8,-.8,-5.4,-2.3c-1.5,-1.2,-2.7,-3,-3.7,-5.1c0,0,-.1,0,-.1,.1c-1.9,1.7,-4.1,2.6,-6.2,2.6c-2.2,0,-4.4,-.9,-6.3,-2.6c-1.8,-1.7,-3.4,-4.1,-4.5,-7c0,0,0,-.1,0,-.1c-.3,.1,-.6,.1,-.8,.1c-1.3,0,-2.5,-.5,-3.5,-1.5c-1.1,-.9,-2,-2.3,-2.6,-3.9c-.7,-1.6,-1,-3.5,-1,-5.4c0,-1.9,.3,-3.7,1,-5.4c.3,-.7,.6,-1.4,1,-2c-1.1,-.9,-2,-2.3,-2.6,-3.9c-.6,-1.7,-.9,-3.5,-.9,-5.4c0,-1.9,.3,-3.8,.9,-5.4c.6,-1.7,1.5,-3.1,2.6,-4c.8,-.8,1.8,-1.3,2.8,-1.4V104Zm1.3,21.5c-.2,.1,-.3,.1,-.6,.1c-1.2,0,-2.4,-.5,-3.4,-1.5q-.1,0,-.1,0m7.7,17.4c-.6,.3,-1.2,.6,-1.8,.7m17.2,6.9c-.2,-.3,-.3,-.6,-.4,-.9c-.3,-.7,-.5,-1.5,-.7,-2.3m21,-4.7c-.1,1.2,-.3,2.4,-.5,3.5m8.9,-25c.3,.1,.4,.3,.6,.5c1.4,1.2,2.6,3.1,3.4,5.2c.8,2.2,1.3,4.7,1.3,7.2c0,0,0,.1,0,.1m7.1,-26.9c-.1,.5,-.3,1,-.5,1.4c-.5,1.3,-1.1,2.5,-1.9,3.5m-3.2,-23c.1,.7,.1,1.4,.1,2.1q0,.1,0,.2m-15,-5c.2,-.4,.3,-.8,.4,-1.2c.3,-.6,.6,-1.2,.9,-1.7m-12.4,4.3c.1,-.9,.3,-1.7,.5,-2.6m-13.6,3.5c.8,.7,1.5,1.5,2.1,2.4m-18,16.9c-.2,-.8,-.3,-1.7,-.3,-2.6" class="g4_7"/>
</svg>