<?xml version="1.0" encoding="UTF-8" standalone="no"?>
<!DOCTYPE svg PUBLIC "-//W3C//DTD SVG 1.1//EN"
"http://www.w3.org/Graphics/SVG/1.1/DTD/svg11.dtd">
<svg viewBox="0 0 1466 825" version="1.1" xmlns="http://www.w3.org/2000/svg" xmlns:xlink="http://www.w3.org/1999/xlink">
<defs>
<clipPath id="c0_7"><path d="M0,825V0H1466.6V825Z"/></clipPath>
<clipPath id="c1_7"><path d="M0,825V0H1466.7V825Z"/></clipPath>
<style type="text/css"><![CDATA[
.g0_7{
fill: #FFFFFF;
}
.g1_7{
fill: #70AD47;
}
.g2_7{
fill: none;
stroke: #527F34;
stroke-width: 1.515;
stroke-linecap: butt;
stroke-linejoin: miter;
stroke-miterlimit: 3;
}
]]></style>
</defs>
<path clip-path="url(#c0_7)" fill-rule="evenodd" d="M0,0H1466.6V825H0V0Z" class="g0_7"/>
<g clip-path="url(#c1_7)">
<image preserveAspectRatio="none" x="0" y="0" width="188" height="188" xlink:href="img/1.jpg"/>
<image preserveAspectRatio="none" x="188" y="0" width="187" height="188" xlink:href="img/2.jpg"/>
<image preserveAspectRatio="none" x="375" y="0" width="188" height="188" xlink:href="img/3.jpg"/>
<image preserveAspectRatio="none" x="563" y="0" width="188" height="188" xlink:href="img/4.jpg"/>
<image preserveAspectRatio="none" x="751" y="0" width="188" height="188" xlink:href="img/5.jpg"/>
<image preserveAspectRatio="none" x="939" y="0" width="187" height="188" xlink:href="img/6.jpg"/>
<image preserveAspectRatio="none" x="1126" y="0" width="188" height="188" xlink:href="img/7.jpg"/>
<image preserveAspectRatio="none" x="1314" y="0" width="188" height="188" xlink:href="img/8.jpg"/>
<image preserveAspectRatio="none" x="0" y="188" width="188" height="187" xlink:href="img/9.jpg"/>
<image preserveAspectRatio="none" x="188" y="188" width="187" height="187" xlink:href="img/10.jpg"/>
<image preserveAspectRatio="none" x="375" y="188" width="188" height="187" xlink:href="img/11.jpg"/>
<image preserveAspectRatio="none" x="563" y="188" width="188" height="187" xlink:href="img/12.jpg"/>
<image preserveAspectRatio="none" x="751" y="188" width="188" height="187" xlink:href="img/13.jpg"/>
<image preserveAspectRatio="none" x="939" y="188" width="187" height="187" xlink:href="img/14.jpg"/>
<image preserveAspectRatio="none" x="1126" y="188" width="188" height="187" xlink:href="img/15.jpg"/>
<image preserveAspectRatio="none" x="1314" y="188" width="188" height="187" xlink:href="img/16.jpg"/>
<image preserveAspectRatio="none" x="0" y="375" width="188" height="188" xlink:href="img/17.jpg"/>
<image preserveAspectRatio="none" x="188" y="375" width="187" height="188" xlink:href="img/18.jpg"/>
<image preserveAspectRatio="none" x="375" y="375" width="188" height="188" xlink:href="img/19.jpg"/>
<image preserveAspectRatio="none" x="563" y="375" width="188" height="188" xlink:href="img/20.jpg"/>
<image preserveAspectRatio="none" x="751" y="375" width="188" height="188" xlink:href="img/21.jpg"/>
<image preserveAspectRatio="none" x="939" y="375" width="187" height="188" xlink:href="img/22.jpg"/>
<image preserveAspectRatio="none" x="1126" y="375" width="188" height="188" xlink:href="img/23.jpg"/>
<image preserveAspectRatio="none" x="1314" y="375" width="188" height="188" xlink:href="img/24.jpg"/>
<image preserveAspectRatio="none" x="0" y="563" width="188" height="188" xlink:href="img/25.jpg"/>
<image preserveAspectRatio="none" x="188" y="563" width="187" height="188" xlink:href="img/26.jpg"/>
<image preserveAspectRatio="none" x="375" y="563" width="188" height="188" xlink:href="img/27.jpg"/>
<image preserveAspectRatio="none" x="563" y="563" width="188" height="188" xlink:href="img/28.jpg"/>
<image preserveAspectRatio="none" x="751" y="563" width="188" height="188" xlink:href="img/29.jpg"/>
<image preserveAspectRatio="none" x="939" y="563" width="187" height="188" xlink:href="img/30.jpg"/>
<image preserveAspectRatio="none" x="1126" y="563" width="188" height="188" xlink:href="img/31.jpg"/>
<image preserveAspectRatio="none" x="1314" y="563" width="188" height="188" xlink:href="img/32.jpg"/>
<image preserveAspectRatio="none" x="0" y="751" width="188" height="188" xlink:href="img/33.jpg"/>
<image preserveAspectRatio="none" x="188" y="751" width="187" height="188" xlink:href="img/34.jpg"/>
<image preserveAspectRatio="none" x="375" y="751" width="188" height="188" xlink:href="img/35.jpg"/>
<image preserveAspectRatio="none" x="563" y="751" width="188" height="188" xlink:href="img/36.jpg"/>
<image preserveAspectRatio="none" x="751" y="751" width="188" height="188" xlink:href="img/37.jpg"/>
<image preserveAspectRatio="none" x="939" y="751" width="187" height="188" xlink:href="img/38.jpg"/>
<image preserveAspectRatio="none" x="1126" y="751" width="188" height="188" xlink:href="img/39.jpg"/>
<image preserveAspectRatio="none" x="1314" y="751" width="188" height="188" xlink:href="img/40.jpg"/>
</g>
<path fill-rule="evenodd" d="M101.8,280.7c0,-17.9,9.9,-35.4,28.7,-50.9c18.8,-15.5,45.8,-28.3,78.4,-37.3c32.6,-8.9,69.5,-13.6,107.1,-13.6c37.6,0,74.6,4.7,107.2,13.6c32.5,9,59.6,21.8,78.4,37.3c18.8,15.5,28.7,33,28.7,50.9c0,17.9,-9.9,35.4,-28.7,50.9c-18.8,15.5,-45.9,28.3,-78.4,37.3c-32.6,8.9,-69.6,13.6,-107.1,13.6c-37.7,0,-74.6,-4.7,-107.2,-13.6c-32.6,-9,-59.6,-21.8,-78.4,-37.3c-18.8,-15.5,-28.7,-33,-28.7,-50.9Z" class="g1_7"/>
<path d="M101.8,280.7c0,-17.9,9.9,-35.4,28.7,-50.9c18.8,-15.5,45.8,-28.3,78.4,-37.3c32.6,-8.9,69.5,-13.6,107.1,-13.6c37.6,0,74.6,4.7,107.2,13.6c32.5,9,59.6,21.8,78.4,37.3c18.8,15.5,28.7,33,28.7,50.9c0,17.9,-9.9,35.4,-28.7,50.9c-18.8,15.5,-45.9,28.3,-78.4,37.3c-32.6,8.9,-69.6,13.6,-107.1,13.6c-37.7,0,-74.6,-4.7,-107.2,-13.6c-32.6,-9,-59.6,-21.8,-78.4,-37.3c-18.8,-15.5,-28.7,-33,-28.7,-50.9Z" class="g2_7"/>
<path fill-rule="evenodd" d="M837.6,280.7c0,-17.9,9.9,-35.4,28.7,-50.9c18.8,-15.5,45.9,-28.3,78.4,-37.3c32.6,-8.9,69.6,-13.6,107.2,-13.6c37.6,0,74.5,4.7,107.1,13.6c32.6,9,59.6,21.8,78.4,37.3c18.8,15.5,28.7,33,28.7,50.9c0,17.9,-9.9,35.4,-28.7,50.9c-18.8,15.5,-45.8,28.3,-78.4,37.3c-32.6,8.9,-69.5,13.6,-107.1,13.6c-37.6,0,-74.6,-4.7,-107.2,-13.6c-32.5,-9,-59.6,-21.8,-78.4,-37.3c-18.8,-15.5,-28.7,-33,-28.7,-50.9Z" class="g1_7"/>
<path d="M837.6,280.7c0,-17.9,9.9,-35.4,28.7,-50.9c18.8,-15.5,45.9,-28.3,78.4,-37.3c32.6,-8.9,69.6,-13.6,107.2,-13.6c37.6,0,74.5,4.7,107.1,13.6c32.6,9,59.6,21.8,78.4,37.3c18.8,15.5,28.7,33,28.7,50.9c0,17.9,-9.9,35.4,-28.7,50.9c-18.8,15.5,-45.8,28.3,-78.4,37.3c-32.6,8.9,-69.5,13.6,-107.1,13.6c-37.6,0,-74.6,-4.7,-107.2,-13.6c-32.5,-9,-59.6,-21.8,-78.4,-37.3c-18.8,-15.5,-28.7,-33,-28.7,-50.9Z" class="g2_7"/>
<path fill-rule="evenodd" d="M286,474h15V393.4h30V474h15l-30,30L286,474Z" class="g1_7"/>
<path d="M286,474h15V393.4h30V474h15l-30,30L286,474Z" class="g2_7"/>
<path fill-rule="evenodd" d="M101.8,554.9c0,-4.1,1.1,-8.1,3,-11.5c2.1,-3.5,5,-6.4,8.4,-8.5c3.6,-2,7.5,-3,11.6,-3H531.9c4,0,8,1.1,11.5,3.1c3.5,2,6.4,4.9,8.4,8.4c2,3.5,3.1,7.5,3.1,11.5v91.9c0,4,-1.1,8,-3.1,11.5c-2,3.5,-4.9,6.4,-8.4,8.4c-3.5,2,-7.5,3.1,-11.5,3.1H124.7c-4,0,-8,-1.1,-11.5,-3.1c-3.5,-2,-6.4,-4.9,-8.4,-8.4c-2,-3.5,-3.1,-7.5,-3.1,-11.5l.1,-91.9Z" class="g1_7"/>
<path d="M101.8,554.9c0,-4.1,1.1,-8.1,3,-11.5c2.1,-3.5,5,-6.4,8.4,-8.5c3.6,-2,7.5,-3,11.6,-3H531.9c4,0,8,1.1,11.5,3.1c3.5,2,6.4,4.9,8.4,8.4c2,3.5,3.1,7.5,3.1,11.5v91.9c0,4,-1.1,8,-3.1,11.5c-2,3.5,-4.9,6.4,-8.4,8.4c-3.5,2,-7.5,3.1,-11.5,3.1H124.7c-4,0,-8,-1.1,-11.5,-3.1c-3.5,-2,-6.4,-4.9,-8.4,-8.4c-2,-3.5,-3.1,-7.5,-3.1,-11.5l.1,-91.9Z" class="g2_7"/>
<path fill-rule="evenodd" d="M1021.8,474.5h15V393.9h30v80.6h15l-30,30l-30,-30Z" class="g1_7"/>
<path d="M1021.8,474.5h15V393.9h30v80.6h15l-30,30l-30,-30Z" class="g2_7"/>
<path fill-rule="evenodd" d="M810.4,554.9c0,-4.1,1.1,-8.1,3.1,-11.5c2,-3.5,4.9,-6.4,8.4,-8.5c3.5,-2,7.5,-3,11.5,-3h407.1c4.1,0,8,1.1,11.5,3.1c3.5,2,6.4,4.9,8.5,8.4c1.9,3.5,3,7.5,3,11.5v91.9c0,4,-1.1,8,-3,11.5c-2.1,3.5,-5,6.4,-8.4,8.4c-3.6,2,-7.5,3.1,-11.6,3.1H833.4c-4.1,0,-8.1,-1.1,-11.5,-3.1c-3.5,-2,-6.4,-4.9,-8.5,-8.4c-2,-3.5,-3,-7.5,-3,-11.5V554.9Z" class="g1_7"/>
<path d="M810.4,554.9c0,-4.1,1.1,-8.1,3.1,-11.5c2,-3.5,4.9,-6.4,8.4,-8.5c3.5,-2,7.5,-3,11.5,-3h407.1c4.1,0,8,1.1,11.5,3.1c3.5,2,6.4,4.9,8.5,8.4c1.9,3.5,3,7.5,3,11.5v91.9c0,4,-1.1,8,-3,11.5c-2.1,3.5,-5,6.4,-8.4,8.4c-3.6,2,-7.5,3.1,-11.6,3.1H833.4c-4.1,0,-8.1,-1.1,-11.5,-3.1c-3.5,-2,-6.4,-4.9,-8.5,-8.4c-2,-3.5,-3,-7.5,-3,-11.5V554.9Z" class="g2_7"/>
</svg>