<?xml version="1.0" encoding="UTF-8" standalone="no"?>
<!DOCTYPE svg PUBLIC "-//W3C//DTD SVG 1.1//EN"
"http://www.w3.org/Graphics/SVG/1.1/DTD/svg11.dtd">
<svg viewBox="0 0 1466 825" version="1.1" xmlns="http://www.w3.org/2000/svg" xmlns:xlink="http://www.w3.org/1999/xlink">
<defs>
<clipPath id="c0_5"><path d="M0,825V0H1466.6V825Z"/></clipPath>
<clipPath id="c1_5"><path d="M0,825V0H1466.7V825Z"/></clipPath>
<style type="text/css"><![CDATA[
.g0_5{
fill: #FFFFFF;
}
.g1_5{
fill: #5B9BD5;
}
.g2_5{
fill: none;
stroke: #43729D;
stroke-width: 1.515;
stroke-linecap: butt;
stroke-linejoin: miter;
stroke-miterlimit: 3;
}
]]></style>
</defs>
<path clip-path="url(#c0_5)" fill-rule="evenodd" d="M0,0H1466.6V825H0V0Z" class="g0_5"/>
<g clip-path="url(#c1_5)">
<image preserveAspectRatio="none" x="0" y="0" width="188" height="188" xlink:href="img/1.jpg"/>
<image preserveAspectRatio="none" x="188" y="0" width="187" height="188" xlink:href="img/2.jpg"/>
<image preserveAspectRatio="none" x="375" y="0" width="188" height="188" xlink:href="img/3.jpg"/>
<image preserveAspectRatio="none" x="563" y="0" width="188" height="188" xlink:href="img/4.jpg"/>
<image preserveAspectRatio="none" x="751" y="0" width="188" height="188" xlink:href="img/5.jpg"/>
<image preserveAspectRatio="none" x="939" y="0" width="187" height="188" xlink:href="img/6.jpg"/>
<image preserveAspectRatio="none" x="1126" y="0" width="188" height="188" xlink:href="img/7.jpg"/>
<image preserveAspectRatio="none" x="1314" y="0" width="188" height="188" xlink:href="img/8.jpg"/>
<image preserveAspectRatio="none" x="0" y="188" width="188" height="187" xlink:href="img/9.jpg"/>
<image preserveAspectRatio="none" x="188" y="188" width="187" height="187" xlink:href="img/10.jpg"/>
<image preserveAspectRatio="none" x="375" y="188" width="188" height="187" xlink:href="img/11.jpg"/>
<image preserveAspectRatio="none" x="563" y="188" width="188" height="187" xlink:href="img/12.jpg"/>
<image preserveAspectRatio="none" x="751" y="188" width="188" height="187" xlink:href="img/13.jpg"/>
<image preserveAspectRatio="none" x="939" y="188" width="187" height="187" xlink:href="img/14.jpg"/>
<image preserveAspectRatio="none" x="1126" y="188" width="188" height="187" xlink:href="img/15.jpg"/>
<image preserveAspectRatio="none" x="1314" y="188" width="188" height="187" xlink:href="img/16.jpg"/>
<image preserveAspectRatio="none" x="0" y="375" width="188" height="188" xlink:href="img/17.jpg"/>
<image preserveAspectRatio="none" x="188" y="375" width="187" height="188" xlink:href="img/18.jpg"/>
<image preserveAspectRatio="none" x="375" y="375" width="188" height="188" xlink:href="img/19.jpg"/>
<image preserveAspectRatio="none" x="563" y="375" width="188" height="188" xlink:href="img/20.jpg"/>
<image preserveAspectRatio="none" x="751" y="375" width="188" height="188" xlink:href="img/21.jpg"/>
<image preserveAspectRatio="none" x="939" y="375" width="187" height="188" xlink:href="img/22.jpg"/>
<image preserveAspectRatio="none" x="1126" y="375" width="188" height="188" xlink:href="img/23.jpg"/>
<image preserveAspectRatio="none" x="1314" y="375" width="188" height="188" xlink:href="img/24.jpg"/>
<image preserveAspectRatio="none" x="0" y="563" width="188" height="188" xlink:href="img/25.jpg"/>
<image preserveAspectRatio="none" x="188" y="563" width="187" height="188" xlink:href="img/26.jpg"/>
<image preserveAspectRatio="none" x="375" y="563" width="188" height="188" xlink:href="img/27.jpg"/>
<image preserveAspectRatio="none" x="563" y="563" width="188" height="188" xlink:href="img/28.jpg"/>
<image preserveAspectRatio="none" x="751" y="563" width="188" height="188" xlink:href="img/29.jpg"/>
<image preserveAspectRatio="none" x="939" y="563" width="187" height="188" xlink:href="img/30.jpg"/>
<image preserveAspectRatio="none" x="1126" y="563" width="188" height="188" xlink:href="img/31.jpg"/>
<image preserveAspectRatio="none" x="1314" y="563" width="188" height="188" xlink:href="img/32.jpg"/>
<image preserveAspectRatio="none" x="0" y="751" width="188" height="188" xlink:href="img/33.jpg"/>
<image preserveAspectRatio="none" x="188" y="751" width="187" height="188" xlink:href="img/34.jpg"/>
<image preserveAspectRatio="none" x="375" y="751" width="188" height="188" xlink:href="img/35.jpg"/>
<image preserveAspectRatio="none" x="563" y="751" width="188" height="188" xlink:href="img/36.jpg"/>
<image preserveAspectRatio="none" x="751" y="751" width="188" height="188" xlink:href="img/37.jpg"/>
<image preserveAspectRatio="none" x="939" y="751" width="187" height="188" xlink:href="img/38.jpg"/>
<image preserveAspectRatio="none" x="1126" y="751" width="188" height="188" xlink:href="img/39.jpg"/>
<image preserveAspectRatio="none" x="1314" y="751" width="188" height="188" xlink:href="img/40.jpg"/>
</g>
<image clip-path="url(#c0_5)" preserveAspectRatio="none" x="583" y="157" width="343" height="343" xlink:href="img/41.jpg"/>
<path fill-rule="evenodd" d="M547.5,164.1H431.1V152.2l-23.9,23.9L431.1,200V188H547.5V164.1Z" class="g1_5"/>
<path d="M547.5,164.1H431.1V152.2l-23.9,23.9L431.1,200V188H547.5V164.1Z" class="g2_5"/>
<path fill-rule="evenodd" d="M534.9,456.2H413.1v-12l-23.9,23.9L413.1,492V480.1H534.9V456.2Z" class="g1_5"/>
<path d="M534.9,456.2H413.1v-12l-23.9,23.9L413.1,492V480.1H534.9V456.2Z" class="g2_5"/>
<path fill-rule="evenodd" d="M573.4,630.6h11.8V518.8h23.6V630.6h11.7L597,654.2L573.4,630.6Z" class="g1_5"/>
<path d="M573.4,630.6h11.8V518.8h23.6V630.6h11.7L597,654.2L573.4,630.6Z" class="g2_5"/>
<path fill-rule="evenodd" d="M879.2,630.6H891V518.8h23.6V630.6h11.7l-23.5,23.6L879.2,630.6Z" class="g1_5"/>
<path d="M879.2,630.6H891V518.8h23.6V630.6h11.7l-23.5,23.6L879.2,630.6Z" class="g2_5"/>
<path fill-rule="evenodd" d="M944.4,168.5H1067v-12l23.9,23.9L1067,204.3V192.4H944.4V168.5Z" class="g1_5"/>
<path d="M944.4,168.5H1067v-12l23.9,23.9L1067,204.3V192.4H944.4V168.5Z" class="g2_5"/>
<path fill-rule="evenodd" d="M953.8,464.3h122.5V452.4l23.9,23.9l-23.9,23.9v-12H953.8V464.3Z" class="g1_5"/>
<path d="M953.8,464.3h122.5V452.4l23.9,23.9l-23.9,23.9v-12H953.8V464.3Z" class="g2_5"/>
<g clip-path="url(#c0_5)">
<image preserveAspectRatio="none" x="13" y="529" width="434" height="288" xlink:href="img/42.jpg"/>
<image preserveAspectRatio="none" x="1067" y="583" width="378" height="224" xlink:href="img/43.jpg"/>
</g>
</svg>