<?xml version="1.0" encoding="UTF-8" standalone="no"?>
<!DOCTYPE svg PUBLIC "-//W3C//DTD SVG 1.1//EN"
"http://www.w3.org/Graphics/SVG/1.1/DTD/svg11.dtd">
<svg viewBox="0 0 1466 825" version="1.1" xmlns="http://www.w3.org/2000/svg" xmlns:xlink="http://www.w3.org/1999/xlink">
<defs>
<clipPath id="c0_17"><path d="M0,825V0H1466.6V825Z"/></clipPath>
<clipPath id="c1_17"><path d="M0,825V0H1466.7V825Z"/></clipPath>
<style type="text/css"><![CDATA[
.g0_17{
fill: #FFFFFF;
}
.g1_17{
fill: none;
stroke: #002060;
stroke-width: 5.197;
stroke-linecap: butt;
stroke-linejoin: miter;
}
]]></style>
</defs>
<path clip-path="url(#c0_17)" fill-rule="evenodd" d="M0,0H1466.6V825H0V0Z" class="g0_17"/>
<g clip-path="url(#c1_17)">
<image preserveAspectRatio="none" x="0" y="0" width="188" height="188" xlink:href="img/1.jpg"/>
<image preserveAspectRatio="none" x="188" y="0" width="187" height="188" xlink:href="img/2.jpg"/>
<image preserveAspectRatio="none" x="375" y="0" width="188" height="188" xlink:href="img/3.jpg"/>
<image preserveAspectRatio="none" x="563" y="0" width="188" height="188" xlink:href="img/4.jpg"/>
<image preserveAspectRatio="none" x="751" y="0" width="188" height="188" xlink:href="img/5.jpg"/>
<image preserveAspectRatio="none" x="939" y="0" width="187" height="188" xlink:href="img/6.jpg"/>
<image preserveAspectRatio="none" x="1126" y="0" width="188" height="188" xlink:href="img/7.jpg"/>
<image preserveAspectRatio="none" x="1314" y="0" width="188" height="188" xlink:href="img/8.jpg"/>
<image preserveAspectRatio="none" x="0" y="188" width="188" height="187" xlink:href="img/9.jpg"/>
<image preserveAspectRatio="none" x="188" y="188" width="187" height="187" xlink:href="img/10.jpg"/>
<image preserveAspectRatio="none" x="375" y="188" width="188" height="187" xlink:href="img/11.jpg"/>
<image preserveAspectRatio="none" x="563" y="188" width="188" height="187" xlink:href="img/12.jpg"/>
<image preserveAspectRatio="none" x="751" y="188" width="188" height="187" xlink:href="img/13.jpg"/>
<image preserveAspectRatio="none" x="939" y="188" width="187" height="187" xlink:href="img/14.jpg"/>
<image preserveAspectRatio="none" x="1126" y="188" width="188" height="187" xlink:href="img/15.jpg"/>
<image preserveAspectRatio="none" x="1314" y="188" width="188" height="187" xlink:href="img/16.jpg"/>
<image preserveAspectRatio="none" x="0" y="375" width="188" height="188" xlink:href="img/17.jpg"/>
<image preserveAspectRatio="none" x="188" y="375" width="187" height="188" xlink:href="img/18.jpg"/>
<image preserveAspectRatio="none" x="375" y="375" width="188" height="188" xlink:href="img/19.jpg"/>
<image preserveAspectRatio="none" x="563" y="375" width="188" height="188" xlink:href="img/20.jpg"/>
<image preserveAspectRatio="none" x="751" y="375" width="188" height="188" xlink:href="img/21.jpg"/>
<image preserveAspectRatio="none" x="939" y="375" width="187" height="188" xlink:href="img/22.jpg"/>
<image preserveAspectRatio="none" x="1126" y="375" width="188" height="188" xlink:href="img/23.jpg"/>
<image preserveAspectRatio="none" x="1314" y="375" width="188" height="188" xlink:href="img/24.jpg"/>
<image preserveAspectRatio="none" x="0" y="563" width="188" height="188" xlink:href="img/25.jpg"/>
<image preserveAspectRatio="none" x="188" y="563" width="187" height="188" xlink:href="img/26.jpg"/>
<image preserveAspectRatio="none" x="375" y="563" width="188" height="188" xlink:href="img/27.jpg"/>
<image preserveAspectRatio="none" x="563" y="563" width="188" height="188" xlink:href="img/28.jpg"/>
<image preserveAspectRatio="none" x="751" y="563" width="188" height="188" xlink:href="img/29.jpg"/>
<image preserveAspectRatio="none" x="939" y="563" width="187" height="188" xlink:href="img/30.jpg"/>
<image preserveAspectRatio="none" x="1126" y="563" width="188" height="188" xlink:href="img/31.jpg"/>
<image preserveAspectRatio="none" x="1314" y="563" width="188" height="188" xlink:href="img/32.jpg"/>
<image preserveAspectRatio="none" x="0" y="751" width="188" height="188" xlink:href="img/33.jpg"/>
<image preserveAspectRatio="none" x="188" y="751" width="187" height="188" xlink:href="img/34.jpg"/>
<image preserveAspectRatio="none" x="375" y="751" width="188" height="188" xlink:href="img/35.jpg"/>
<image preserveAspectRatio="none" x="563" y="751" width="188" height="188" xlink:href="img/36.jpg"/>
<image preserveAspectRatio="none" x="751" y="751" width="188" height="188" xlink:href="img/37.jpg"/>
<image preserveAspectRatio="none" x="939" y="751" width="187" height="188" xlink:href="img/38.jpg"/>
<image preserveAspectRatio="none" x="1126" y="751" width="188" height="188" xlink:href="img/39.jpg"/>
<image preserveAspectRatio="none" x="1314" y="751" width="188" height="188" xlink:href="img/40.jpg"/>
</g>
<path d="M51.9,122.1h999" class="g1_17"/>
<g clip-path="url(#c0_17)">
<image preserveAspectRatio="none" x="16" y="190" width="362" height="196" xlink:href="img/41.jpg"/>
<image preserveAspectRatio="none" x="444" y="193" width="447" height="193" xlink:href="img/42.jpg"/>
<image preserveAspectRatio="none" x="975" y="193" width="457" height="193" xlink:href="img/43.jpg"/>
<image preserveAspectRatio="none" x="8" y="523" width="378" height="222" xlink:href="img/44.jpg"/>
<image preserveAspectRatio="none" x="458" y="523" width="432" height="222" xlink:href="img/45.jpg"/>
<image preserveAspectRatio="none" x="975" y="538" width="457" height="192" xlink:href="img/46.jpg"/>
</g>
</svg>