<?xml version="1.0" encoding="UTF-8" standalone="no"?>
<!DOCTYPE svg PUBLIC "-//W3C//DTD SVG 1.1//EN"
"http://www.w3.org/Graphics/SVG/1.1/DTD/svg11.dtd">
<svg viewBox="0 0 1466 825" version="1.1" xmlns="http://www.w3.org/2000/svg" xmlns:xlink="http://www.w3.org/1999/xlink">
<defs>
<clipPath id="c0_8"><path d="M0,825V0H1466.6V825Z"/></clipPath>
<clipPath id="c1_8"><path d="M0,825V0H1466.7V825Z"/></clipPath>
<style type="text/css"><![CDATA[
.g0_8{
fill: #FFFFFF;
}
.g1_8{
fill: #5B9BD5;
}
.g2_8{
fill: none;
stroke: #43729D;
stroke-width: 1.515;
stroke-linecap: butt;
stroke-linejoin: miter;
stroke-miterlimit: 3;
}
]]></style>
</defs>
<path clip-path="url(#c0_8)" fill-rule="evenodd" d="M0,0H1466.6V825H0V0Z" class="g0_8"/>
<g clip-path="url(#c1_8)">
<image preserveAspectRatio="none" x="0" y="0" width="188" height="188" xlink:href="img/1.jpg"/>
<image preserveAspectRatio="none" x="188" y="0" width="187" height="188" xlink:href="img/2.jpg"/>
<image preserveAspectRatio="none" x="375" y="0" width="188" height="188" xlink:href="img/3.jpg"/>
<image preserveAspectRatio="none" x="563" y="0" width="188" height="188" xlink:href="img/4.jpg"/>
<image preserveAspectRatio="none" x="751" y="0" width="188" height="188" xlink:href="img/5.jpg"/>
<image preserveAspectRatio="none" x="939" y="0" width="187" height="188" xlink:href="img/6.jpg"/>
<image preserveAspectRatio="none" x="1126" y="0" width="188" height="188" xlink:href="img/7.jpg"/>
<image preserveAspectRatio="none" x="1314" y="0" width="188" height="188" xlink:href="img/8.jpg"/>
<image preserveAspectRatio="none" x="0" y="188" width="188" height="187" xlink:href="img/9.jpg"/>
<image preserveAspectRatio="none" x="188" y="188" width="187" height="187" xlink:href="img/10.jpg"/>
<image preserveAspectRatio="none" x="375" y="188" width="188" height="187" xlink:href="img/11.jpg"/>
<image preserveAspectRatio="none" x="563" y="188" width="188" height="187" xlink:href="img/12.jpg"/>
<image preserveAspectRatio="none" x="751" y="188" width="188" height="187" xlink:href="img/13.jpg"/>
<image preserveAspectRatio="none" x="939" y="188" width="187" height="187" xlink:href="img/14.jpg"/>
<image preserveAspectRatio="none" x="1126" y="188" width="188" height="187" xlink:href="img/15.jpg"/>
<image preserveAspectRatio="none" x="1314" y="188" width="188" height="187" xlink:href="img/16.jpg"/>
<image preserveAspectRatio="none" x="0" y="375" width="188" height="188" xlink:href="img/17.jpg"/>
<image preserveAspectRatio="none" x="188" y="375" width="187" height="188" xlink:href="img/18.jpg"/>
<image preserveAspectRatio="none" x="375" y="375" width="188" height="188" xlink:href="img/19.jpg"/>
<image preserveAspectRatio="none" x="563" y="375" width="188" height="188" xlink:href="img/20.jpg"/>
<image preserveAspectRatio="none" x="751" y="375" width="188" height="188" xlink:href="img/21.jpg"/>
<image preserveAspectRatio="none" x="939" y="375" width="187" height="188" xlink:href="img/22.jpg"/>
<image preserveAspectRatio="none" x="1126" y="375" width="188" height="188" xlink:href="img/23.jpg"/>
<image preserveAspectRatio="none" x="1314" y="375" width="188" height="188" xlink:href="img/24.jpg"/>
<image preserveAspectRatio="none" x="0" y="563" width="188" height="188" xlink:href="img/25.jpg"/>
<image preserveAspectRatio="none" x="188" y="563" width="187" height="188" xlink:href="img/26.jpg"/>
<image preserveAspectRatio="none" x="375" y="563" width="188" height="188" xlink:href="img/27.jpg"/>
<image preserveAspectRatio="none" x="563" y="563" width="188" height="188" xlink:href="img/28.jpg"/>
<image preserveAspectRatio="none" x="751" y="563" width="188" height="188" xlink:href="img/29.jpg"/>
<image preserveAspectRatio="none" x="939" y="563" width="187" height="188" xlink:href="img/30.jpg"/>
<image preserveAspectRatio="none" x="1126" y="563" width="188" height="188" xlink:href="img/31.jpg"/>
<image preserveAspectRatio="none" x="1314" y="563" width="188" height="188" xlink:href="img/32.jpg"/>
<image preserveAspectRatio="none" x="0" y="751" width="188" height="188" xlink:href="img/33.jpg"/>
<image preserveAspectRatio="none" x="188" y="751" width="187" height="188" xlink:href="img/34.jpg"/>
<image preserveAspectRatio="none" x="375" y="751" width="188" height="188" xlink:href="img/35.jpg"/>
<image preserveAspectRatio="none" x="563" y="751" width="188" height="188" xlink:href="img/36.jpg"/>
<image preserveAspectRatio="none" x="751" y="751" width="188" height="188" xlink:href="img/37.jpg"/>
<image preserveAspectRatio="none" x="939" y="751" width="187" height="188" xlink:href="img/38.jpg"/>
<image preserveAspectRatio="none" x="1126" y="751" width="188" height="188" xlink:href="img/39.jpg"/>
<image preserveAspectRatio="none" x="1314" y="751" width="188" height="188" xlink:href="img/40.jpg"/>
</g>
<path fill-rule="evenodd" d="M461.4,134.7v61.2c0,3.5,.9,7,2.6,10.1c1.8,3,4.4,5.6,7.4,7.3c3.1,1.8,6.5,2.7,10,2.7h14.4v5.7l11.5,-11.4L495.8,198.8v5.7H481.4c-1.5,0,-2.9,-.4,-4.2,-1.1c-1.4,-.8,-2.5,-1.8,-3.2,-3.1c-.8,-1.4,-1.2,-2.9,-1.2,-4.4V134.7H461.4Z" class="g1_8"/>
<path d="M461.4,134.7v61.2c0,3.5,.9,7,2.6,10.1c1.8,3,4.4,5.6,7.4,7.3c3.1,1.8,6.5,2.7,10,2.7h14.4v5.7l11.5,-11.4L495.8,198.8v5.7H481.4c-1.5,0,-2.9,-.4,-4.2,-1.1c-1.4,-.8,-2.5,-1.8,-3.2,-3.1c-.8,-1.4,-1.2,-2.9,-1.2,-4.4V134.7H461.4Z" class="g2_8"/>
<path fill-rule="evenodd" d="M461.4,293.1v75.6c0,4.7,1.2,9.2,3.5,13.3c2.3,4,5.7,7.4,9.7,9.7c4.1,2.3,8.7,3.6,13.3,3.6h19v7.5l15.2,-15.1L506.9,372.5v7.6h-19c-2,0,-4,-.6,-5.7,-1.6c-1.8,-.9,-3.2,-2.4,-4.2,-4.2c-1,-1.7,-1.5,-3.6,-1.5,-5.6V293.1H461.4Z" class="g1_8"/>
<path d="M461.4,293.1v75.6c0,4.7,1.2,9.2,3.5,13.3c2.3,4,5.7,7.4,9.7,9.7c4.1,2.3,8.7,3.6,13.3,3.6h19v7.5l15.2,-15.1L506.9,372.5v7.6h-19c-2,0,-4,-.6,-5.7,-1.6c-1.8,-.9,-3.2,-2.4,-4.2,-4.2c-1,-1.7,-1.5,-3.6,-1.5,-5.6V293.1H461.4Z" class="g2_8"/>
<path fill-rule="evenodd" d="M461.6,463.5v88.4c0,4.7,1.2,9.3,3.6,13.3c2.3,4,5.7,7.4,9.7,9.7c4,2.3,8.6,3.6,13.3,3.6h19v7.6l15.2,-15.2L507.2,555.7v7.6h-19c-2,0,-4,-.5,-5.8,-1.5c-1.7,-1,-3.1,-2.5,-4.1,-4.2c-1,-1.8,-1.5,-3.7,-1.5,-5.7V463.5H461.6Z" class="g1_8"/>
<path d="M461.6,463.5v88.4c0,4.7,1.2,9.3,3.6,13.3c2.3,4,5.7,7.4,9.7,9.7c4,2.3,8.6,3.6,13.3,3.6h19v7.6l15.2,-15.2L507.2,555.7v7.6h-19c-2,0,-4,-.5,-5.8,-1.5c-1.7,-1,-3.1,-2.5,-4.1,-4.2c-1,-1.8,-1.5,-3.7,-1.5,-5.7V463.5H461.6Z" class="g2_8"/>
<path fill-rule="evenodd" d="M478,669.7v66.5c0,4.6,1.2,9.1,3.5,13.1c2.3,4,5.6,7.3,9.6,9.6c4,2.3,8.5,3.5,13.1,3.5H523v7.5l15,-15l-15,-15v7.5H504.2c-2,0,-3.9,-.5,-5.6,-1.5c-1.7,-1,-3.1,-2.4,-4.1,-4.1c-1,-1.7,-1.5,-3.6,-1.5,-5.6V669.7H478Z" class="g1_8"/>
<path d="M478,669.7v66.5c0,4.6,1.2,9.1,3.5,13.1c2.3,4,5.6,7.3,9.6,9.6c4,2.3,8.5,3.5,13.1,3.5H523v7.5l15,-15l-15,-15v7.5H504.2c-2,0,-3.9,-.5,-5.6,-1.5c-1.7,-1,-3.1,-2.4,-4.1,-4.1c-1,-1.7,-1.5,-3.6,-1.5,-5.6V669.7H478Z" class="g2_8"/>
</svg>