<?xml version="1.0" encoding="UTF-8" standalone="no"?>
<!DOCTYPE svg PUBLIC "-//W3C//DTD SVG 1.1//EN"
"http://www.w3.org/Graphics/SVG/1.1/DTD/svg11.dtd">
<svg viewBox="0 0 1466 825" version="1.1" xmlns="http://www.w3.org/2000/svg" xmlns:xlink="http://www.w3.org/1999/xlink">
<defs>
<clipPath id="c0_1"><path d="M0,825V0H1466.6V825Z"/></clipPath>
<style type="text/css"><![CDATA[
.g0_1{
fill: #FFFFFF;
}
.g1_1{
fill: #5B9BD5;
}
.g2_1{
fill: none;
stroke: #43729D;
stroke-width: 1.515;
stroke-linecap: butt;
stroke-linejoin: miter;
stroke-miterlimit: 3;
}
]]></style>
</defs>
<g clip-path="url(#c0_1)">
<path fill-rule="evenodd" d="M0,0H1466.6V825H0V0Z" class="g0_1"/>
<path fill-rule="evenodd" d="M0,0H1466.7V825H0V0Z" class="g0_1"/>
<image preserveAspectRatio="none" x="414" y="311" width="487" height="487" xlink:href="img/1.jpg"/>
</g>
<path fill-rule="evenodd" d="M1107.2,83.4c-.3,-1.2,-.4,-2.4,-.4,-3.6c0,-4.8,2.2,-9.5,6.5,-13.6c4.3,-4.1,10.5,-7.6,17.9,-9.9c7.5,-2.4,15.9,-3.7,24.5,-3.7c8.6,0,17.1,1.3,24.5,3.7c.1,0,.2,0,.3,0c.2,-.2,.4,-.4,.6,-.7c3.4,-3.2,8.3,-5.9,14.2,-7.8c5.9,-1.9,12.5,-2.8,19.3,-2.8c6.8,0,13.5,.9,19.3,2.8c2.9,.9,5.5,2,7.8,3.3c.3,-.3,.7,-.6,1,-1c2.7,-2.6,6.8,-4.8,11.6,-6.4c4.8,-1.5,10.2,-2.3,15.8,-2.3c5.6,0,11,.8,15.8,2.3c3.7,1.2,6.8,2.8,9.4,4.6c2.6,-1.7,5.7,-3.2,9.2,-4.3c5.4,-1.7,11.4,-2.6,17.6,-2.6c6.2,0,12.3,.9,17.6,2.6c5.4,1.7,9.8,4.2,12.9,7.1c2,2,3.5,4.1,4.2,6.3c3.2,.5,6.3,1.2,9.1,2.1c5.9,2,10.8,4.6,14.2,7.9c3.4,3.3,5.2,7,5.2,10.8c0,2.9,-1.1,5.8,-3.1,8.4c1.3,1,2.5,2,3.5,3c4.4,4.2,6.6,8.8,6.6,13.6c0,4.8,-2.2,9.5,-6.6,13.6c-4.2,4.2,-10.4,7.6,-17.9,10c-5.4,1.7,-11.4,2.9,-17.7,3.4c0,4,-2,7.9,-5.5,11.4c-3.7,3.5,-9.1,6.5,-15.4,8.5c-6.4,2,-13.6,3.1,-21,3.1c-7.3,0,-14.6,-1.1,-21,-3.1c-.4,-.1,-.8,-.3,-1.2,-.4c-1.1,2,-2.6,3.9,-4.5,5.7c-4.2,4.1,-10.4,7.6,-17.9,10c-7.4,2.4,-15.9,3.6,-24.5,3.6c-8.6,0,-17,-1.2,-24.5,-3.6c-6.5,-2.1,-12,-5,-16.2,-8.5c-.3,.1,-.5,.2,-.8,.3c-8.6,2.7,-18.2,4.2,-28,4.2c-9.8,0,-19.5,-1.5,-28,-4.2c-8.5,-2.7,-15.6,-6.7,-20.5,-11.4q-.1,0,-.1,-.1c-1.2,.1,-2.5,.2,-3.7,.2c-5.5,0,-11,-.9,-15.8,-2.4c-4.8,-1.5,-8.8,-3.7,-11.5,-6.4c-2.8,-2.6,-4.3,-5.7,-4.3,-8.7c0,-3.1,1.5,-6.1,4.3,-8.8c1.1,-1.1,2.6,-2.2,4.2,-3.2c-4.7,-1.5,-8.6,-3.7,-11.3,-6.4c-2.8,-2.6,-4.3,-5.6,-4.3,-8.7c0,-3.1,1.5,-6.2,4.3,-8.8c2.7,-2.7,6.7,-4.9,11.5,-6.4c3.8,-1.3,8.1,-2,12.5,-2.3l.3,-.4Z" class="g1_1"/>
<path d="M1107.2,83.4c-.3,-1.2,-.4,-2.4,-.4,-3.6c0,-4.8,2.2,-9.5,6.5,-13.6c4.3,-4.1,10.5,-7.6,17.9,-9.9c7.5,-2.4,15.9,-3.7,24.5,-3.7c8.6,0,17.1,1.3,24.5,3.7c.1,0,.2,0,.3,0c.2,-.2,.4,-.4,.6,-.7c3.4,-3.2,8.3,-5.9,14.2,-7.8c5.9,-1.9,12.5,-2.8,19.3,-2.8c6.8,0,13.5,.9,19.3,2.8c2.9,.9,5.5,2,7.8,3.3c.3,-.3,.7,-.6,1,-1c2.7,-2.6,6.8,-4.8,11.6,-6.4c4.8,-1.5,10.2,-2.3,15.8,-2.3c5.6,0,11,.8,15.8,2.3c3.7,1.2,6.8,2.8,9.4,4.6c2.6,-1.7,5.7,-3.2,9.2,-4.3c5.4,-1.7,11.4,-2.6,17.6,-2.6c6.2,0,12.3,.9,17.6,2.6c5.4,1.7,9.8,4.2,12.9,7.1c2,2,3.5,4.1,4.2,6.3c3.2,.5,6.3,1.2,9.1,2.1c5.9,2,10.8,4.6,14.2,7.9c3.4,3.3,5.2,7,5.2,10.8c0,2.9,-1.1,5.8,-3.1,8.4c1.3,1,2.5,2,3.5,3c4.4,4.2,6.6,8.8,6.6,13.6c0,4.8,-2.2,9.5,-6.6,13.6c-4.2,4.2,-10.4,7.6,-17.9,10c-5.4,1.7,-11.4,2.9,-17.7,3.4c0,4,-2,7.9,-5.5,11.4c-3.7,3.5,-9.1,6.5,-15.4,8.5c-6.4,2,-13.6,3.1,-21,3.1c-7.3,0,-14.6,-1.1,-21,-3.1c-.4,-.1,-.8,-.3,-1.2,-.4c-1.1,2,-2.6,3.9,-4.5,5.7c-4.2,4.1,-10.4,7.6,-17.9,10c-7.4,2.4,-15.9,3.6,-24.5,3.6c-8.6,0,-17,-1.2,-24.5,-3.6c-6.5,-2.1,-12,-5,-16.2,-8.5c-.3,.1,-.5,.2,-.8,.3c-8.6,2.7,-18.2,4.2,-28,4.2c-9.8,0,-19.5,-1.5,-28,-4.2c-8.5,-2.7,-15.6,-6.7,-20.5,-11.4q-.1,0,-.1,-.1c-1.2,.1,-2.5,.2,-3.7,.2c-5.5,0,-11,-.9,-15.8,-2.4c-4.8,-1.5,-8.8,-3.7,-11.5,-6.4c-2.8,-2.6,-4.3,-5.7,-4.3,-8.7c0,-3.1,1.5,-6.1,4.3,-8.8c1.1,-1.1,2.6,-2.2,4.2,-3.2c-4.7,-1.5,-8.6,-3.7,-11.3,-6.4c-2.8,-2.6,-4.3,-5.6,-4.3,-8.7c0,-3.1,1.5,-6.2,4.3,-8.8c2.7,-2.7,6.7,-4.9,11.5,-6.4c3.8,-1.3,8.1,-2,12.5,-2.3l.3,-.4Zm5.7,34.9c-.8,.1,-1.6,.1,-2.4,.1c-5.6,0,-11,-.9,-15.8,-2.4q-.1,0,-.2,0m34.6,28c-2.6,.6,-5.2,1,-8,1.2m77.3,11.2c-.6,-.5,-1.2,-1,-1.7,-1.5c-1.2,-1.2,-2.2,-2.4,-3.2,-3.6m94.5,-7.7c-.4,1.9,-1,3.8,-2,5.6m40.4,-40.4c.9,.2,1.7,.5,2.6,.8c6.4,2,11.7,4.9,15.4,8.5c3.7,3.5,5.6,7.5,5.6,11.6c0,0,0,.1,0,.2m32,-43.5c-.6,.7,-1.3,1.5,-2,2.2c-2.3,2.2,-5.1,4.1,-8.5,5.6M1356.8,57c.4,1.2,.6,2.3,.6,3.5c0,.1,0,.2,0,.3m-67.6,-8.1c.5,-.7,1.1,-1.3,1.7,-1.9c1.1,-1,2.3,-2,3.6,-2.9m-55.7,7c.6,-1.4,1.5,-2.8,2.6,-4.1m-61.6,5.5c3.4,1.2,6.6,2.5,9.5,4m-81.1,27.3c-.7,-1.4,-1.3,-2.8,-1.6,-4.2" class="g2_1"/>
<path fill-rule="evenodd" d="M50.1,116.5c-.3,-1.2,-.4,-2.4,-.4,-3.6c0,-4.8,2.3,-9.5,6.6,-13.6c4.2,-4.2,10.4,-7.6,17.9,-10C81.6,87,90.1,85.7,98.7,85.7c8.6,0,17,1.3,24.5,3.6c.1,0,.1,.1,.2,.1c.2,-.2,.5,-.4,.7,-.7c3.4,-3.2,8.3,-5.9,14.1,-7.8C144.1,79,150.8,78,157.6,78c6.8,0,13.5,1,19.3,2.9c2.9,.9,5.5,2,7.8,3.3c.3,-.3,.6,-.7,.9,-1c2.8,-2.6,6.8,-4.8,11.6,-6.4C202,75.3,207.5,74.5,213,74.5c5.6,0,11.1,.8,15.9,2.3c3.6,1.2,6.8,2.8,9.3,4.6c2.6,-1.7,5.7,-3.2,9.3,-4.3c5.3,-1.7,11.4,-2.6,17.6,-2.6c6.2,0,12.2,.9,17.6,2.6c5.3,1.7,9.8,4.2,12.9,7.1c2,2,3.4,4.1,4.1,6.3c3.3,.5,6.4,1.2,9.2,2.1c5.9,1.9,10.8,4.6,14.2,7.9c3.4,3.3,5.2,7,5.2,10.8c0,2.9,-1.1,5.8,-3.2,8.4c1.3,1,2.5,1.9,3.6,3c4.3,4.1,6.6,8.8,6.6,13.6c0,4.8,-2.3,9.5,-6.6,13.6c-4.3,4.1,-10.5,7.6,-18,10c-5.4,1.7,-11.4,2.8,-17.6,3.4c0,4,-2,7.9,-5.6,11.4c-3.7,3.5,-9,6.5,-15.4,8.5c-6.3,2,-13.6,3.1,-20.9,3.1c-7.4,0,-14.6,-1.1,-21,-3.1c-.4,-.1,-.8,-.3,-1.2,-.4c-1.1,2,-2.6,3.9,-4.5,5.7c-4.3,4.1,-10.5,7.6,-17.9,10c-7.5,2.4,-15.9,3.6,-24.5,3.6c-8.6,0,-17.1,-1.2,-24.5,-3.6c-6.5,-2.1,-12,-5,-16.2,-8.5c-.3,.1,-.6,.2,-.9,.3c-8.5,2.7,-18.1,4.1,-27.9,4.1c-9.9,0,-19.5,-1.4,-28.1,-4.1C76,187.6,69,183.6,64.1,178.9q-.1,0,-.1,-.1c-1.2,.1,-2.5,.1,-3.7,.1c-5.6,0,-11,-.8,-15.8,-2.3C39.7,175,35.7,172.8,32.9,170.2c-2.8,-2.6,-4.2,-5.7,-4.2,-8.8c0,-3,1.4,-6,4.2,-8.7c1.2,-1.1,2.7,-2.2,4.3,-3.2C32.5,148,28.6,145.8,25.8,143.1c-2.7,-2.6,-4.2,-5.6,-4.2,-8.8c0,-3,1.5,-6.1,4.2,-8.7c2.8,-2.7,6.8,-4.9,11.6,-6.5c3.8,-1.2,8.1,-2,12.5,-2.2l.2,-.4Z" class="g1_1"/>
<path d="M50.1,116.5c-.3,-1.2,-.4,-2.4,-.4,-3.6c0,-4.8,2.3,-9.5,6.6,-13.6c4.2,-4.2,10.4,-7.6,17.9,-10C81.6,87,90.1,85.7,98.7,85.7c8.6,0,17,1.3,24.5,3.6c.1,0,.1,.1,.2,.1c.2,-.2,.5,-.4,.7,-.7c3.4,-3.2,8.3,-5.9,14.1,-7.8C144.1,79,150.8,78,157.6,78c6.8,0,13.5,1,19.3,2.9c2.9,.9,5.5,2,7.8,3.3c.3,-.3,.6,-.7,.9,-1c2.8,-2.6,6.8,-4.8,11.6,-6.4C202,75.3,207.5,74.5,213,74.5c5.6,0,11.1,.8,15.9,2.3c3.6,1.2,6.8,2.8,9.3,4.6c2.6,-1.7,5.7,-3.2,9.3,-4.3c5.3,-1.7,11.4,-2.6,17.6,-2.6c6.2,0,12.2,.9,17.6,2.6c5.3,1.7,9.8,4.2,12.9,7.1c2,2,3.4,4.1,4.1,6.3c3.3,.5,6.4,1.2,9.2,2.1c5.9,1.9,10.8,4.6,14.2,7.9c3.4,3.3,5.2,7,5.2,10.8c0,2.9,-1.1,5.8,-3.2,8.4c1.3,1,2.5,1.9,3.6,3c4.3,4.1,6.6,8.8,6.6,13.6c0,4.8,-2.3,9.5,-6.6,13.6c-4.3,4.1,-10.5,7.6,-18,10c-5.4,1.7,-11.4,2.8,-17.6,3.4c0,4,-2,7.9,-5.6,11.4c-3.7,3.5,-9,6.5,-15.4,8.5c-6.3,2,-13.6,3.1,-20.9,3.1c-7.4,0,-14.6,-1.1,-21,-3.1c-.4,-.1,-.8,-.3,-1.2,-.4c-1.1,2,-2.6,3.9,-4.5,5.7c-4.3,4.1,-10.5,7.6,-17.9,10c-7.5,2.4,-15.9,3.6,-24.5,3.6c-8.6,0,-17.1,-1.2,-24.5,-3.6c-6.5,-2.1,-12,-5,-16.2,-8.5c-.3,.1,-.6,.2,-.9,.3c-8.5,2.7,-18.1,4.1,-27.9,4.1c-9.9,0,-19.5,-1.4,-28.1,-4.1C76,187.6,69,183.6,64.1,178.9q-.1,0,-.1,-.1c-1.2,.1,-2.5,.1,-3.7,.1c-5.6,0,-11,-.8,-15.8,-2.3C39.7,175,35.7,172.8,32.9,170.2c-2.8,-2.6,-4.2,-5.7,-4.2,-8.8c0,-3,1.4,-6,4.2,-8.7c1.2,-1.1,2.7,-2.2,4.3,-3.2C32.5,148,28.6,145.8,25.8,143.1c-2.7,-2.6,-4.2,-5.6,-4.2,-8.8c0,-3,1.5,-6.1,4.2,-8.7c2.8,-2.7,6.8,-4.9,11.6,-6.5c3.8,-1.2,8.1,-2,12.5,-2.2l.2,-.4Zm5.8,34.9c-.9,0,-1.7,0,-2.5,0c-5.5,0,-11,-.8,-15.7,-2.3c-.1,0,-.2,0,-.2,0m34.6,28c-2.6,.6,-5.3,1,-8,1.2m77.3,11.2c-.7,-.5,-1.2,-1,-1.7,-1.5c-1.2,-1.2,-2.3,-2.4,-3.2,-3.6m94.4,-7.7c-.3,1.9,-.9,3.8,-1.9,5.6m40.4,-40.4c.8,.2,1.7,.5,2.6,.8c6.3,2,11.7,4.9,15.3,8.4c3.7,3.6,5.6,7.6,5.6,11.6c0,.1,0,.2,0,.3M325,119.4c-.6,.8,-1.3,1.6,-2.1,2.3c-2.2,2.2,-5,4.1,-8.4,5.6M299.8,90.1c.4,1.1,.5,2.3,.5,3.5c0,.1,0,.2,0,.2M232.7,85.7c.6,-.6,1.1,-1.3,1.8,-1.9c1,-1,2.3,-1.9,3.6,-2.8m-55.7,7c.6,-1.4,1.4,-2.8,2.6,-4.1m-61.6,5.5c3.4,1.2,6.6,2.5,9.4,4m-81,27.3c-.7,-1.4,-1.3,-2.8,-1.7,-4.2" class="g2_1"/>
<path fill-rule="evenodd" d="M1061.6,380.5c-.3,-1.3,-.4,-2.5,-.4,-3.7c0,-4.7,2.2,-9.5,6.5,-13.6c4.3,-4.1,10.5,-7.5,18,-9.9c7.4,-2.4,15.9,-3.6,24.4,-3.6c8.7,0,17.1,1.2,24.5,3.6c.1,0,.2,0,.3,.1c.2,-.2,.4,-.4,.7,-.7c3.4,-3.3,8.3,-5.9,14.1,-7.8c5.9,-1.9,12.6,-2.9,19.4,-2.9c6.8,0,13.4,1,19.3,2.9c2.8,.9,5.4,2,7.8,3.2c.3,-.3,.6,-.6,.9,-.9c2.8,-2.6,6.8,-4.9,11.6,-6.4c4.8,-1.6,10.3,-2.4,15.8,-2.4c5.6,0,11.1,.8,15.9,2.4c3.6,1.2,6.8,2.7,9.3,4.5c2.6,-1.7,5.7,-3.1,9.2,-4.2c5.4,-1.7,11.5,-2.7,17.7,-2.7c6.2,0,12.2,1,17.6,2.7c5.3,1.7,9.8,4.1,12.9,7.1c2,1.9,3.4,4.1,4.1,6.3c3.3,.5,6.3,1.2,9.2,2.1c5.9,1.9,10.8,4.6,14.2,7.9c3.4,3.2,5.1,6.9,5.1,10.7c0,2.9,-1,5.8,-3.1,8.5c1.3,.9,2.5,1.9,3.6,2.9c4.3,4.2,6.6,8.9,6.6,13.6c0,4.9,-2.3,9.5,-6.6,13.7c-4.3,4.1,-10.5,7.6,-18,9.9c-5.4,1.8,-11.4,2.9,-17.6,3.4c-.1,4,-2,7.9,-5.6,11.5c-3.7,3.5,-9,6.4,-15.4,8.4c-6.3,2.1,-13.6,3.2,-20.9,3.2c-7.4,0,-14.6,-1.1,-21,-3.2c-.4,-.1,-.9,-.2,-1.3,-.3c-1,1.9,-2.6,3.9,-4.4,5.7c-4.3,4.1,-10.5,7.5,-17.9,9.9c-7.5,2.4,-15.9,3.7,-24.5,3.7c-8.6,0,-17.1,-1.3,-24.5,-3.7c-6.5,-2.1,-12.1,-4.9,-16.2,-8.4c-.3,.1,-.6,.2,-.9,.2c-8.5,2.8,-18.1,4.2,-28,4.2c-9.8,0,-19.5,-1.4,-28,-4.2c-8.5,-2.7,-15.5,-6.6,-20.5,-11.3q0,-.1,-.1,-.1c-1.2,.1,-2.4,.1,-3.6,.1c-5.6,0,-11,-.8,-15.8,-2.3c-4.9,-1.6,-8.8,-3.8,-11.6,-6.4c-2.8,-2.7,-4.3,-5.7,-4.3,-8.8c0,-3.1,1.5,-6.1,4.3,-8.7c1.2,-1.2,2.6,-2.3,4.3,-3.2c-4.7,-1.6,-8.6,-3.8,-11.4,-6.4c-2.7,-2.7,-4.2,-5.7,-4.2,-8.8c0,-3.1,1.5,-6.1,4.2,-8.8c2.8,-2.6,6.7,-4.8,11.6,-6.4c3.8,-1.2,8.1,-2,12.5,-2.3l.2,-.3Z" class="g1_1"/>
<path d="M1061.6,380.5c-.3,-1.3,-.4,-2.5,-.4,-3.7c0,-4.7,2.2,-9.5,6.5,-13.6c4.3,-4.1,10.5,-7.5,18,-9.9c7.4,-2.4,15.9,-3.6,24.4,-3.6c8.7,0,17.1,1.2,24.5,3.6c.1,0,.2,0,.3,.1c.2,-.2,.4,-.4,.7,-.7c3.4,-3.3,8.3,-5.9,14.1,-7.8c5.9,-1.9,12.6,-2.9,19.4,-2.9c6.8,0,13.4,1,19.3,2.9c2.8,.9,5.4,2,7.8,3.2c.3,-.3,.6,-.6,.9,-.9c2.8,-2.6,6.8,-4.9,11.6,-6.4c4.8,-1.6,10.3,-2.4,15.8,-2.4c5.6,0,11.1,.8,15.9,2.4c3.6,1.2,6.8,2.7,9.3,4.5c2.6,-1.7,5.7,-3.1,9.2,-4.2c5.4,-1.7,11.5,-2.7,17.7,-2.7c6.2,0,12.2,1,17.6,2.7c5.3,1.7,9.8,4.1,12.9,7.1c2,1.9,3.4,4.1,4.1,6.3c3.3,.5,6.3,1.2,9.2,2.1c5.9,1.9,10.8,4.6,14.2,7.9c3.4,3.2,5.1,6.9,5.1,10.7c0,2.9,-1,5.8,-3.1,8.5c1.3,.9,2.5,1.9,3.6,2.9c4.3,4.2,6.6,8.9,6.6,13.6c0,4.9,-2.3,9.5,-6.6,13.7c-4.3,4.1,-10.5,7.6,-18,9.9c-5.4,1.8,-11.4,2.9,-17.6,3.4c-.1,4,-2,7.9,-5.6,11.5c-3.7,3.5,-9,6.4,-15.4,8.4c-6.3,2.1,-13.6,3.2,-20.9,3.2c-7.4,0,-14.6,-1.1,-21,-3.2c-.4,-.1,-.9,-.2,-1.3,-.3c-1,1.9,-2.6,3.9,-4.4,5.7c-4.3,4.1,-10.5,7.5,-17.9,9.9c-7.5,2.4,-15.9,3.7,-24.5,3.7c-8.6,0,-17.1,-1.3,-24.5,-3.7c-6.5,-2.1,-12.1,-4.9,-16.2,-8.4c-.3,.1,-.6,.2,-.9,.2c-8.5,2.8,-18.1,4.2,-28,4.2c-9.8,0,-19.5,-1.4,-28,-4.2c-8.5,-2.7,-15.5,-6.6,-20.5,-11.3q0,-.1,-.1,-.1c-1.2,.1,-2.4,.1,-3.6,.1c-5.6,0,-11,-.8,-15.8,-2.3c-4.9,-1.6,-8.8,-3.8,-11.6,-6.4c-2.8,-2.7,-4.3,-5.7,-4.3,-8.8c0,-3.1,1.5,-6.1,4.3,-8.7c1.2,-1.2,2.6,-2.3,4.3,-3.2c-4.7,-1.6,-8.6,-3.8,-11.4,-6.4c-2.7,-2.7,-4.2,-5.7,-4.2,-8.8c0,-3.1,1.5,-6.1,4.2,-8.8c2.8,-2.6,6.7,-4.8,11.6,-6.4c3.8,-1.2,8.1,-2,12.5,-2.3l.2,-.3Zm5.7,34.9c-.8,0,-1.6,0,-2.4,0c-5.5,0,-11,-.8,-15.7,-2.3c-.1,-.1,-.2,-.1,-.2,-.1m34.6,28.1c-2.6,.5,-5.3,.9,-8.1,1.1m77.3,11.3c-.6,-.5,-1.1,-1,-1.7,-1.5c-1.2,-1.2,-2.2,-2.4,-3.1,-3.7m94.4,-7.7c-.3,2,-1,3.9,-2,5.7m40.5,-40.5c.8,.3,1.7,.5,2.5,.8c6.4,2,11.7,5,15.4,8.5c3.7,3.5,5.6,7.5,5.6,11.6q0,.1,0,.2m32.1,-43.5c-.6,.8,-1.3,1.6,-2.1,2.3c-2.2,2.1,-5,4,-8.4,5.6m-14.7,-37.2c.3,1.1,.5,2.3,.5,3.4c0,.1,0,.2,0,.3m-67.6,-8.1c.5,-.6,1.1,-1.3,1.7,-1.9c1.1,-1,2.3,-1.9,3.7,-2.9m-55.7,7.1c.6,-1.5,1.4,-2.9,2.6,-4.2m-61.6,5.6c3.4,1.1,6.5,2.5,9.4,4m-81,27.3c-.8,-1.4,-1.3,-2.8,-1.7,-4.2" class="g2_1"/>
<path fill-rule="evenodd" d="M90.6,397.3c-.3,-1.3,-.4,-2.5,-.4,-3.7c0,-4.7,2.3,-9.5,6.5,-13.6c4.3,-4.1,10.5,-7.5,18,-9.9c7.4,-2.4,15.9,-3.6,24.4,-3.6c8.7,0,17.1,1.2,24.6,3.6c0,0,.1,0,.2,.1c.2,-.2,.5,-.4,.7,-.7c3.4,-3.3,8.3,-5.9,14.1,-7.8c5.9,-1.9,12.6,-2.9,19.4,-2.9c6.8,0,13.5,1,19.3,2.9c2.9,.9,5.5,2,7.8,3.2c.3,-.3,.6,-.6,.9,-.9c2.8,-2.6,6.8,-4.9,11.6,-6.4c4.8,-1.6,10.3,-2.4,15.8,-2.4c5.6,0,11.1,.8,15.9,2.4c3.6,1.2,6.8,2.7,9.3,4.5c2.6,-1.7,5.7,-3.1,9.2,-4.2c5.4,-1.7,11.5,-2.7,17.7,-2.7c6.2,0,12.2,1,17.6,2.7c5.3,1.7,9.8,4.1,12.9,7.1c2,1.9,3.4,4.1,4.1,6.3c3.3,.5,6.3,1.2,9.2,2.1c5.9,1.9,10.8,4.6,14.2,7.9c3.4,3.2,5.2,6.9,5.2,10.7c0,2.9,-1.1,5.8,-3.2,8.5c1.3,.9,2.5,1.9,3.6,2.9c4.3,4.2,6.6,8.9,6.6,13.6c0,4.9,-2.3,9.5,-6.6,13.7c-4.3,4.1,-10.5,7.6,-18,9.9c-5.4,1.8,-11.4,2.9,-17.6,3.4c0,4,-2,8,-5.6,11.5c-3.7,3.5,-9,6.4,-15.4,8.4c-6.3,2.1,-13.6,3.2,-20.9,3.2c-7.4,0,-14.6,-1.1,-21,-3.2c-.4,-.1,-.9,-.2,-1.2,-.3c-1.1,2,-2.6,3.9,-4.5,5.7c-4.3,4.1,-10.5,7.5,-17.9,9.9c-7.5,2.4,-15.9,3.7,-24.5,3.7c-8.6,0,-17.1,-1.3,-24.5,-3.7c-6.5,-2.1,-12.1,-4.9,-16.2,-8.4c-.3,.1,-.6,.2,-.9,.3c-8.5,2.7,-18.1,4.1,-28,4.1c-9.8,0,-19.4,-1.4,-28,-4.1c-8.5,-2.8,-15.5,-6.7,-20.5,-11.4q0,-.1,0,-.1c-1.3,.1,-2.5,.1,-3.7,.1c-5.6,0,-11,-.8,-15.8,-2.3C80.2,455.8,76.2,453.6,73.4,451c-2.8,-2.7,-4.2,-5.7,-4.2,-8.8c0,-3.1,1.4,-6.1,4.2,-8.7c1.2,-1.2,2.6,-2.2,4.3,-3.2C73,428.7,69.1,426.5,66.3,423.9c-2.7,-2.7,-4.2,-5.7,-4.2,-8.8c0,-3.1,1.5,-6.1,4.2,-8.7c2.8,-2.7,6.8,-4.9,11.6,-6.5c3.8,-1.2,8.1,-2,12.5,-2.3l.2,-.3Z" class="g1_1"/>
<path d="M90.6,397.3c-.3,-1.3,-.4,-2.5,-.4,-3.7c0,-4.7,2.3,-9.5,6.5,-13.6c4.3,-4.1,10.5,-7.5,18,-9.9c7.4,-2.4,15.9,-3.6,24.4,-3.6c8.7,0,17.1,1.2,24.6,3.6c0,0,.1,0,.2,.1c.2,-.2,.5,-.4,.7,-.7c3.4,-3.3,8.3,-5.9,14.1,-7.8c5.9,-1.9,12.6,-2.9,19.4,-2.9c6.8,0,13.5,1,19.3,2.9c2.9,.9,5.5,2,7.8,3.2c.3,-.3,.6,-.6,.9,-.9c2.8,-2.6,6.8,-4.9,11.6,-6.4c4.8,-1.6,10.3,-2.4,15.8,-2.4c5.6,0,11.1,.8,15.9,2.4c3.6,1.2,6.8,2.7,9.3,4.5c2.6,-1.7,5.7,-3.1,9.2,-4.2c5.4,-1.7,11.5,-2.7,17.7,-2.7c6.2,0,12.2,1,17.6,2.7c5.3,1.7,9.8,4.1,12.9,7.1c2,1.9,3.4,4.1,4.1,6.3c3.3,.5,6.3,1.2,9.2,2.1c5.9,1.9,10.8,4.6,14.2,7.9c3.4,3.2,5.2,6.9,5.2,10.7c0,2.9,-1.1,5.8,-3.2,8.5c1.3,.9,2.5,1.9,3.6,2.9c4.3,4.2,6.6,8.9,6.6,13.6c0,4.9,-2.3,9.5,-6.6,13.7c-4.3,4.1,-10.5,7.6,-18,9.9c-5.4,1.8,-11.4,2.9,-17.6,3.4c0,4,-2,8,-5.6,11.5c-3.7,3.5,-9,6.4,-15.4,8.4c-6.3,2.1,-13.6,3.2,-20.9,3.2c-7.4,0,-14.6,-1.1,-21,-3.2c-.4,-.1,-.9,-.2,-1.2,-.3c-1.1,2,-2.6,3.9,-4.5,5.7c-4.3,4.1,-10.5,7.5,-17.9,9.9c-7.5,2.4,-15.9,3.7,-24.5,3.7c-8.6,0,-17.1,-1.3,-24.5,-3.7c-6.5,-2.1,-12.1,-4.9,-16.2,-8.4c-.3,.1,-.6,.2,-.9,.3c-8.5,2.7,-18.1,4.1,-28,4.1c-9.8,0,-19.4,-1.4,-28,-4.1c-8.5,-2.8,-15.5,-6.7,-20.5,-11.4q0,-.1,0,-.1c-1.3,.1,-2.5,.1,-3.7,.1c-5.6,0,-11,-.8,-15.8,-2.3C80.2,455.8,76.2,453.6,73.4,451c-2.8,-2.7,-4.2,-5.7,-4.2,-8.8c0,-3.1,1.4,-6.1,4.2,-8.7c1.2,-1.2,2.6,-2.2,4.3,-3.2C73,428.7,69.1,426.5,66.3,423.9c-2.7,-2.7,-4.2,-5.7,-4.2,-8.8c0,-3.1,1.5,-6.1,4.2,-8.7c2.8,-2.7,6.8,-4.9,11.6,-6.5c3.8,-1.2,8.1,-2,12.5,-2.3l.2,-.3Zm5.8,34.9c-.9,0,-1.7,0,-2.5,0c-5.5,0,-11,-.8,-15.7,-2.3c-.1,-.1,-.2,-.1,-.2,-.1m34.6,28.1c-2.6,.5,-5.3,.9,-8.1,1.1m77.3,11.3c-.6,-.5,-1.1,-1,-1.6,-1.5c-1.3,-1.2,-2.3,-2.4,-3.2,-3.7m94.4,-7.6c-.3,1.9,-.9,3.8,-1.9,5.6m40.4,-40.5c.8,.3,1.7,.5,2.6,.8c6.3,2,11.7,5,15.3,8.5c3.7,3.6,5.6,7.5,5.6,11.6q0,.1,0,.2m32.1,-43.5c-.6,.8,-1.3,1.6,-2.1,2.3c-2.2,2.1,-5,4,-8.4,5.6M340.3,370.9c.4,1.1,.5,2.3,.5,3.4c0,.1,0,.2,0,.3m-67.6,-8.1c.5,-.6,1.1,-1.3,1.8,-1.9c1,-1,2.3,-1.9,3.6,-2.9m-55.7,7.1c.6,-1.5,1.4,-2.9,2.6,-4.2m-61.6,5.6c3.4,1.1,6.6,2.5,9.4,4m-81,27.3c-.7,-1.4,-1.3,-2.8,-1.7,-4.2" class="g2_1"/>
<path fill-rule="evenodd" d="M1061.6,638.6c-.3,-1.2,-.4,-2.4,-.4,-3.6c0,-4.8,2.2,-9.5,6.5,-13.6c4.3,-4.1,10.5,-7.6,18,-9.9c7.4,-2.4,15.9,-3.7,24.4,-3.7c8.7,0,17.1,1.3,24.5,3.7c.1,0,.2,0,.3,0c.2,-.2,.4,-.4,.7,-.7c3.4,-3.2,8.3,-5.9,14.1,-7.8c5.9,-1.9,12.6,-2.9,19.4,-2.9c6.8,0,13.4,1,19.3,2.9c2.8,.9,5.4,2,7.8,3.3c.3,-.3,.6,-.7,.9,-1c2.8,-2.6,6.8,-4.8,11.6,-6.4c4.8,-1.5,10.3,-2.3,15.8,-2.3c5.6,0,11.1,.8,15.9,2.3c3.6,1.2,6.8,2.8,9.3,4.6c2.6,-1.7,5.7,-3.2,9.2,-4.3c5.4,-1.7,11.5,-2.6,17.7,-2.6c6.2,0,12.2,.9,17.6,2.6c5.3,1.7,9.8,4.2,12.9,7.1c2,2,3.4,4.1,4.1,6.3c3.3,.5,6.3,1.2,9.2,2.1c5.9,1.9,10.8,4.6,14.2,7.9c3.4,3.3,5.1,7,5.1,10.8c0,2.9,-1,5.8,-3.1,8.4c1.3,1,2.5,2,3.6,3c4.3,4.2,6.6,8.8,6.6,13.6c0,4.8,-2.3,9.5,-6.6,13.6c-4.3,4.2,-10.5,7.6,-18,10c-5.4,1.7,-11.4,2.9,-17.6,3.4c-.1,4,-2,7.9,-5.6,11.4c-3.7,3.5,-9,6.5,-15.4,8.5c-6.3,2,-13.6,3.1,-20.9,3.1c-7.4,0,-14.6,-1.1,-21,-3.1c-.4,-.1,-.9,-.3,-1.3,-.4c-1,2,-2.6,3.9,-4.4,5.7c-4.3,4.1,-10.5,7.6,-17.9,10c-7.5,2.4,-15.9,3.6,-24.5,3.6c-8.6,0,-17.1,-1.2,-24.5,-3.6c-6.5,-2.1,-12.1,-5,-16.2,-8.5c-.3,.1,-.6,.2,-.9,.3c-8.5,2.7,-18.1,4.2,-28,4.2c-9.8,0,-19.5,-1.5,-28,-4.2c-8.5,-2.7,-15.5,-6.7,-20.5,-11.4l-.1,-.1c-1.2,.1,-2.4,.2,-3.6,.2c-5.6,0,-11,-.9,-15.8,-2.4c-4.9,-1.5,-8.8,-3.8,-11.6,-6.4c-2.8,-2.6,-4.3,-5.7,-4.3,-8.7c0,-3.1,1.5,-6.1,4.3,-8.8c1.2,-1.1,2.6,-2.2,4.3,-3.2c-4.7,-1.5,-8.6,-3.7,-11.4,-6.4c-2.7,-2.6,-4.2,-5.6,-4.2,-8.8c0,-3,1.5,-6.1,4.2,-8.7c2.8,-2.7,6.7,-4.9,11.6,-6.5c3.8,-1.2,8.1,-1.9,12.5,-2.2l.2,-.4Z" class="g1_1"/>
<path d="M1061.6,638.6c-.3,-1.2,-.4,-2.4,-.4,-3.6c0,-4.8,2.2,-9.5,6.5,-13.6c4.3,-4.1,10.5,-7.6,18,-9.9c7.4,-2.4,15.9,-3.7,24.4,-3.7c8.7,0,17.1,1.3,24.5,3.7c.1,0,.2,0,.3,0c.2,-.2,.4,-.4,.7,-.7c3.4,-3.2,8.3,-5.9,14.1,-7.8c5.9,-1.9,12.6,-2.9,19.4,-2.9c6.8,0,13.4,1,19.3,2.9c2.8,.9,5.4,2,7.8,3.3c.3,-.3,.6,-.7,.9,-1c2.8,-2.6,6.8,-4.8,11.6,-6.4c4.8,-1.5,10.3,-2.3,15.8,-2.3c5.6,0,11.1,.8,15.9,2.3c3.6,1.2,6.8,2.8,9.3,4.6c2.6,-1.7,5.7,-3.2,9.2,-4.3c5.4,-1.7,11.5,-2.6,17.7,-2.6c6.2,0,12.2,.9,17.6,2.6c5.3,1.7,9.8,4.2,12.9,7.1c2,2,3.4,4.1,4.1,6.3c3.3,.5,6.3,1.2,9.2,2.1c5.9,1.9,10.8,4.6,14.2,7.9c3.4,3.3,5.1,7,5.1,10.8c0,2.9,-1,5.8,-3.1,8.4c1.3,1,2.5,2,3.6,3c4.3,4.2,6.6,8.8,6.6,13.6c0,4.8,-2.3,9.5,-6.6,13.6c-4.3,4.2,-10.5,7.6,-18,10c-5.4,1.7,-11.4,2.9,-17.6,3.4c-.1,4,-2,7.9,-5.6,11.4c-3.7,3.5,-9,6.5,-15.4,8.5c-6.3,2,-13.6,3.1,-20.9,3.1c-7.4,0,-14.6,-1.1,-21,-3.1c-.4,-.1,-.9,-.3,-1.3,-.4c-1,2,-2.6,3.9,-4.4,5.7c-4.3,4.1,-10.5,7.6,-17.9,10c-7.5,2.4,-15.9,3.6,-24.5,3.6c-8.6,0,-17.1,-1.2,-24.5,-3.6c-6.5,-2.1,-12.1,-5,-16.2,-8.5c-.3,.1,-.6,.2,-.9,.3c-8.5,2.7,-18.1,4.2,-28,4.2c-9.8,0,-19.5,-1.5,-28,-4.2c-8.5,-2.7,-15.5,-6.7,-20.5,-11.4l-.1,-.1c-1.2,.1,-2.4,.2,-3.6,.2c-5.6,0,-11,-.9,-15.8,-2.4c-4.9,-1.5,-8.8,-3.8,-11.6,-6.4c-2.8,-2.6,-4.3,-5.7,-4.3,-8.7c0,-3.1,1.5,-6.1,4.3,-8.8c1.2,-1.1,2.6,-2.2,4.3,-3.2c-4.7,-1.5,-8.6,-3.7,-11.4,-6.4c-2.7,-2.6,-4.2,-5.6,-4.2,-8.8c0,-3,1.5,-6.1,4.2,-8.7c2.8,-2.7,6.7,-4.9,11.6,-6.5c3.8,-1.2,8.1,-1.9,12.5,-2.2l.2,-.4Zm5.7,34.9c-.8,.1,-1.6,.1,-2.4,.1c-5.5,0,-11,-.9,-15.7,-2.4c-.1,0,-.2,0,-.2,0m34.6,28c-2.6,.6,-5.3,1,-8.1,1.2m77.3,11.2c-.6,-.5,-1.1,-1,-1.7,-1.5c-1.2,-1.2,-2.2,-2.4,-3.1,-3.6m94.4,-7.7c-.3,1.9,-1,3.8,-2,5.6M1280.9,664c.8,.2,1.7,.5,2.5,.8c6.4,2,11.7,4.9,15.4,8.5c3.7,3.5,5.6,7.5,5.6,11.6c0,0,0,.1,0,.2m32.1,-43.5c-.6,.7,-1.3,1.5,-2.1,2.2c-2.2,2.2,-5,4.1,-8.4,5.6m-14.7,-37.2c.3,1.2,.5,2.3,.5,3.5c0,.1,0,.2,0,.3m-67.6,-8.1c.5,-.7,1.1,-1.3,1.7,-1.9c1.1,-1,2.3,-2,3.7,-2.9m-55.7,7c.6,-1.4,1.4,-2.8,2.6,-4.1m-61.6,5.5c3.4,1.2,6.5,2.5,9.4,4m-81,27.3c-.8,-1.4,-1.3,-2.8,-1.7,-4.2" class="g2_1"/>
<path fill-rule="evenodd" d="M76.5,638.6c-.3,-1.2,-.4,-2.4,-.4,-3.6c0,-4.8,2.2,-9.5,6.5,-13.6c4.3,-4.1,10.5,-7.6,18,-9.9c7.4,-2.4,15.9,-3.7,24.4,-3.7c8.6,0,17.1,1.3,24.5,3.7c.1,0,.2,0,.3,0c.2,-.2,.4,-.4,.6,-.7c3.5,-3.2,8.4,-5.9,14.2,-7.8c5.9,-1.9,12.6,-2.9,19.4,-2.9c6.8,0,13.4,1,19.3,2.9c2.8,.9,5.4,2,7.8,3.3c.3,-.3,.6,-.7,.9,-1c2.8,-2.6,6.8,-4.8,11.6,-6.4c4.8,-1.5,10.3,-2.3,15.8,-2.3c5.6,0,11,.8,15.9,2.3c3.6,1.2,6.8,2.8,9.3,4.6c2.6,-1.7,5.7,-3.2,9.2,-4.3c5.4,-1.7,11.5,-2.6,17.7,-2.6c6.1,0,12.2,.9,17.6,2.6c5.3,1.7,9.8,4.2,12.8,7.1c2.1,2,3.5,4.1,4.2,6.3c3.3,.5,6.3,1.2,9.2,2.1c5.9,1.9,10.8,4.6,14.1,7.9c3.5,3.3,5.2,7,5.2,10.8c0,2.9,-1,5.8,-3.1,8.4c1.3,1,2.5,2,3.6,3c4.3,4.2,6.6,8.8,6.6,13.6c0,4.8,-2.3,9.5,-6.6,13.6c-4.3,4.2,-10.5,7.6,-18,10c-5.4,1.7,-11.4,2.9,-17.6,3.4c-.1,4,-2,7.9,-5.6,11.4c-3.7,3.5,-9,6.5,-15.4,8.5c-6.4,2,-13.6,3.1,-20.9,3.1c-7.4,0,-14.6,-1.1,-21,-3.1c-.4,-.1,-.9,-.3,-1.3,-.4c-1,2,-2.6,3.9,-4.4,5.7c-4.3,4.1,-10.5,7.6,-18,10c-7.4,2.4,-15.8,3.6,-24.4,3.6c-8.6,0,-17.1,-1.2,-24.5,-3.6c-6.5,-2.1,-12.1,-5,-16.2,-8.5c-.3,.1,-.6,.2,-.9,.3c-8.5,2.7,-18.1,4.2,-28,4.2c-9.8,0,-19.5,-1.5,-28,-4.2C102.4,709.7,95.4,705.7,90.4,701l-.1,-.1c-1.2,.1,-2.4,.2,-3.6,.2c-5.6,0,-11,-.9,-15.8,-2.4C66,697.2,62.1,694.9,59.3,692.3C56.5,689.7,55,686.6,55,683.6c0,-3.1,1.5,-6.1,4.3,-8.8c1.2,-1.1,2.6,-2.2,4.3,-3.2C58.9,670.1,55,667.9,52.2,665.2C49.5,662.6,48,659.6,48,656.4c0,-3,1.5,-6.1,4.2,-8.7c2.8,-2.7,6.7,-4.9,11.5,-6.5c3.9,-1.2,8.1,-1.9,12.6,-2.2l.2,-.4Z" class="g1_1"/>
<path d="M76.5,638.6c-.3,-1.2,-.4,-2.4,-.4,-3.6c0,-4.8,2.2,-9.5,6.5,-13.6c4.3,-4.1,10.5,-7.6,18,-9.9c7.4,-2.4,15.9,-3.7,24.4,-3.7c8.6,0,17.1,1.3,24.5,3.7c.1,0,.2,0,.3,0c.2,-.2,.4,-.4,.6,-.7c3.5,-3.2,8.4,-5.9,14.2,-7.8c5.9,-1.9,12.6,-2.9,19.4,-2.9c6.8,0,13.4,1,19.3,2.9c2.8,.9,5.4,2,7.8,3.3c.3,-.3,.6,-.7,.9,-1c2.8,-2.6,6.8,-4.8,11.6,-6.4c4.8,-1.5,10.3,-2.3,15.8,-2.3c5.6,0,11,.8,15.9,2.3c3.6,1.2,6.8,2.8,9.3,4.6c2.6,-1.7,5.7,-3.2,9.2,-4.3c5.4,-1.7,11.5,-2.6,17.7,-2.6c6.1,0,12.2,.9,17.6,2.6c5.3,1.7,9.8,4.2,12.8,7.1c2.1,2,3.5,4.1,4.2,6.3c3.3,.5,6.3,1.2,9.2,2.1c5.9,1.9,10.8,4.6,14.1,7.9c3.5,3.3,5.2,7,5.2,10.8c0,2.9,-1,5.8,-3.1,8.4c1.3,1,2.5,2,3.6,3c4.3,4.2,6.6,8.8,6.6,13.6c0,4.8,-2.3,9.5,-6.6,13.6c-4.3,4.2,-10.5,7.6,-18,10c-5.4,1.7,-11.4,2.9,-17.6,3.4c-.1,4,-2,7.9,-5.6,11.4c-3.7,3.5,-9,6.5,-15.4,8.5c-6.4,2,-13.6,3.1,-20.9,3.1c-7.4,0,-14.6,-1.1,-21,-3.1c-.4,-.1,-.9,-.3,-1.3,-.4c-1,2,-2.6,3.9,-4.4,5.7c-4.3,4.1,-10.5,7.6,-18,10c-7.4,2.4,-15.8,3.6,-24.4,3.6c-8.6,0,-17.1,-1.2,-24.5,-3.6c-6.5,-2.1,-12.1,-5,-16.2,-8.5c-.3,.1,-.6,.2,-.9,.3c-8.5,2.7,-18.1,4.2,-28,4.2c-9.8,0,-19.5,-1.5,-28,-4.2C102.4,709.7,95.4,705.7,90.4,701l-.1,-.1c-1.2,.1,-2.4,.2,-3.6,.2c-5.6,0,-11,-.9,-15.8,-2.4C66,697.2,62.1,694.9,59.3,692.3C56.5,689.7,55,686.6,55,683.6c0,-3.1,1.5,-6.1,4.3,-8.8c1.2,-1.1,2.6,-2.2,4.3,-3.2C58.9,670.1,55,667.9,52.2,665.2C49.5,662.6,48,659.6,48,656.4c0,-3,1.5,-6.1,4.2,-8.7c2.8,-2.7,6.7,-4.9,11.5,-6.5c3.9,-1.2,8.1,-1.9,12.6,-2.2l.2,-.4Zm5.7,34.9c-.8,.1,-1.6,.1,-2.4,.1c-5.5,0,-11,-.9,-15.7,-2.4c-.1,0,-.2,0,-.2,0m34.6,28c-2.6,.6,-5.3,1,-8.1,1.2m77.3,11.2c-.6,-.5,-1.1,-1,-1.7,-1.5c-1.2,-1.2,-2.2,-2.4,-3.1,-3.6m94.4,-7.7c-.3,1.9,-1,3.8,-2,5.6M295.7,664c.9,.2,1.8,.5,2.6,.8c6.4,2,11.7,4.9,15.4,8.5c3.7,3.5,5.6,7.5,5.6,11.6c0,0,0,.1,0,.2m32.1,-43.5c-.7,.7,-1.3,1.5,-2.1,2.2c-2.2,2.2,-5.1,4.1,-8.4,5.6M326.1,612.2c.4,1.2,.6,2.3,.6,3.5c0,.1,0,.2,0,.3m-67.6,-8.1c.5,-.7,1.1,-1.3,1.7,-1.9c1.1,-1,2.3,-2,3.7,-2.9m-55.7,7c.5,-1.4,1.4,-2.8,2.6,-4.1m-61.6,5.5c3.4,1.2,6.5,2.5,9.4,4m-81,27.3c-.8,-1.4,-1.3,-2.8,-1.7,-4.2" class="g2_1"/>
</svg>