<?xml version="1.0" encoding="UTF-8" standalone="no"?>
<!DOCTYPE svg PUBLIC "-//W3C//DTD SVG 1.1//EN"
"http://www.w3.org/Graphics/SVG/1.1/DTD/svg11.dtd">
<svg viewBox="0 0 1466 825" version="1.1" xmlns="http://www.w3.org/2000/svg" xmlns:xlink="http://www.w3.org/1999/xlink">
<defs>
<clipPath id="c0_1"><path d="M0,825V0H1466.6V825Z"/></clipPath>
<style type="text/css"><![CDATA[
.g0_1{
fill: #FFFFFF;
}
.g1_1{
fill: none;
stroke: #000000;
stroke-width: 1.515;
stroke-linecap: butt;
stroke-linejoin: miter;
stroke-miterlimit: 3;
}
.g2_1{
fill: none;
stroke: #5B9BD5;
stroke-width: 0.779;
stroke-linecap: butt;
stroke-linejoin: miter;
stroke-miterlimit: 3;
}
]]></style>
</defs>
<g clip-path="url(#c0_1)">
<path fill-rule="evenodd" d="M0,0H1466.6V825H0V0Z" class="g0_1"/>
<path fill-rule="evenodd" d="M0,0H1466.7V825H0V0Z" class="g0_1"/>
<image preserveAspectRatio="none" x="47" y="518" width="398" height="307" xlink:href="img/1.jpg"/>
<image preserveAspectRatio="none" x="19" y="156" width="162" height="212" xlink:href="img/2.jpg"/>
<image preserveAspectRatio="none" x="268" y="156" width="214" height="164" xlink:href="img/3.jpg"/>
<image preserveAspectRatio="none" x="539" y="178" width="254" height="168" xlink:href="img/4.jpg"/>
<image preserveAspectRatio="none" x="849" y="298" width="228" height="190" xlink:href="img/5.jpg"/>
<image preserveAspectRatio="none" x="636" y="518" width="213" height="270" xlink:href="img/6.jpg"/>
</g>
<path fill-rule="evenodd" d="M263.9,94H11.5V9.6H516.3V94H263.9Z" class="g0_1"/>
<path d="M263.9,94H11.5V9.6H516.3V94H263.9Z" class="g1_1"/>
<path d="M58.8,367.7l165.8,170M305.4,320.1L282.4,504M538.6,346.4L351.3,504M815.9,412.1L390.6,536.8m-15.7,26.3l228.4,64" class="g2_1"/>
</svg>