<?xml version="1.0" encoding="UTF-8" standalone="no"?>
<!DOCTYPE svg PUBLIC "-//W3C//DTD SVG 1.1//EN"
"http://www.w3.org/Graphics/SVG/1.1/DTD/svg11.dtd">
<svg viewBox="0 0 1466 825" version="1.1" xmlns="http://www.w3.org/2000/svg" xmlns:xlink="http://www.w3.org/1999/xlink">
<defs>
<clipPath id="c0_16"><path d="M0,825V0H1466.6V825Z"/></clipPath>
<clipPath id="c1_16"><path d="M0,825V0H1466.7V825Z"/></clipPath>
<style type="text/css"><![CDATA[
.g0_16{
fill: #FFFFFF;
}
.g1_16{
fill: #5B9BD5;
}
.g2_16{
fill: none;
stroke: #43729D;
stroke-width: 1.515;
stroke-linecap: butt;
stroke-linejoin: miter;
stroke-miterlimit: 3;
}
.g3_16{
fill: #C55A11;
}
.g4_16{
fill: none;
stroke: #FFFF00;
stroke-width: 1.515;
stroke-linecap: butt;
stroke-linejoin: miter;
stroke-miterlimit: 3;
}
]]></style>
</defs>
<path clip-path="url(#c0_16)" fill-rule="evenodd" d="M0,0H1466.6V825H0V0Z" class="g0_16"/>
<g clip-path="url(#c1_16)">
<image preserveAspectRatio="none" x="0" y="0" width="188" height="188" xlink:href="img/1.jpg"/>
<image preserveAspectRatio="none" x="188" y="0" width="187" height="188" xlink:href="img/2.jpg"/>
<image preserveAspectRatio="none" x="375" y="0" width="188" height="188" xlink:href="img/3.jpg"/>
<image preserveAspectRatio="none" x="563" y="0" width="188" height="188" xlink:href="img/4.jpg"/>
<image preserveAspectRatio="none" x="751" y="0" width="188" height="188" xlink:href="img/5.jpg"/>
<image preserveAspectRatio="none" x="939" y="0" width="187" height="188" xlink:href="img/6.jpg"/>
<image preserveAspectRatio="none" x="1126" y="0" width="188" height="188" xlink:href="img/7.jpg"/>
<image preserveAspectRatio="none" x="1314" y="0" width="188" height="188" xlink:href="img/8.jpg"/>
<image preserveAspectRatio="none" x="0" y="188" width="188" height="187" xlink:href="img/9.jpg"/>
<image preserveAspectRatio="none" x="188" y="188" width="187" height="187" xlink:href="img/10.jpg"/>
<image preserveAspectRatio="none" x="375" y="188" width="188" height="187" xlink:href="img/11.jpg"/>
<image preserveAspectRatio="none" x="563" y="188" width="188" height="187" xlink:href="img/12.jpg"/>
<image preserveAspectRatio="none" x="751" y="188" width="188" height="187" xlink:href="img/13.jpg"/>
<image preserveAspectRatio="none" x="939" y="188" width="187" height="187" xlink:href="img/14.jpg"/>
<image preserveAspectRatio="none" x="1126" y="188" width="188" height="187" xlink:href="img/15.jpg"/>
<image preserveAspectRatio="none" x="1314" y="188" width="188" height="187" xlink:href="img/16.jpg"/>
<image preserveAspectRatio="none" x="0" y="375" width="188" height="188" xlink:href="img/17.jpg"/>
<image preserveAspectRatio="none" x="188" y="375" width="187" height="188" xlink:href="img/18.jpg"/>
<image preserveAspectRatio="none" x="375" y="375" width="188" height="188" xlink:href="img/19.jpg"/>
<image preserveAspectRatio="none" x="563" y="375" width="188" height="188" xlink:href="img/20.jpg"/>
<image preserveAspectRatio="none" x="751" y="375" width="188" height="188" xlink:href="img/21.jpg"/>
<image preserveAspectRatio="none" x="939" y="375" width="187" height="188" xlink:href="img/22.jpg"/>
<image preserveAspectRatio="none" x="1126" y="375" width="188" height="188" xlink:href="img/23.jpg"/>
<image preserveAspectRatio="none" x="1314" y="375" width="188" height="188" xlink:href="img/24.jpg"/>
<image preserveAspectRatio="none" x="0" y="563" width="188" height="188" xlink:href="img/25.jpg"/>
<image preserveAspectRatio="none" x="188" y="563" width="187" height="188" xlink:href="img/26.jpg"/>
<image preserveAspectRatio="none" x="375" y="563" width="188" height="188" xlink:href="img/27.jpg"/>
<image preserveAspectRatio="none" x="563" y="563" width="188" height="188" xlink:href="img/28.jpg"/>
<image preserveAspectRatio="none" x="751" y="563" width="188" height="188" xlink:href="img/29.jpg"/>
<image preserveAspectRatio="none" x="939" y="563" width="187" height="188" xlink:href="img/30.jpg"/>
<image preserveAspectRatio="none" x="1126" y="563" width="188" height="188" xlink:href="img/31.jpg"/>
<image preserveAspectRatio="none" x="1314" y="563" width="188" height="188" xlink:href="img/32.jpg"/>
<image preserveAspectRatio="none" x="0" y="751" width="188" height="188" xlink:href="img/33.jpg"/>
<image preserveAspectRatio="none" x="188" y="751" width="187" height="188" xlink:href="img/34.jpg"/>
<image preserveAspectRatio="none" x="375" y="751" width="188" height="188" xlink:href="img/35.jpg"/>
<image preserveAspectRatio="none" x="563" y="751" width="188" height="188" xlink:href="img/36.jpg"/>
<image preserveAspectRatio="none" x="751" y="751" width="188" height="188" xlink:href="img/37.jpg"/>
<image preserveAspectRatio="none" x="939" y="751" width="187" height="188" xlink:href="img/38.jpg"/>
<image preserveAspectRatio="none" x="1126" y="751" width="188" height="188" xlink:href="img/39.jpg"/>
<image preserveAspectRatio="none" x="1314" y="751" width="188" height="188" xlink:href="img/40.jpg"/>
</g>
<image clip-path="url(#c0_16)" preserveAspectRatio="none" x="516" y="292" width="297" height="390" xlink:href="img/41.png"/>
<path fill-rule="evenodd" d="M724.9,234.5c-.5,-1.3,-.7,-2.6,-.7,-3.9c0,-5.1,3.3,-10.1,9.4,-14.5c6.1,-4.4,14.9,-8.1,25.5,-10.6c10.6,-2.6,22.7,-3.9,34.9,-3.9c12.3,0,24.3,1.3,34.9,3.9c.2,0,.3,0,.4,.1c.3,-.2,.6,-.5,1,-.7c4.8,-3.5,11.8,-6.4,20.2,-8.4c8.3,-2,17.9,-3.1,27.5,-3.1c9.7,0,19.2,1.1,27.6,3.1c4,.9,7.8,2.1,11.1,3.5c.4,-.4,.8,-.7,1.3,-1c4,-2.9,9.6,-5.2,16.5,-6.9c6.9,-1.6,14.7,-2.5,22.6,-2.5c7.9,0,15.7,.9,22.5,2.5c5.2,1.3,9.8,2.9,13.3,4.9c3.8,-1.8,8.3,-3.4,13.3,-4.6c7.6,-1.8,16.2,-2.8,25.1,-2.8c8.8,0,17.4,1,25,2.8c7.7,1.9,14,4.5,18.5,7.6c2.9,2.1,4.8,4.4,5.9,6.7c4.5,.6,8.9,1.3,13.1,2.3c8.3,2,15.3,4.9,20.1,8.4c4.9,3.5,7.4,7.5,7.4,11.5c0,3.1,-1.5,6.2,-4.5,9c1.9,1.1,3.6,2.1,5.2,3.2c6.1,4.5,9.4,9.5,9.4,14.6c0,5.1,-3.3,10.1,-9.4,14.5c-6.2,4.4,-15,8.1,-25.7,10.6c-7.7,1.9,-16.2,3.1,-25.1,3.6c0,4.3,-2.8,8.6,-8,12.3c-5.3,3.7,-12.8,6.9,-21.9,9c-9.1,2.2,-19.4,3.4,-29.9,3.4c-10.5,0,-20.8,-1.2,-29.9,-3.4c-.6,-.1,-1.2,-.3,-1.8,-.4c-1.5,2.1,-3.6,4.2,-6.3,6.1c-6.1,4.4,-14.9,8.1,-25.5,10.7C937.3,324.6,925.2,326,913,326c-12.3,0,-24.3,-1.4,-34.9,-3.9c-9.3,-2.3,-17.2,-5.4,-23.2,-9.1c-.4,.2,-.8,.2,-1.2,.3c-12.1,3,-25.9,4.5,-39.9,4.5c-14,0,-27.8,-1.5,-39.9,-4.5c-12.1,-2.9,-22.2,-7.1,-29.2,-12.1c0,0,-.1,-.1,-.1,-.1c-1.8,.1,-3.5,.1,-5.3,.1c-7.9,0,-15.7,-.9,-22.5,-2.5c-6.9,-1.7,-12.6,-4,-16.5,-6.9c-4,-2.8,-6,-6,-6,-9.3c0,-3.3,2,-6.5,6,-9.3c1.7,-1.2,3.7,-2.4,6.1,-3.4c-6.7,-1.7,-12.3,-4,-16.2,-6.8c-4,-2.9,-6,-6.1,-6,-9.4c0,-3.3,2,-6.5,6,-9.4c4,-2.8,9.6,-5.2,16.4,-6.8c5.5,-1.4,11.6,-2.2,17.9,-2.5l.4,-.4Z" class="g1_16"/>
<path d="M724.9,234.5c-.5,-1.3,-.7,-2.6,-.7,-3.9c0,-5.1,3.3,-10.1,9.4,-14.5c6.1,-4.4,14.9,-8.1,25.5,-10.6c10.6,-2.6,22.7,-3.9,34.9,-3.9c12.3,0,24.3,1.3,34.9,3.9c.2,0,.3,0,.4,.1c.3,-.2,.6,-.5,1,-.7c4.8,-3.5,11.8,-6.4,20.2,-8.4c8.3,-2,17.9,-3.1,27.5,-3.1c9.7,0,19.2,1.1,27.6,3.1c4,.9,7.8,2.1,11.1,3.5c.4,-.4,.8,-.7,1.3,-1c4,-2.9,9.6,-5.2,16.5,-6.9c6.9,-1.6,14.7,-2.5,22.6,-2.5c7.9,0,15.7,.9,22.5,2.5c5.2,1.3,9.8,2.9,13.3,4.9c3.8,-1.8,8.3,-3.4,13.3,-4.6c7.6,-1.8,16.2,-2.8,25.1,-2.8c8.8,0,17.4,1,25,2.8c7.7,1.9,14,4.5,18.5,7.6c2.9,2.1,4.8,4.4,5.9,6.7c4.5,.6,8.9,1.3,13.1,2.3c8.3,2,15.3,4.9,20.1,8.4c4.9,3.5,7.4,7.5,7.4,11.5c0,3.1,-1.5,6.2,-4.5,9c1.9,1.1,3.6,2.1,5.2,3.2c6.1,4.5,9.4,9.5,9.4,14.6c0,5.1,-3.3,10.1,-9.4,14.5c-6.2,4.4,-15,8.1,-25.7,10.6c-7.7,1.9,-16.2,3.1,-25.1,3.6c0,4.3,-2.8,8.6,-8,12.3c-5.3,3.7,-12.8,6.9,-21.9,9c-9.1,2.2,-19.4,3.4,-29.9,3.4c-10.5,0,-20.8,-1.2,-29.9,-3.4c-.6,-.1,-1.2,-.3,-1.8,-.4c-1.5,2.1,-3.6,4.2,-6.3,6.1c-6.1,4.4,-14.9,8.1,-25.5,10.7C937.3,324.6,925.2,326,913,326c-12.3,0,-24.3,-1.4,-34.9,-3.9c-9.3,-2.3,-17.2,-5.4,-23.2,-9.1c-.4,.2,-.8,.2,-1.2,.3c-12.1,3,-25.9,4.5,-39.9,4.5c-14,0,-27.8,-1.5,-39.9,-4.5c-12.1,-2.9,-22.2,-7.1,-29.2,-12.1c0,0,-.1,-.1,-.1,-.1c-1.8,.1,-3.5,.1,-5.3,.1c-7.9,0,-15.7,-.9,-22.5,-2.5c-6.9,-1.7,-12.6,-4,-16.5,-6.9c-4,-2.8,-6,-6,-6,-9.3c0,-3.3,2,-6.5,6,-9.3c1.7,-1.2,3.7,-2.4,6.1,-3.4c-6.7,-1.7,-12.3,-4,-16.2,-6.8c-4,-2.9,-6,-6.1,-6,-9.4c0,-3.3,2,-6.5,6,-9.4c4,-2.8,9.6,-5.2,16.4,-6.8c5.5,-1.4,11.6,-2.2,17.9,-2.5l.4,-.4Zm8.2,37.3c-1.2,0,-2.3,0,-3.5,0c-7.9,0,-15.6,-.9,-22.4,-2.5c-.1,0,-.2,-.1,-.3,-.1m49.3,30.1c-3.7,.6,-7.6,1,-11.5,1.2m110.2,12c-.8,-.5,-1.6,-1.1,-2.4,-1.6c-1.7,-1.3,-3.2,-2.6,-4.5,-3.9m134.6,-8.2c-.4,2.1,-1.3,4.1,-2.8,6m57.6,-43.2c1.2,.3,2.5,.5,3.7,.8c9.1,2.2,16.6,5.4,21.9,9.1c5.2,3.8,8,8.1,8,12.4c0,.1,0,.2,0,.2m45.7,-46.5c-.9,.8,-1.8,1.7,-3,2.5c-3.1,2.2,-7.2,4.3,-12,6m-20.9,-39.8c.5,1.2,.8,2.5,.8,3.7c0,.1,0,.2,0,.3m-96.4,-8.7c.7,-.7,1.6,-1.3,2.5,-2c1.5,-1.1,3.2,-2.1,5.2,-3m-79.4,7.5c.8,-1.6,2,-3,3.7,-4.4m-87.9,5.9c4.9,1.1,9.4,2.6,13.4,4.2M727.3,239c-1.1,-1.5,-1.9,-2.9,-2.4,-4.4" class="g2_16"/>
<path fill-rule="evenodd" d="M847.4,452.6c-.5,-1.3,-.7,-2.6,-.7,-3.9c0,-5.1,3.6,-10.1,10.6,-14.5c6.9,-4.4,16.9,-8.1,29,-10.6c12.1,-2.6,25.7,-3.9,39.6,-3.9c14,0,27.7,1.3,39.7,3.9c.1,0,.3,0,.5,.1c.3,-.2,.6,-.5,1,-.7c5.5,-3.5,13.4,-6.4,22.9,-8.4c9.6,-2,20.4,-3.1,31.4,-3.1c11,0,21.7,1.1,31.3,3.1c4.6,.9,8.8,2.1,12.6,3.5c.4,-.4,1,-.7,1.5,-1c4.5,-2.9,10.9,-5.2,18.7,-6.9c7.8,-1.6,16.7,-2.5,25.7,-2.5c9,0,17.8,.9,25.6,2.5c5.9,1.3,11,2.9,15.1,4.9c4.3,-1.8,9.3,-3.4,15,-4.6c8.7,-1.8,18.5,-2.8,28.5,-2.8c10.1,0,19.9,1,28.5,2.8c8.7,1.9,15.9,4.5,20.9,7.6c3.3,2.1,5.6,4.4,6.8,6.7c5.2,.6,10.2,1.3,14.8,2.3c9.6,2,17.4,4.9,22.9,8.4c5.5,3.5,8.4,7.5,8.4,11.5c0,3.1,-1.7,6.2,-5,9c2.1,1.1,4,2.1,5.8,3.2c6.9,4.4,10.6,9.5,10.6,14.6c0,5,-3.7,10.1,-10.6,14.5c-7,4.4,-17,8.1,-29.2,10.6c-8.8,1.9,-18.4,3.1,-28.5,3.6c-.1,4.3,-3.2,8.6,-9.1,12.2c-5.9,3.8,-14.5,7,-24.8,9.1c-10.4,2.2,-22.1,3.4,-34,3.4c-11.9,0,-23.7,-1.2,-34,-3.4c-.7,-.1,-1.3,-.3,-2,-.4c-1.7,2.1,-4.2,4.2,-7.2,6.1c-7,4.4,-17,8.1,-29,10.7c-12.1,2.5,-25.7,3.9,-39.7,3.9c-13.9,0,-27.6,-1.4,-39.6,-3.9c-10.5,-2.3,-19.5,-5.4,-26.3,-9.1c-.4,.1,-.9,.2,-1.4,.3c-13.7,3,-29.4,4.5,-45.3,4.5c-15.9,0,-31.5,-1.5,-45.3,-4.5c-13.8,-2.9,-25.2,-7.1,-33.2,-12.1c0,0,-.1,-.1,-.1,-.1c-2,.1,-4,.1,-6,.1c-9,0,-17.8,-.9,-25.6,-2.5c-7.8,-1.7,-14.2,-4,-18.7,-6.9c-4.5,-2.8,-6.9,-6,-6.9,-9.3c0,-3.3,2.4,-6.5,6.9,-9.3c1.9,-1.2,4.2,-2.4,6.9,-3.4c-7.6,-1.7,-14,-4,-18.4,-6.8c-4.5,-2.9,-6.8,-6.1,-6.8,-9.4c0,-3.3,2.3,-6.5,6.8,-9.4c4.5,-2.9,10.9,-5.2,18.7,-6.8c6.2,-1.4,13.1,-2.2,20.3,-2.5l.4,-.4Z" class="g3_16"/>
<path d="M847.4,452.6c-.5,-1.3,-.7,-2.6,-.7,-3.9c0,-5.1,3.6,-10.1,10.6,-14.5c6.9,-4.4,16.9,-8.1,29,-10.6c12.1,-2.6,25.7,-3.9,39.6,-3.9c14,0,27.7,1.3,39.7,3.9c.1,0,.3,0,.5,.1c.3,-.2,.6,-.5,1,-.7c5.5,-3.5,13.4,-6.4,22.9,-8.4c9.6,-2,20.4,-3.1,31.4,-3.1c11,0,21.7,1.1,31.3,3.1c4.6,.9,8.8,2.1,12.6,3.5c.4,-.4,1,-.7,1.5,-1c4.5,-2.9,10.9,-5.2,18.7,-6.9c7.8,-1.6,16.7,-2.5,25.7,-2.5c9,0,17.8,.9,25.6,2.5c5.9,1.3,11,2.9,15.1,4.9c4.3,-1.8,9.3,-3.4,15,-4.6c8.7,-1.8,18.5,-2.8,28.5,-2.8c10.1,0,19.9,1,28.5,2.8c8.7,1.9,15.9,4.5,20.9,7.6c3.3,2.1,5.6,4.4,6.8,6.7c5.2,.6,10.2,1.3,14.8,2.3c9.6,2,17.4,4.9,22.9,8.4c5.5,3.5,8.4,7.5,8.4,11.5c0,3.1,-1.7,6.2,-5,9c2.1,1.1,4,2.1,5.8,3.2c6.9,4.4,10.6,9.5,10.6,14.6c0,5,-3.7,10.1,-10.6,14.5c-7,4.4,-17,8.1,-29.2,10.6c-8.8,1.9,-18.4,3.1,-28.5,3.6c-.1,4.3,-3.2,8.6,-9.1,12.2c-5.9,3.8,-14.5,7,-24.8,9.1c-10.4,2.2,-22.1,3.4,-34,3.4c-11.9,0,-23.7,-1.2,-34,-3.4c-.7,-.1,-1.3,-.3,-2,-.4c-1.7,2.1,-4.2,4.2,-7.2,6.1c-7,4.4,-17,8.1,-29,10.7c-12.1,2.5,-25.7,3.9,-39.7,3.9c-13.9,0,-27.6,-1.4,-39.6,-3.9c-10.5,-2.3,-19.5,-5.4,-26.3,-9.1c-.4,.1,-.9,.2,-1.4,.3c-13.7,3,-29.4,4.5,-45.3,4.5c-15.9,0,-31.5,-1.5,-45.3,-4.5c-13.8,-2.9,-25.2,-7.1,-33.2,-12.1c0,0,-.1,-.1,-.1,-.1c-2,.1,-4,.1,-6,.1c-9,0,-17.8,-.9,-25.6,-2.5c-7.8,-1.7,-14.2,-4,-18.7,-6.9c-4.5,-2.8,-6.9,-6,-6.9,-9.3c0,-3.3,2.4,-6.5,6.9,-9.3c1.9,-1.2,4.2,-2.4,6.9,-3.4c-7.6,-1.7,-14,-4,-18.4,-6.8c-4.5,-2.9,-6.8,-6.1,-6.8,-9.4c0,-3.3,2.3,-6.5,6.8,-9.4c4.5,-2.9,10.9,-5.2,18.7,-6.8c6.2,-1.4,13.1,-2.2,20.3,-2.5l.4,-.4Zm9.3,37.2c-1.3,.1,-2.6,.1,-3.9,.1c-9,0,-17.8,-.9,-25.6,-2.5c-.1,0,-.2,-.1,-.3,-.1m56,30.1c-4.1,.6,-8.5,1,-13,1.2m125.2,12c-.9,-.5,-1.9,-1.1,-2.7,-1.6c-2,-1.3,-3.7,-2.6,-5.1,-3.9m152.8,-8.2c-.5,2,-1.5,4.1,-3.1,6m65.4,-43.2c1.4,.3,2.8,.5,4.2,.8c10.3,2.2,18.9,5.4,24.9,9.1c5.9,3.8,9.1,8.1,9.1,12.4q0,.1,0,.2m51.8,-46.5c-1,.8,-2.1,1.7,-3.3,2.4c-3.6,2.3,-8.2,4.4,-13.7,6.1m-23.8,-39.8c.6,1.2,.9,2.5,.9,3.7c0,.1,0,.2,0,.3M1143,419.7c.9,-.7,1.8,-1.4,2.9,-2c1.7,-1.1,3.6,-2.1,5.9,-3m-90.2,7.5c.9,-1.6,2.3,-3,4.2,-4.4M966,423.7c5.6,1.1,10.7,2.6,15.3,4.2M850.1,457.1c-1.2,-1.5,-2.1,-2.9,-2.7,-4.5" class="g4_16"/>
<path fill-rule="evenodd" d="M891.8,653.9c-.4,-1,-.6,-2,-.6,-3c0,-3.9,3.2,-7.7,9.3,-11.1c6.2,-3.4,15,-6.2,25.6,-8.1c10.6,-2,22.6,-3,34.9,-3c12.2,0,24.3,1,34.9,3c.1,0,.2,0,.4,0c.3,-.2,.6,-.3,.9,-.5c4.9,-2.7,11.8,-4.9,20.2,-6.5c8.4,-1.5,17.9,-2.3,27.6,-2.3c9.7,0,19.1,.8,27.5,2.3c4.1,.8,7.8,1.7,11.1,2.8c.5,-.3,.9,-.5,1.3,-.8c4,-2.2,9.7,-4,16.6,-5.3c6.8,-1.2,14.6,-1.9,22.5,-1.9c8,0,15.7,.7,22.6,1.9c5.2,1,9.7,2.3,13.3,3.7c3.7,-1.3,8.2,-2.5,13.2,-3.4c7.6,-1.5,16.3,-2.2,25.1,-2.2c8.8,0,17.5,.7,25.1,2.2c7.7,1.4,14,3.4,18.4,5.8c2.9,1.6,4.9,3.3,5.9,5.1c4.6,.4,9,1,13.1,1.8c8.4,1.5,15.3,3.7,20.2,6.4c4.8,2.7,7.4,5.7,7.4,8.8c0,2.4,-1.6,4.7,-4.5,6.9c1.9,.8,3.6,1.6,5.1,2.5c6.2,3.3,9.4,7.2,9.4,11.1c0,3.9,-3.2,7.7,-9.4,11.2c-6.1,3.3,-15,6.2,-25.6,8.1c-7.7,1.4,-16.3,2.3,-25.1,2.8c-.1,3.3,-2.9,6.5,-8,9.3c-5.3,2.9,-12.8,5.3,-21.9,7c-9.1,1.6,-19.4,2.5,-29.9,2.5c-10.5,0,-20.8,-.9,-29.9,-2.5c-.6,-.1,-1.2,-.3,-1.8,-.3c-1.5,1.6,-3.7,3.2,-6.3,4.6c-6.2,3.4,-15,6.2,-25.6,8.2c-10.6,1.9,-22.6,3,-34.9,3c-12.3,0,-24.3,-1.1,-34.9,-3c-9.3,-1.8,-17.2,-4.1,-23.1,-7c-.4,.1,-.8,.2,-1.2,.3c-12.2,2.2,-25.9,3.4,-39.9,3.4c-14.1,0,-27.8,-1.2,-40,-3.4c-12.1,-2.2,-22.2,-5.4,-29.1,-9.3c-.1,0,-.1,-.1,-.2,-.1c-1.7,.1,-3.5,.1,-5.3,.1c-7.8,0,-15.6,-.7,-22.5,-1.9c-6.8,-1.3,-12.5,-3.1,-16.5,-5.2c-3.9,-2.3,-6,-4.7,-6,-7.2c0,-2.5,2.1,-5,6,-7.2c1.8,-.9,3.8,-1.8,6.2,-2.6c-6.8,-1.2,-12.4,-3.1,-16.3,-5.2c-3.9,-2.2,-5.9,-4.7,-5.9,-7.2c0,-2.5,2,-5,5.9,-7.2c4,-2.2,9.6,-4,16.5,-5.2c5.5,-1,11.6,-1.7,17.8,-1.9l.4,-.3Z" class="g1_16"/>
<path d="M891.8,653.9c-.4,-1,-.6,-2,-.6,-3c0,-3.9,3.2,-7.7,9.3,-11.1c6.2,-3.4,15,-6.2,25.6,-8.1c10.6,-2,22.6,-3,34.9,-3c12.2,0,24.3,1,34.9,3c.1,0,.2,0,.4,0c.3,-.2,.6,-.3,.9,-.5c4.9,-2.7,11.8,-4.9,20.2,-6.5c8.4,-1.5,17.9,-2.3,27.6,-2.3c9.7,0,19.1,.8,27.5,2.3c4.1,.8,7.8,1.7,11.1,2.8c.5,-.3,.9,-.5,1.3,-.8c4,-2.2,9.7,-4,16.6,-5.3c6.8,-1.2,14.6,-1.9,22.5,-1.9c8,0,15.7,.7,22.6,1.9c5.2,1,9.7,2.3,13.3,3.7c3.7,-1.3,8.2,-2.5,13.2,-3.4c7.6,-1.5,16.3,-2.2,25.1,-2.2c8.8,0,17.5,.7,25.1,2.2c7.7,1.4,14,3.4,18.4,5.8c2.9,1.6,4.9,3.3,5.9,5.1c4.6,.4,9,1,13.1,1.8c8.4,1.5,15.3,3.7,20.2,6.4c4.8,2.7,7.4,5.7,7.4,8.8c0,2.4,-1.6,4.7,-4.5,6.9c1.9,.8,3.6,1.6,5.1,2.5c6.2,3.3,9.4,7.2,9.4,11.1c0,3.9,-3.2,7.7,-9.4,11.2c-6.1,3.3,-15,6.2,-25.6,8.1c-7.7,1.4,-16.3,2.3,-25.1,2.8c-.1,3.3,-2.9,6.5,-8,9.3c-5.3,2.9,-12.8,5.3,-21.9,7c-9.1,1.6,-19.4,2.5,-29.9,2.5c-10.5,0,-20.8,-.9,-29.9,-2.5c-.6,-.1,-1.2,-.3,-1.8,-.3c-1.5,1.6,-3.7,3.2,-6.3,4.6c-6.2,3.4,-15,6.2,-25.6,8.2c-10.6,1.9,-22.6,3,-34.9,3c-12.3,0,-24.3,-1.1,-34.9,-3c-9.3,-1.8,-17.2,-4.1,-23.1,-7c-.4,.1,-.8,.2,-1.2,.3c-12.2,2.2,-25.9,3.4,-39.9,3.4c-14.1,0,-27.8,-1.2,-40,-3.4c-12.1,-2.2,-22.2,-5.4,-29.1,-9.3c-.1,0,-.1,-.1,-.2,-.1c-1.7,.1,-3.5,.1,-5.3,.1c-7.8,0,-15.6,-.7,-22.5,-1.9c-6.8,-1.3,-12.5,-3.1,-16.5,-5.2c-3.9,-2.3,-6,-4.7,-6,-7.2c0,-2.5,2.1,-5,6,-7.2c1.8,-.9,3.8,-1.8,6.2,-2.6c-6.8,-1.2,-12.4,-3.1,-16.3,-5.2c-3.9,-2.2,-5.9,-4.7,-5.9,-7.2c0,-2.5,2,-5,5.9,-7.2c4,-2.2,9.6,-4,16.5,-5.2c5.5,-1,11.6,-1.7,17.8,-1.9l.4,-.3Zm8.3,28.5c-1.2,.1,-2.4,.1,-3.6,.1c-7.8,0,-15.5,-.7,-22.4,-1.9c-.1,-.1,-.2,-.1,-.2,-.1m49.2,23c-3.6,.5,-7.5,.8,-11.4,.9m110.2,9.3c-.9,-.4,-1.7,-.9,-2.5,-1.3c-1.7,-1,-3.2,-1.9,-4.4,-2.9m134.5,-6.3c-.3,1.5,-1.3,3.1,-2.7,4.6m57.5,-33.1c1.3,.2,2.5,.4,3.8,.6c9,1.7,16.6,4.1,21.8,7c5.3,2.9,8,6.2,8,9.5c0,0,0,.1,0,.1m45.7,-35.6c-.8,.6,-1.8,1.2,-2.9,1.8c-3.1,1.8,-7.2,3.3,-12.1,4.6m-20.9,-30.4c.5,.9,.8,1.8,.8,2.8c0,.1,0,.2,0,.3m-96.4,-6.7c.8,-.5,1.6,-1,2.5,-1.5c1.5,-.8,3.3,-1.6,5.2,-2.4m-79.4,5.8c.8,-1.2,2.1,-2.3,3.7,-3.4m-87.9,4.5c4.9,.9,9.4,2,13.5,3.3M894.2,657.4c-1.1,-1.2,-1.9,-2.3,-2.3,-3.5" class="g2_16"/>
<path fill-rule="evenodd" d="M523.4,728.3c-.3,-1.3,-.4,-2.6,-.4,-3.9c0,-5.1,2.1,-10,6.3,-14.5c4.1,-4.4,10,-8,17.2,-10.6c7.2,-2.5,15.3,-3.9,23.6,-3.9c8.2,0,16.3,1.4,23.5,3.9q.1,.1,.2,.1c.2,-.2,.5,-.5,.7,-.7c3.2,-3.5,7.9,-6.4,13.6,-8.4c5.6,-2,12,-3.1,18.6,-3.1c6.5,0,12.9,1.1,18.5,3.1c2.8,1,5.3,2.2,7.5,3.5c.3,-.3,.6,-.6,.9,-1c2.7,-2.8,6.5,-5.2,11.1,-6.9c4.7,-1.6,9.9,-2.5,15.3,-2.5c5.3,0,10.5,.9,15.2,2.5c3.4,1.3,6.5,2.9,8.9,4.9c2.5,-1.8,5.6,-3.3,9,-4.6c5.1,-1.8,10.9,-2.7,16.9,-2.7c5.9,0,11.8,.9,16.9,2.7c5.1,1.9,9.4,4.5,12.4,7.7c2,2,3.3,4.3,4,6.7c3.1,.5,6,1.3,8.8,2.3c5.7,2,10.3,4.9,13.6,8.4c3.3,3.4,5,7.4,5,11.5c0,3,-1,6.1,-3,9c1.2,1,2.4,2,3.4,3.2c4.1,4.4,6.4,9.4,6.4,14.5c0,5.1,-2.3,10.1,-6.4,14.5c-4.1,4.4,-10.1,8.1,-17.2,10.7c-5.3,1.8,-11,3.1,-17,3.6c-.1,4.3,-1.9,8.5,-5.4,12.2c-3.5,3.8,-8.6,6.9,-14.8,9.1c-6.1,2.1,-13,3.3,-20.1,3.3c-7.1,0,-14,-1.2,-20.2,-3.3c-.4,-.2,-.8,-.3,-1.1,-.5c-1.1,2.2,-2.6,4.2,-4.3,6.2c-4.2,4.4,-10.1,8.1,-17.3,10.6c-7.1,2.6,-15.2,3.9,-23.5,3.9c-8.3,0,-16.4,-1.3,-23.5,-3.9c-6.3,-2.2,-11.6,-5.3,-15.6,-9c-.3,.1,-.6,.2,-.8,.3c-8.2,2.9,-17.5,4.4,-27,4.4c-9.4,0,-18.7,-1.5,-26.8,-4.4c-8.2,-2.9,-15,-7.1,-19.7,-12.2c-.1,0,-.1,-.1,-.1,-.1c-1.2,.1,-2.4,.1,-3.5,.1c-5.4,0,-10.6,-.8,-15.2,-2.5c-4.7,-1.6,-8.5,-4,-11.2,-6.8c-2.6,-2.8,-4,-6,-4,-9.3c0,-3.3,1.4,-6.5,4,-9.4c1.2,-1.2,2.6,-2.4,4.2,-3.4c-4.6,-1.7,-8.3,-4,-11,-6.8c-2.6,-2.9,-4,-6.1,-4,-9.4c0,-3.3,1.4,-6.5,4,-9.4c2.7,-2.8,6.5,-5.2,11.1,-6.8c3.7,-1.3,7.8,-2.2,12,-2.4l.3,-.5Z" class="g3_16"/>
<path d="M523.4,728.3c-.3,-1.3,-.4,-2.6,-.4,-3.9c0,-5.1,2.1,-10,6.3,-14.5c4.1,-4.4,10,-8,17.2,-10.6c7.2,-2.5,15.3,-3.9,23.6,-3.9c8.2,0,16.3,1.4,23.5,3.9q.1,.1,.2,.1c.2,-.2,.5,-.5,.7,-.7c3.2,-3.5,7.9,-6.4,13.6,-8.4c5.6,-2,12,-3.1,18.6,-3.1c6.5,0,12.9,1.1,18.5,3.1c2.8,1,5.3,2.2,7.5,3.5c.3,-.3,.6,-.6,.9,-1c2.7,-2.8,6.5,-5.2,11.1,-6.9c4.7,-1.6,9.9,-2.5,15.3,-2.5c5.3,0,10.5,.9,15.2,2.5c3.4,1.3,6.5,2.9,8.9,4.9c2.5,-1.8,5.6,-3.3,9,-4.6c5.1,-1.8,10.9,-2.7,16.9,-2.7c5.9,0,11.8,.9,16.9,2.7c5.1,1.9,9.4,4.5,12.4,7.7c2,2,3.3,4.3,4,6.7c3.1,.5,6,1.3,8.8,2.3c5.7,2,10.3,4.9,13.6,8.4c3.3,3.4,5,7.4,5,11.5c0,3,-1,6.1,-3,9c1.2,1,2.4,2,3.4,3.2c4.1,4.4,6.4,9.4,6.4,14.5c0,5.1,-2.3,10.1,-6.4,14.5c-4.1,4.4,-10.1,8.1,-17.2,10.7c-5.3,1.8,-11,3.1,-17,3.6c-.1,4.3,-1.9,8.5,-5.4,12.2c-3.5,3.8,-8.6,6.9,-14.8,9.1c-6.1,2.1,-13,3.3,-20.1,3.3c-7.1,0,-14,-1.2,-20.2,-3.3c-.4,-.2,-.8,-.3,-1.1,-.5c-1.1,2.2,-2.6,4.2,-4.3,6.2c-4.2,4.4,-10.1,8.1,-17.3,10.6c-7.1,2.6,-15.2,3.9,-23.5,3.9c-8.3,0,-16.4,-1.3,-23.5,-3.9c-6.3,-2.2,-11.6,-5.3,-15.6,-9c-.3,.1,-.6,.2,-.8,.3c-8.2,2.9,-17.5,4.4,-27,4.4c-9.4,0,-18.7,-1.5,-26.8,-4.4c-8.2,-2.9,-15,-7.1,-19.7,-12.2c-.1,0,-.1,-.1,-.1,-.1c-1.2,.1,-2.4,.1,-3.5,.1c-5.4,0,-10.6,-.8,-15.2,-2.5c-4.7,-1.6,-8.5,-4,-11.2,-6.8c-2.6,-2.8,-4,-6,-4,-9.3c0,-3.3,1.4,-6.5,4,-9.4c1.2,-1.2,2.6,-2.4,4.2,-3.4c-4.6,-1.7,-8.3,-4,-11,-6.8c-2.6,-2.9,-4,-6.1,-4,-9.4c0,-3.3,1.4,-6.5,4,-9.4c2.7,-2.8,6.5,-5.2,11.1,-6.8c3.7,-1.3,7.8,-2.2,12,-2.4l.3,-.5Zm5.6,37.3c-.8,0,-1.6,0,-2.4,0c-5.3,0,-10.6,-.8,-15.1,-2.5q-.1,0,-.2,0m33.2,30c-2.5,.6,-5.1,1,-7.7,1.2m74.3,12c-.6,-.5,-1.2,-1,-1.7,-1.6c-1.1,-1.2,-2.1,-2.5,-3,-3.9m90.8,-8.2c-.3,2.1,-1,4.1,-1.9,6.1m38.8,-43.3c.9,.3,1.7,.6,2.5,.9c6.1,2.1,11.2,5.3,14.8,9.1c3.5,3.7,5.3,8,5.3,12.4c0,0,0,.1,0,.2m30.8,-46.5c-.5,.8,-1.2,1.6,-2,2.4c-2.1,2.3,-4.8,4.3,-8.1,6M763.3,700.1c.4,1.3,.6,2.5,.6,3.7c0,.1,0,.2,0,.3m-65,-8.6c.5,-.7,1,-1.4,1.7,-2.1c1,-1,2.1,-2,3.4,-3m-53.4,7.5c.5,-1.5,1.3,-3,2.5,-4.4m-59.3,5.9c3.3,1.2,6.3,2.6,9,4.3M525,732.8c-.7,-1.4,-1.2,-2.9,-1.6,-4.4" class="g4_16"/>
<path fill-rule="evenodd" d="M55,601.4c-.5,-.9,-.7,-1.9,-.7,-2.9c0,-3.9,3.3,-7.8,9.7,-11.2c6.4,-3.3,15.5,-6.1,26.6,-8.1c11,-1.9,23.5,-3,36.2,-3c12.7,0,25.3,1.1,36.3,3c.1,0,.3,.1,.4,.1c.3,-.2,.6,-.4,.9,-.5c5.1,-2.7,12.3,-4.9,21,-6.5c8.7,-1.5,18.6,-2.3,28.7,-2.3c10,0,19.9,.8,28.6,2.3c4.2,.8,8,1.6,11.5,2.7c.4,-.2,.9,-.5,1.4,-.7c4.1,-2.3,10,-4.1,17.1,-5.3c7.2,-1.3,15.2,-1.9,23.5,-1.9c8.2,0,16.3,.6,23.4,1.9c5.4,.9,10.1,2.2,13.8,3.7c3.9,-1.4,8.6,-2.6,13.7,-3.5c8,-1.4,17,-2.1,26.1,-2.1c9.2,0,18.2,.7,26.1,2.1c7.9,1.4,14.5,3.4,19.1,5.8c3,1.6,5.1,3.4,6.1,5.2c4.8,.4,9.4,1,13.6,1.7c8.7,1.6,16,3.8,21,6.5c5,2.7,7.7,5.7,7.7,8.8c0,2.3,-1.6,4.7,-4.7,6.9c2,.8,3.8,1.5,5.4,2.4c6.3,3.4,9.7,7.2,9.7,11.1c0,4,-3.4,7.8,-9.7,11.2c-6.5,3.4,-15.6,6.2,-26.7,8.2c-8,1.4,-16.9,2.3,-26,2.7c-.1,3.3,-3,6.5,-8.4,9.4c-5.4,2.8,-13.3,5.3,-22.7,6.9c-9.4,1.7,-20.2,2.6,-31.1,2.6c-10.9,0,-21.6,-.9,-31,-2.6c-.7,-.1,-1.3,-.2,-1.9,-.3c-1.6,1.6,-3.8,3.2,-6.6,4.7c-6.4,3.4,-15.5,6.2,-26.5,8.1c-11,2,-23.6,3,-36.3,3c-12.7,0,-25.2,-1,-36.2,-3c-9.6,-1.7,-17.9,-4,-24.1,-6.9c-.4,.1,-.8,.2,-1.2,.3c-12.6,2.2,-26.9,3.3,-41.5,3.3c-14.5,0,-28.8,-1.1,-41.4,-3.3C93.3,659.6,82.8,656.4,75.5,652.5c0,0,-.1,0,-.1,0c-1.8,0,-3.6,.1,-5.5,.1c-8.1,0,-16.2,-.7,-23.3,-2c-7.2,-1.2,-13.1,-3,-17.2,-5.2c-4.1,-2.2,-6.3,-4.6,-6.3,-7.1c0,-2.6,2.2,-5,6.3,-7.2c1.8,-.9,3.9,-1.8,6.4,-2.6c-7,-1.3,-12.8,-3.1,-16.9,-5.3c-4,-2.1,-6.2,-4.6,-6.2,-7.1c0,-2.6,2.2,-5,6.2,-7.2c4.1,-2.2,10,-4,17.1,-5.3c5.7,-1,12,-1.6,18.6,-1.8l.4,-.4Z" class="g1_16"/>
<path d="M55,601.4c-.5,-.9,-.7,-1.9,-.7,-2.9c0,-3.9,3.3,-7.8,9.7,-11.2c6.4,-3.3,15.5,-6.1,26.6,-8.1c11,-1.9,23.5,-3,36.2,-3c12.7,0,25.3,1.1,36.3,3c.1,0,.3,.1,.4,.1c.3,-.2,.6,-.4,.9,-.5c5.1,-2.7,12.3,-4.9,21,-6.5c8.7,-1.5,18.6,-2.3,28.7,-2.3c10,0,19.9,.8,28.6,2.3c4.2,.8,8,1.6,11.5,2.7c.4,-.2,.9,-.5,1.4,-.7c4.1,-2.3,10,-4.1,17.1,-5.3c7.2,-1.3,15.2,-1.9,23.5,-1.9c8.2,0,16.3,.6,23.4,1.9c5.4,.9,10.1,2.2,13.8,3.7c3.9,-1.4,8.6,-2.6,13.7,-3.5c8,-1.4,17,-2.1,26.1,-2.1c9.2,0,18.2,.7,26.1,2.1c7.9,1.4,14.5,3.4,19.1,5.8c3,1.6,5.1,3.4,6.1,5.2c4.8,.4,9.4,1,13.6,1.7c8.7,1.6,16,3.8,21,6.5c5,2.7,7.7,5.7,7.7,8.8c0,2.3,-1.6,4.7,-4.7,6.9c2,.8,3.8,1.5,5.4,2.4c6.3,3.4,9.7,7.2,9.7,11.1c0,4,-3.4,7.8,-9.7,11.2c-6.5,3.4,-15.6,6.2,-26.7,8.2c-8,1.4,-16.9,2.3,-26,2.7c-.1,3.3,-3,6.5,-8.4,9.4c-5.4,2.8,-13.3,5.3,-22.7,6.9c-9.4,1.7,-20.2,2.6,-31.1,2.6c-10.9,0,-21.6,-.9,-31,-2.6c-.7,-.1,-1.3,-.2,-1.9,-.3c-1.6,1.6,-3.8,3.2,-6.6,4.7c-6.4,3.4,-15.5,6.2,-26.5,8.1c-11,2,-23.6,3,-36.3,3c-12.7,0,-25.2,-1,-36.2,-3c-9.6,-1.7,-17.9,-4,-24.1,-6.9c-.4,.1,-.8,.2,-1.2,.3c-12.6,2.2,-26.9,3.3,-41.5,3.3c-14.5,0,-28.8,-1.1,-41.4,-3.3C93.3,659.6,82.8,656.4,75.5,652.5c0,0,-.1,0,-.1,0c-1.8,0,-3.6,.1,-5.5,.1c-8.1,0,-16.2,-.7,-23.3,-2c-7.2,-1.2,-13.1,-3,-17.2,-5.2c-4.1,-2.2,-6.3,-4.6,-6.3,-7.1c0,-2.6,2.2,-5,6.3,-7.2c1.8,-.9,3.9,-1.8,6.4,-2.6c-7,-1.3,-12.8,-3.1,-16.9,-5.3c-4,-2.1,-6.2,-4.6,-6.2,-7.1c0,-2.6,2.2,-5,6.2,-7.2c4.1,-2.2,10,-4,17.1,-5.3c5.7,-1,12,-1.6,18.6,-1.8l.4,-.4ZM63.4,630c-1.2,0,-2.4,0,-3.6,0c-8.2,0,-16.2,-.6,-23.3,-1.9c-.1,0,-.2,0,-.3,0m51.2,23c-3.8,.5,-7.8,.8,-11.9,.9M190,661.2c-.9,-.4,-1.7,-.8,-2.5,-1.2c-1.8,-1,-3.4,-2,-4.7,-3m139.8,-6.3c-.4,1.6,-1.3,3.2,-2.8,4.7m59.7,-33.2c1.3,.3,2.6,.4,3.9,.6c9.4,1.7,17.3,4.1,22.7,7c5.5,2.9,8.3,6.2,8.3,9.5q0,.1,0,.2m47.5,-35.7c-.9,.7,-1.9,1.3,-3,1.9c-3.3,1.7,-7.6,3.3,-12.5,4.6M424.6,579.8c.5,1,.8,1.9,.8,2.9c0,0,0,.1,0,.2M325.3,576.3c.8,-.5,1.7,-1.1,2.6,-1.6c1.6,-.8,3.4,-1.6,5.4,-2.3m-82.5,5.7c.9,-1.1,2.2,-2.2,3.9,-3.3m-91.3,4.5c5.1,.9,9.7,2,13.9,3.2M57.4,604.9c-1.1,-1.1,-1.9,-2.2,-2.4,-3.4" class="g2_16"/>
<path fill-rule="evenodd" d="M58.6,431.3c-.4,-1.3,-.7,-2.6,-.7,-3.9c0,-5.1,3.6,-10,10.5,-14.5c6.9,-4.4,16.8,-8,28.8,-10.6c11.9,-2.5,25.4,-3.9,39.2,-3.9c13.8,0,27.3,1.4,39.3,3.9c.1,.1,.3,.1,.4,.1c.4,-.2,.7,-.5,1.1,-.7c5.4,-3.5,13.3,-6.4,22.7,-8.4c9.4,-2,20.1,-3.1,31,-3.1c10.9,0,21.6,1.1,31,3.1c4.5,1,8.7,2.2,12.5,3.5c.4,-.3,.9,-.6,1.5,-1c4.4,-2.8,10.8,-5.2,18.5,-6.9c7.8,-1.6,16.5,-2.5,25.4,-2.5c8.9,0,17.6,.9,25.4,2.5c5.8,1.3,10.9,2.9,14.9,4.9c4.2,-1.8,9.3,-3.3,14.9,-4.6c8.6,-1.8,18.3,-2.7,28.2,-2.7c9.9,0,19.7,.9,28.3,2.7c8.5,1.9,15.7,4.5,20.6,7.7c3.3,2,5.6,4.3,6.7,6.7c5.1,.5,10.1,1.3,14.7,2.3c9.5,2,17.3,4.9,22.7,8.4c5.5,3.4,8.3,7.4,8.3,11.5c0,3,-1.7,6.1,-5,9c2.1,1,4,2,5.8,3.2c6.8,4.4,10.5,9.4,10.5,14.5c0,5.1,-3.7,10.1,-10.5,14.5c-7,4.4,-16.9,8.1,-28.9,10.7c-8.7,1.8,-18.3,3.1,-28.2,3.6c-.1,4.3,-3.2,8.5,-9,12.2c-5.9,3.8,-14.4,6.9,-24.7,9.1c-10.2,2.1,-21.7,3.3,-33.6,3.3c-11.8,0,-23.4,-1.2,-33.6,-3.3c-.7,-.2,-1.3,-.3,-2,-.5c-1.7,2.2,-4.1,4.2,-7.2,6.2c-6.8,4.4,-16.8,8.1,-28.7,10.6c-11.9,2.6,-25.4,3.9,-39.2,3.9c-13.8,0,-27.3,-1.3,-39.3,-3.9c-10.4,-2.2,-19.3,-5.3,-26,-9c-.4,.1,-.9,.2,-1.4,.3c-13.6,2.9,-29.1,4.4,-44.8,4.4c-15.8,0,-31.3,-1.5,-44.9,-4.4C100.1,507.3,88.8,503.1,80.9,498c0,0,0,-.1,-.1,-.1c-2,.1,-3.9,.1,-5.9,.1c-8.9,0,-17.6,-.8,-25.4,-2.5c-7.7,-1.6,-14.1,-4,-18.5,-6.8c-4.5,-2.8,-6.8,-6,-6.8,-9.3c0,-3.3,2.3,-6.5,6.8,-9.4c1.9,-1.2,4.2,-2.4,6.9,-3.4c-7.6,-1.7,-13.9,-4,-18.2,-6.8c-4.5,-2.9,-6.8,-6.1,-6.8,-9.4c0,-3.3,2.3,-6.5,6.8,-9.4c4.4,-2.8,10.7,-5.2,18.5,-6.8c6.1,-1.3,12.9,-2.2,20,-2.4l.4,-.5Z" class="g3_16"/>
<path d="M58.6,431.3c-.4,-1.3,-.7,-2.6,-.7,-3.9c0,-5.1,3.6,-10,10.5,-14.5c6.9,-4.4,16.8,-8,28.8,-10.6c11.9,-2.5,25.4,-3.9,39.2,-3.9c13.8,0,27.3,1.4,39.3,3.9c.1,.1,.3,.1,.4,.1c.4,-.2,.7,-.5,1.1,-.7c5.4,-3.5,13.3,-6.4,22.7,-8.4c9.4,-2,20.1,-3.1,31,-3.1c10.9,0,21.6,1.1,31,3.1c4.5,1,8.7,2.2,12.5,3.5c.4,-.3,.9,-.6,1.5,-1c4.4,-2.8,10.8,-5.2,18.5,-6.9c7.8,-1.6,16.5,-2.5,25.4,-2.5c8.9,0,17.6,.9,25.4,2.5c5.8,1.3,10.9,2.9,14.9,4.9c4.2,-1.8,9.3,-3.3,14.9,-4.6c8.6,-1.8,18.3,-2.7,28.2,-2.7c9.9,0,19.7,.9,28.3,2.7c8.5,1.9,15.7,4.5,20.6,7.7c3.3,2,5.6,4.3,6.7,6.7c5.1,.5,10.1,1.3,14.7,2.3c9.5,2,17.3,4.9,22.7,8.4c5.5,3.4,8.3,7.4,8.3,11.5c0,3,-1.7,6.1,-5,9c2.1,1,4,2,5.8,3.2c6.8,4.4,10.5,9.4,10.5,14.5c0,5.1,-3.7,10.1,-10.5,14.5c-7,4.4,-16.9,8.1,-28.9,10.7c-8.7,1.8,-18.3,3.1,-28.2,3.6c-.1,4.3,-3.2,8.5,-9,12.2c-5.9,3.8,-14.4,6.9,-24.7,9.1c-10.2,2.1,-21.7,3.3,-33.6,3.3c-11.8,0,-23.4,-1.2,-33.6,-3.3c-.7,-.2,-1.3,-.3,-2,-.5c-1.7,2.2,-4.1,4.2,-7.2,6.2c-6.8,4.4,-16.8,8.1,-28.7,10.6c-11.9,2.6,-25.4,3.9,-39.2,3.9c-13.8,0,-27.3,-1.3,-39.3,-3.9c-10.4,-2.2,-19.3,-5.3,-26,-9c-.4,.1,-.9,.2,-1.4,.3c-13.6,2.9,-29.1,4.4,-44.8,4.4c-15.8,0,-31.3,-1.5,-44.9,-4.4C100.1,507.3,88.8,503.1,80.9,498c0,0,0,-.1,-.1,-.1c-2,.1,-3.9,.1,-5.9,.1c-8.9,0,-17.6,-.8,-25.4,-2.5c-7.7,-1.6,-14.1,-4,-18.5,-6.8c-4.5,-2.8,-6.8,-6,-6.8,-9.3c0,-3.3,2.3,-6.5,6.8,-9.4c1.9,-1.2,4.2,-2.4,6.9,-3.4c-7.6,-1.7,-13.9,-4,-18.2,-6.8c-4.5,-2.9,-6.8,-6.1,-6.8,-9.4c0,-3.3,2.3,-6.5,6.8,-9.4c4.4,-2.8,10.7,-5.2,18.5,-6.8c6.1,-1.3,12.9,-2.2,20,-2.4l.4,-.5Zm9.2,37.3c-1.3,0,-2.6,0,-3.9,0c-8.9,0,-17.6,-.8,-25.3,-2.5q-.1,0,-.2,0m55.4,30c-4.1,.6,-8.4,1,-12.9,1.2m123.9,12c-.9,-.5,-1.8,-1,-2.7,-1.6c-1.9,-1.2,-3.6,-2.5,-5,-3.9m151.3,-8.2c-.4,2.1,-1.5,4.1,-3.1,6.1m64.8,-43.3c1.4,.3,2.8,.6,4.1,.9c10.3,2.1,18.8,5.3,24.7,9.1c5.9,3.7,9,8,9,12.4c0,0,0,.1,0,.2m51.3,-46.5c-.9,.8,-2,1.6,-3.2,2.4c-3.6,2.3,-8.2,4.3,-13.6,6M458.8,403.1c.6,1.3,.9,2.5,.9,3.7c0,.1,0,.2,0,.3M351.4,398.5c.8,-.7,1.7,-1.4,2.8,-2.1c1.7,-1,3.6,-2,5.8,-3m-89.3,7.5c.9,-1.5,2.3,-3,4.2,-4.4M176,402.4c5.5,1.2,10.6,2.6,15.2,4.3m-130,29.1c-1.2,-1.4,-2,-2.9,-2.6,-4.4" class="g4_16"/>
<path fill-rule="evenodd" d="M107.2,275c-.5,-1,-.8,-2,-.8,-3c0,-3.9,3.9,-7.7,11.3,-11.1c7.4,-3.4,18,-6.2,30.8,-8.1c12.7,-2,27.2,-3,41.9,-3c14.8,0,29.3,1,42,3c.2,0,.3,0,.5,0c.4,-.1,.7,-.3,1.1,-.5c5.8,-2.7,14.2,-4.9,24.3,-6.4c10.1,-1.6,21.5,-2.4,33.2,-2.4c11.6,0,23,.8,33.1,2.4c4.9,.7,9.3,1.6,13.4,2.7c.4,-.3,1,-.5,1.5,-.8c4.8,-2.2,11.6,-4,19.9,-5.3c8.2,-1.2,17.6,-1.9,27.2,-1.9c9.5,0,18.8,.7,27.1,1.9c6.2,1,11.7,2.3,16,3.7c4.5,-1.3,9.9,-2.5,15.9,-3.4c9.2,-1.4,19.6,-2.2,30.2,-2.2c10.6,0,21,.8,30.2,2.2c9.1,1.4,16.8,3.4,22.1,5.8c3.5,1.6,5.9,3.3,7.1,5.1c5.5,.4,10.8,1,15.8,1.8c10,1.5,18.4,3.7,24.2,6.4c5.9,2.7,8.9,5.7,8.9,8.8c0,2.4,-1.8,4.7,-5.4,6.9c2.3,.8,4.3,1.6,6.2,2.5c7.4,3.3,11.3,7.2,11.3,11.1c0,3.9,-3.9,7.7,-11.3,11.2c-7.4,3.3,-18.1,6.2,-30.9,8.1c-9.3,1.4,-19.5,2.4,-30.2,2.8c0,3.3,-3.4,6.5,-9.6,9.3c-6.3,2.9,-15.4,5.3,-26.3,7c-11,1.7,-23.3,2.5,-36,2.5c-12.6,0,-25,-.8,-35.9,-2.5c-.8,-.1,-1.5,-.2,-2.2,-.3c-1.9,1.6,-4.4,3.2,-7.6,4.6c-7.4,3.4,-18,6.2,-30.8,8.2c-12.7,1.9,-27.2,3,-41.9,3c-14.8,0,-29.3,-1.1,-42,-3c-11.2,-1.7,-20.7,-4.1,-27.8,-6.9c-.5,0,-1,.1,-1.5,.2c-14.6,2.2,-31.2,3.4,-48,3.4c-16.8,0,-33.4,-1.2,-48,-3.4c-14.6,-2.2,-26.7,-5.4,-35.1,-9.3c-.1,0,-.1,-.1,-.2,-.1c-2.1,.1,-4.2,.1,-6.3,.1c-9.5,0,-18.9,-.6,-27.1,-1.9C89.3,322.9,82.4,321.1,77.6,319c-4.7,-2.3,-7.2,-4.7,-7.2,-7.2c0,-2.5,2.5,-5,7.2,-7.2c2.1,-.9,4.6,-1.8,7.4,-2.6c-8.1,-1.2,-14.8,-3.1,-19.5,-5.2c-4.7,-2.2,-7.2,-4.7,-7.2,-7.2c0,-2.5,2.5,-5,7.2,-7.2c4.8,-2.2,11.6,-4,19.8,-5.2c6.6,-1,13.9,-1.7,21.5,-1.9l.4,-.3Z" class="g1_16"/>
<path d="M107.2,275c-.5,-1,-.8,-2,-.8,-3c0,-3.9,3.9,-7.7,11.3,-11.1c7.4,-3.4,18,-6.2,30.8,-8.1c12.7,-2,27.2,-3,41.9,-3c14.8,0,29.3,1,42,3c.2,0,.3,0,.5,0c.4,-.1,.7,-.3,1.1,-.5c5.8,-2.7,14.2,-4.9,24.3,-6.4c10.1,-1.6,21.5,-2.4,33.2,-2.4c11.6,0,23,.8,33.1,2.4c4.9,.7,9.3,1.6,13.4,2.7c.4,-.3,1,-.5,1.5,-.8c4.8,-2.2,11.6,-4,19.9,-5.3c8.2,-1.2,17.6,-1.9,27.2,-1.9c9.5,0,18.8,.7,27.1,1.9c6.2,1,11.7,2.3,16,3.7c4.5,-1.3,9.9,-2.5,15.9,-3.4c9.2,-1.4,19.6,-2.2,30.2,-2.2c10.6,0,21,.8,30.2,2.2c9.1,1.4,16.8,3.4,22.1,5.8c3.5,1.6,5.9,3.3,7.1,5.1c5.5,.4,10.8,1,15.8,1.8c10,1.5,18.4,3.7,24.2,6.4c5.9,2.7,8.9,5.7,8.9,8.8c0,2.4,-1.8,4.7,-5.4,6.9c2.3,.8,4.3,1.6,6.2,2.5c7.4,3.3,11.3,7.2,11.3,11.1c0,3.9,-3.9,7.7,-11.3,11.2c-7.4,3.3,-18.1,6.2,-30.9,8.1c-9.3,1.4,-19.5,2.4,-30.2,2.8c0,3.3,-3.4,6.5,-9.6,9.3c-6.3,2.9,-15.4,5.3,-26.3,7c-11,1.7,-23.3,2.5,-36,2.5c-12.6,0,-25,-.8,-35.9,-2.5c-.8,-.1,-1.5,-.2,-2.2,-.3c-1.9,1.6,-4.4,3.2,-7.6,4.6c-7.4,3.4,-18,6.2,-30.8,8.2c-12.7,1.9,-27.2,3,-41.9,3c-14.8,0,-29.3,-1.1,-42,-3c-11.2,-1.7,-20.7,-4.1,-27.8,-6.9c-.5,0,-1,.1,-1.5,.2c-14.6,2.2,-31.2,3.4,-48,3.4c-16.8,0,-33.4,-1.2,-48,-3.4c-14.6,-2.2,-26.7,-5.4,-35.1,-9.3c-.1,0,-.1,-.1,-.2,-.1c-2.1,.1,-4.2,.1,-6.3,.1c-9.5,0,-18.9,-.6,-27.1,-1.9C89.3,322.9,82.4,321.1,77.6,319c-4.7,-2.3,-7.2,-4.7,-7.2,-7.2c0,-2.5,2.5,-5,7.2,-7.2c2.1,-.9,4.6,-1.8,7.4,-2.6c-8.1,-1.2,-14.8,-3.1,-19.5,-5.2c-4.7,-2.2,-7.2,-4.7,-7.2,-7.2c0,-2.5,2.5,-5,7.2,-7.2c4.8,-2.2,11.6,-4,19.8,-5.2c6.6,-1,13.9,-1.7,21.5,-1.9l.4,-.3Zm9.9,28.5c-1.4,.1,-2.8,.1,-4.2,.1c-9.5,0,-18.8,-.7,-27,-1.9c-.1,-.1,-.2,-.1,-.3,-.1m59.3,23c-4.4,.5,-9,.8,-13.8,.9m132.6,9.3c-1.1,-.4,-2,-.9,-2.9,-1.3c-2.1,-.9,-3.9,-1.9,-5.5,-2.9m161.9,-6.3c-.5,1.5,-1.6,3.1,-3.3,4.6m69.2,-33.1c1.5,.2,3,.4,4.5,.6c11,1.7,20,4.1,26.3,7c6.3,2.9,9.7,6.2,9.7,9.5c0,0,0,.1,0,.1m54.9,-35.6c-1,.6,-2.2,1.2,-3.5,1.8c-3.8,1.8,-8.7,3.3,-14.5,4.6M535.3,253.4c.6,.9,.9,1.9,.9,2.8c0,.1,0,.2,0,.3M420.3,249.8c.9,-.5,1.9,-1,3,-1.5c1.8,-.8,3.9,-1.6,6.3,-2.4m-95.5,5.8c.9,-1.2,2.4,-2.3,4.4,-3.4m-105.7,4.5c5.9,.9,11.3,2,16.2,3.3M110,278.5c-1.3,-1.2,-2.2,-2.3,-2.8,-3.5" class="g2_16"/>
</svg>