<?xml version="1.0" encoding="UTF-8" standalone="no"?>
<!DOCTYPE svg PUBLIC "-//W3C//DTD SVG 1.1//EN"
"http://www.w3.org/Graphics/SVG/1.1/DTD/svg11.dtd">
<svg viewBox="0 0 1466 825" version="1.1" xmlns="http://www.w3.org/2000/svg" xmlns:xlink="http://www.w3.org/1999/xlink">
<defs>
<clipPath id="c0_14"><path d="M0,825V0H1466.6V825Z"/></clipPath>
<clipPath id="c1_14"><path d="M0,825V0H1466.7V825Z"/></clipPath>
<style type="text/css"><![CDATA[
.g0_14{
fill: #FFFFFF;
}
.g1_14{
fill: #ED7D31;
}
.g2_14{
fill: #F8D7CD;
}
.g3_14{
fill: #FBECE7;
}
.g4_14{
fill: none;
stroke: #FFFFFF;
stroke-width: 1.298;
stroke-linecap: butt;
stroke-linejoin: round;
}
.g5_14{
fill: none;
stroke: #FFFFFF;
stroke-width: 4.048;
stroke-linecap: butt;
stroke-linejoin: round;
}
]]></style>
</defs>
<path clip-path="url(#c0_14)" fill-rule="evenodd" d="M0,0H1466.6V825H0V0Z" class="g0_14"/>
<g clip-path="url(#c1_14)">
<image preserveAspectRatio="none" x="0" y="0" width="188" height="188" xlink:href="img/1.jpg"/>
<image preserveAspectRatio="none" x="188" y="0" width="187" height="188" xlink:href="img/2.jpg"/>
<image preserveAspectRatio="none" x="375" y="0" width="188" height="188" xlink:href="img/3.jpg"/>
<image preserveAspectRatio="none" x="563" y="0" width="188" height="188" xlink:href="img/4.jpg"/>
<image preserveAspectRatio="none" x="751" y="0" width="188" height="188" xlink:href="img/5.jpg"/>
<image preserveAspectRatio="none" x="939" y="0" width="187" height="188" xlink:href="img/6.jpg"/>
<image preserveAspectRatio="none" x="1126" y="0" width="188" height="188" xlink:href="img/7.jpg"/>
<image preserveAspectRatio="none" x="1314" y="0" width="188" height="188" xlink:href="img/8.jpg"/>
<image preserveAspectRatio="none" x="0" y="188" width="188" height="187" xlink:href="img/9.jpg"/>
<image preserveAspectRatio="none" x="188" y="188" width="187" height="187" xlink:href="img/10.jpg"/>
<image preserveAspectRatio="none" x="375" y="188" width="188" height="187" xlink:href="img/11.jpg"/>
<image preserveAspectRatio="none" x="563" y="188" width="188" height="187" xlink:href="img/12.jpg"/>
<image preserveAspectRatio="none" x="751" y="188" width="188" height="187" xlink:href="img/13.jpg"/>
<image preserveAspectRatio="none" x="939" y="188" width="187" height="187" xlink:href="img/14.jpg"/>
<image preserveAspectRatio="none" x="1126" y="188" width="188" height="187" xlink:href="img/15.jpg"/>
<image preserveAspectRatio="none" x="1314" y="188" width="188" height="187" xlink:href="img/16.jpg"/>
<image preserveAspectRatio="none" x="0" y="375" width="188" height="188" xlink:href="img/17.jpg"/>
<image preserveAspectRatio="none" x="188" y="375" width="187" height="188" xlink:href="img/18.jpg"/>
<image preserveAspectRatio="none" x="375" y="375" width="188" height="188" xlink:href="img/19.jpg"/>
<image preserveAspectRatio="none" x="563" y="375" width="188" height="188" xlink:href="img/20.jpg"/>
<image preserveAspectRatio="none" x="751" y="375" width="188" height="188" xlink:href="img/21.jpg"/>
<image preserveAspectRatio="none" x="939" y="375" width="187" height="188" xlink:href="img/22.jpg"/>
<image preserveAspectRatio="none" x="1126" y="375" width="188" height="188" xlink:href="img/23.jpg"/>
<image preserveAspectRatio="none" x="1314" y="375" width="188" height="188" xlink:href="img/24.jpg"/>
<image preserveAspectRatio="none" x="0" y="563" width="188" height="188" xlink:href="img/25.jpg"/>
<image preserveAspectRatio="none" x="188" y="563" width="187" height="188" xlink:href="img/26.jpg"/>
<image preserveAspectRatio="none" x="375" y="563" width="188" height="188" xlink:href="img/27.jpg"/>
<image preserveAspectRatio="none" x="563" y="563" width="188" height="188" xlink:href="img/28.jpg"/>
<image preserveAspectRatio="none" x="751" y="563" width="188" height="188" xlink:href="img/29.jpg"/>
<image preserveAspectRatio="none" x="939" y="563" width="187" height="188" xlink:href="img/30.jpg"/>
<image preserveAspectRatio="none" x="1126" y="563" width="188" height="188" xlink:href="img/31.jpg"/>
<image preserveAspectRatio="none" x="1314" y="563" width="188" height="188" xlink:href="img/32.jpg"/>
<image preserveAspectRatio="none" x="0" y="751" width="188" height="188" xlink:href="img/33.jpg"/>
<image preserveAspectRatio="none" x="188" y="751" width="187" height="188" xlink:href="img/34.jpg"/>
<image preserveAspectRatio="none" x="375" y="751" width="188" height="188" xlink:href="img/35.jpg"/>
<image preserveAspectRatio="none" x="563" y="751" width="188" height="188" xlink:href="img/36.jpg"/>
<image preserveAspectRatio="none" x="751" y="751" width="188" height="188" xlink:href="img/37.jpg"/>
<image preserveAspectRatio="none" x="939" y="751" width="187" height="188" xlink:href="img/38.jpg"/>
<image preserveAspectRatio="none" x="1126" y="751" width="188" height="188" xlink:href="img/39.jpg"/>
<image preserveAspectRatio="none" x="1314" y="751" width="188" height="188" xlink:href="img/40.jpg"/>
</g>
<path fill-rule="evenodd" d="M44.3,208H171.1v44.7H44.3V208Z" class="g1_14"/>
<path fill-rule="evenodd" d="M171.1,208H516.3v44.7H171.1V208Z" class="g1_14"/>
<path fill-rule="evenodd" d="M516.3,208H798.1v44.7H516.3V208Z" class="g1_14"/>
<path fill-rule="evenodd" d="M798.1,208h213.5v44.7H798.1V208Z" class="g1_14"/>
<path fill-rule="evenodd" d="M1011.6,208h188.5v44.7H1011.6V208Z" class="g1_14"/>
<path fill-rule="evenodd" d="M44.3,252.7H171.1v44.6H44.3V252.7Z" class="g2_14"/>
<path fill-rule="evenodd" d="M171.1,252.7H516.3v44.6H171.1V252.7Z" class="g2_14"/>
<path fill-rule="evenodd" d="M516.3,252.7H798.1v44.6H516.3V252.7Z" class="g2_14"/>
<path fill-rule="evenodd" d="M798.1,252.7h213.5v44.6H798.1V252.7Z" class="g2_14"/>
<path fill-rule="evenodd" d="M1011.6,252.7h188.5v44.6H1011.6V252.7Z" class="g2_14"/>
<path fill-rule="evenodd" d="M44.3,297.3H171.1V348H44.3V297.3Z" class="g3_14"/>
<path fill-rule="evenodd" d="M171.1,297.3H516.3V348H171.1V297.3Z" class="g3_14"/>
<path fill-rule="evenodd" d="M516.3,297.3H798.1V348H516.3V297.3Z" class="g3_14"/>
<path fill-rule="evenodd" d="M798.1,297.3h213.5V348H798.1V297.3Z" class="g3_14"/>
<path fill-rule="evenodd" d="M1011.6,297.3h188.5V348H1011.6V297.3Z" class="g3_14"/>
<path fill-rule="evenodd" d="M44.3,348H171.1v44.6H44.3V348Z" class="g2_14"/>
<path fill-rule="evenodd" d="M171.1,348H516.3v44.6H171.1V348Z" class="g2_14"/>
<path fill-rule="evenodd" d="M516.3,348H798.1v44.6H516.3V348Z" class="g2_14"/>
<path fill-rule="evenodd" d="M798.1,348h213.5v44.6H798.1V348Z" class="g2_14"/>
<path fill-rule="evenodd" d="M1011.6,348h188.5v44.6H1011.6V348Z" class="g2_14"/>
<path fill-rule="evenodd" d="M44.3,392.6H171.1v44.6H44.3V392.6Z" class="g3_14"/>
<path fill-rule="evenodd" d="M171.1,392.6H516.3v44.6H171.1V392.6Z" class="g3_14"/>
<path fill-rule="evenodd" d="M516.3,392.6H798.1v44.6H516.3V392.6Z" class="g3_14"/>
<path fill-rule="evenodd" d="M798.1,392.6h213.5v44.6H798.1V392.6Z" class="g3_14"/>
<path fill-rule="evenodd" d="M1011.6,392.6h188.5v44.6H1011.6V392.6Z" class="g3_14"/>
<path fill-rule="evenodd" d="M44.3,437.2H171.1v44.6H44.3V437.2Z" class="g2_14"/>
<path fill-rule="evenodd" d="M171.1,437.2H516.3v44.6H171.1V437.2Z" class="g2_14"/>
<path fill-rule="evenodd" d="M516.3,437.2H798.1v44.6H516.3V437.2Z" class="g2_14"/>
<path fill-rule="evenodd" d="M798.1,437.2h213.5v44.6H798.1V437.2Z" class="g2_14"/>
<path fill-rule="evenodd" d="M1011.6,437.2h188.5v44.6H1011.6V437.2Z" class="g2_14"/>
<path fill-rule="evenodd" d="M44.3,481.8H171.1v44.6H44.3V481.8Z" class="g3_14"/>
<path fill-rule="evenodd" d="M171.1,481.8H516.3v44.6H171.1V481.8Z" class="g3_14"/>
<path fill-rule="evenodd" d="M516.3,481.8H798.1v44.6H516.3V481.8Z" class="g3_14"/>
<path fill-rule="evenodd" d="M798.1,481.8h213.5v44.6H798.1V481.8Z" class="g3_14"/>
<path fill-rule="evenodd" d="M1011.6,481.8h188.5v44.6H1011.6V481.8Z" class="g3_14"/>
<path fill-rule="evenodd" d="M44.3,526.4H171.1V571H44.3V526.4Z" class="g2_14"/>
<path fill-rule="evenodd" d="M171.1,526.4H516.3V571H171.1V526.4Z" class="g2_14"/>
<path fill-rule="evenodd" d="M516.3,526.4H798.1V571H516.3V526.4Z" class="g2_14"/>
<path fill-rule="evenodd" d="M798.1,526.4h213.5V571H798.1V526.4Z" class="g2_14"/>
<path fill-rule="evenodd" d="M1011.6,526.4h188.5V571H1011.6V526.4Z" class="g2_14"/>
<path d="M43.7,208H1200.8M44.3,207.4V571.7M171.1,207.4V571.7M516.3,207.4V571.7M798.1,207.4V571.7M1011.6,207.4V571.7M1200.1,207.4V571.7" class="g4_14"/>
<path d="M43.7,252.7H1200.8" class="g5_14"/>
<path d="M43.7,297.3H1200.8M43.7,348H1200.8M43.7,392.6H1200.8M43.7,437.2H1200.8M43.7,481.8H1200.8M43.7,526.4H1200.8M43.7,571H1200.8" class="g4_14"/>
</svg>