<?xml version="1.0" encoding="UTF-8" standalone="no"?>
<!DOCTYPE svg PUBLIC "-//W3C//DTD SVG 1.1//EN"
"http://www.w3.org/Graphics/SVG/1.1/DTD/svg11.dtd">
<svg viewBox="0 0 1466 825" version="1.1" xmlns="http://www.w3.org/2000/svg" xmlns:xlink="http://www.w3.org/1999/xlink">
<defs>
<clipPath id="c0_15"><path d="M0,825V0H1466.6V825Z"/></clipPath>
<clipPath id="c1_15"><path d="M0,825V0H1466.7V825Z"/></clipPath>
<style type="text/css"><![CDATA[
.g0_15{
fill: #FFFFFF;
}
.g1_15{
fill: #FFC000;
}
.g2_15{
fill: none;
stroke: #BC8E00;
stroke-width: 1.515;
stroke-linecap: butt;
stroke-linejoin: miter;
stroke-miterlimit: 3;
}
]]></style>
</defs>
<path clip-path="url(#c0_15)" fill-rule="evenodd" d="M0,0H1466.6V825H0V0Z" class="g0_15"/>
<g clip-path="url(#c1_15)">
<image preserveAspectRatio="none" x="0" y="0" width="188" height="188" xlink:href="img/1.jpg"/>
<image preserveAspectRatio="none" x="188" y="0" width="187" height="188" xlink:href="img/2.jpg"/>
<image preserveAspectRatio="none" x="375" y="0" width="188" height="188" xlink:href="img/3.jpg"/>
<image preserveAspectRatio="none" x="563" y="0" width="188" height="188" xlink:href="img/4.jpg"/>
<image preserveAspectRatio="none" x="751" y="0" width="188" height="188" xlink:href="img/5.jpg"/>
<image preserveAspectRatio="none" x="939" y="0" width="187" height="188" xlink:href="img/6.jpg"/>
<image preserveAspectRatio="none" x="1126" y="0" width="188" height="188" xlink:href="img/7.jpg"/>
<image preserveAspectRatio="none" x="1314" y="0" width="188" height="188" xlink:href="img/8.jpg"/>
<image preserveAspectRatio="none" x="0" y="188" width="188" height="187" xlink:href="img/9.jpg"/>
<image preserveAspectRatio="none" x="188" y="188" width="187" height="187" xlink:href="img/10.jpg"/>
<image preserveAspectRatio="none" x="375" y="188" width="188" height="187" xlink:href="img/11.jpg"/>
<image preserveAspectRatio="none" x="563" y="188" width="188" height="187" xlink:href="img/12.jpg"/>
<image preserveAspectRatio="none" x="751" y="188" width="188" height="187" xlink:href="img/13.jpg"/>
<image preserveAspectRatio="none" x="939" y="188" width="187" height="187" xlink:href="img/14.jpg"/>
<image preserveAspectRatio="none" x="1126" y="188" width="188" height="187" xlink:href="img/15.jpg"/>
<image preserveAspectRatio="none" x="1314" y="188" width="188" height="187" xlink:href="img/16.jpg"/>
<image preserveAspectRatio="none" x="0" y="375" width="188" height="188" xlink:href="img/17.jpg"/>
<image preserveAspectRatio="none" x="188" y="375" width="187" height="188" xlink:href="img/18.jpg"/>
<image preserveAspectRatio="none" x="375" y="375" width="188" height="188" xlink:href="img/19.jpg"/>
<image preserveAspectRatio="none" x="563" y="375" width="188" height="188" xlink:href="img/20.jpg"/>
<image preserveAspectRatio="none" x="751" y="375" width="188" height="188" xlink:href="img/21.jpg"/>
<image preserveAspectRatio="none" x="939" y="375" width="187" height="188" xlink:href="img/22.jpg"/>
<image preserveAspectRatio="none" x="1126" y="375" width="188" height="188" xlink:href="img/23.jpg"/>
<image preserveAspectRatio="none" x="1314" y="375" width="188" height="188" xlink:href="img/24.jpg"/>
<image preserveAspectRatio="none" x="0" y="563" width="188" height="188" xlink:href="img/25.jpg"/>
<image preserveAspectRatio="none" x="188" y="563" width="187" height="188" xlink:href="img/26.jpg"/>
<image preserveAspectRatio="none" x="375" y="563" width="188" height="188" xlink:href="img/27.jpg"/>
<image preserveAspectRatio="none" x="563" y="563" width="188" height="188" xlink:href="img/28.jpg"/>
<image preserveAspectRatio="none" x="751" y="563" width="188" height="188" xlink:href="img/29.jpg"/>
<image preserveAspectRatio="none" x="939" y="563" width="187" height="188" xlink:href="img/30.jpg"/>
<image preserveAspectRatio="none" x="1126" y="563" width="188" height="188" xlink:href="img/31.jpg"/>
<image preserveAspectRatio="none" x="1314" y="563" width="188" height="188" xlink:href="img/32.jpg"/>
<image preserveAspectRatio="none" x="0" y="751" width="188" height="188" xlink:href="img/33.jpg"/>
<image preserveAspectRatio="none" x="188" y="751" width="187" height="188" xlink:href="img/34.jpg"/>
<image preserveAspectRatio="none" x="375" y="751" width="188" height="188" xlink:href="img/35.jpg"/>
<image preserveAspectRatio="none" x="563" y="751" width="188" height="188" xlink:href="img/36.jpg"/>
<image preserveAspectRatio="none" x="751" y="751" width="188" height="188" xlink:href="img/37.jpg"/>
<image preserveAspectRatio="none" x="939" y="751" width="187" height="188" xlink:href="img/38.jpg"/>
<image preserveAspectRatio="none" x="1126" y="751" width="188" height="188" xlink:href="img/39.jpg"/>
<image preserveAspectRatio="none" x="1314" y="751" width="188" height="188" xlink:href="img/40.jpg"/>
</g>
<image clip-path="url(#c0_15)" preserveAspectRatio="none" x="0" y="111" width="1467" height="300" xlink:href="img/41.jpg"/>
<path fill-rule="evenodd" d="M27.4,785.2c0,-7,32.9,-13.9,95.6,-20c62.6,-6,152.7,-11.1,261.2,-14.5c108.5,-3.5,231.5,-5.4,356.8,-5.4c125.3,0,248.4,1.9,356.8,5.4c108.5,3.4,198.6,8.5,261.2,14.5c62.7,6.1,95.6,13,95.6,20c0,6.9,-32.9,13.8,-95.6,19.9c-62.6,6,-152.7,11.1,-261.2,14.5C989.4,823.1,866.3,825,741,825c-125.3,0,-248.3,-1.9,-356.8,-5.4C275.7,816.2,185.6,811.1,123,805.1C60.3,799,27.4,792.1,27.4,785.2Z" class="g1_15"/>
<path d="M27.4,785.2c0,-7,32.9,-13.9,95.6,-20c62.6,-6,152.7,-11.1,261.2,-14.5c108.5,-3.5,231.5,-5.4,356.8,-5.4c125.3,0,248.4,1.9,356.8,5.4c108.5,3.4,198.6,8.5,261.2,14.5c62.7,6.1,95.6,13,95.6,20c0,6.9,-32.9,13.8,-95.6,19.9c-62.6,6,-152.7,11.1,-261.2,14.5C989.4,823.1,866.3,825,741,825c-125.3,0,-248.3,-1.9,-356.8,-5.4C275.7,816.2,185.6,811.1,123,805.1C60.3,799,27.4,792.1,27.4,785.2Z" class="g2_15"/>
</svg>