<?xml version="1.0" encoding="UTF-8" standalone="no"?>
<!DOCTYPE svg PUBLIC "-//W3C//DTD SVG 1.1//EN"
"http://www.w3.org/Graphics/SVG/1.1/DTD/svg11.dtd">
<svg viewBox="0 0 1466 825" version="1.1" xmlns="http://www.w3.org/2000/svg" xmlns:xlink="http://www.w3.org/1999/xlink">
<defs>
<clipPath id="c0"><path d="M0,825V0H1466.6V825Z"/></clipPath>
<style type="text/css"><![CDATA[
.g0{
fill: #FFFFFF;
}
.g1{
fill: none;
stroke: #5B9BD5;
stroke-width: 0.779;
stroke-linecap: butt;
stroke-linejoin: miter;
stroke-miterlimit: 3;
}
.g2{
fill: #5B9BD5;
}
.g3{
fill: none;
stroke: #43729D;
stroke-width: 1.515;
stroke-linecap: butt;
stroke-linejoin: miter;
stroke-miterlimit: 3;
}
]]></style>
</defs>
<g clip-path="url(#c0)">
<path fill-rule="evenodd" d="M0,0H1466.6V825H0V0Z" class="g0"/>
<path fill-rule="evenodd" d="M0,0H1466.7V825H0V0Z" class="g0"/>
<image preserveAspectRatio="none" x="42" y="340" width="670" height="335" xlink:href="img/1.jpg"/>
<image preserveAspectRatio="none" x="729" y="340" width="665" height="332" xlink:href="img/2.jpg"/>
</g>
<path d="M151,754.9l985.1,.1" class="g1"/>
<path fill-rule="evenodd" d="M1361.8,165.5l11.1,-16.3l-1.1,15l12.5,-2.4l-5,8l13.1,2.3l-10.4,6.6l11.9,8l-14.2,-1l3.9,14.5l-12.2,-10.3l-2.3,14.9l-8,-13.5l-6.2,18.8l-2.2,-16.9l-8.8,5.6l2.7,-10.3l-16.4,1.8l10.6,-7.9l-11,-9l13.7,-2.8l-12.6,-15l20.6,11.4l3.1,-11.4l7.2,9.9Z" class="g2"/>
<path d="M1361.8,165.5l11.1,-16.3l-1.1,15l12.5,-2.4l-5,8l13.1,2.3l-10.4,6.6l11.9,8l-14.2,-1l3.9,14.5l-12.2,-10.3l-2.3,14.9l-8,-13.5l-6.2,18.8l-2.2,-16.9l-8.8,5.6l2.7,-10.3l-16.4,1.8l10.6,-7.9l-11,-9l13.7,-2.8l-12.6,-15l20.6,11.4l3.1,-11.4l7.2,9.9Z" class="g3"/>
<path fill-rule="evenodd" d="M70,224L83.7,208.5l-1.1,20.6l14.3,-9.3l-6.7,12l21.4,.4L92.7,242l5.3,6.8l-7.8,3.6l10.2,11.9L83.1,259.7l1.2,10.8L73,265.4l-2.4,10.4l-7.1,-5.3l-4.8,8.4l-4.8,-5.7L43.1,285.7l-.4,-12.1L28.2,272.1l8.4,-8.7L23,254.5l16.1,-4.6L27.8,238L45,236.4l-3.6,-15l16.7,9.9l4.8,-16.1L70,224Z" class="g2"/>
<path d="M70,224L83.7,208.5l-1.1,20.6l14.3,-9.3l-6.7,12l21.4,.4L92.7,242l5.3,6.8l-7.8,3.6l10.2,11.9L83.1,259.7l1.2,10.8L73,265.4l-2.4,10.4l-7.1,-5.3l-4.8,8.4l-4.8,-5.7L43.1,285.7l-.4,-12.1L28.2,272.1l8.4,-8.7L23,254.5l16.1,-4.6L27.8,238L45,236.4l-3.6,-15l16.7,9.9l4.8,-16.1L70,224Z" class="g3"/>
<path fill-rule="evenodd" d="M1269.1,240.7l13,-14.1l-1.3,13l14.8,-2.1l-5.9,6.9l15.4,2.1l-12.3,5.7l14,6.9l-16.6,-.9l4.6,12.6l-14.5,-8.9l-2.7,12.9L1268.1,263l-7.1,16.4l-2.8,-14.7l-10.3,4.9l3.2,-9l-19.4,1.6l12.6,-6.9l-13,-7.7l16.2,-2.4l-14.9,-13l24.3,9.8l3.6,-9.8l8.6,8.5Z" class="g2"/>
<path d="M1269.1,240.7l13,-14.1l-1.3,13l14.8,-2.1l-5.9,6.9l15.4,2.1l-12.3,5.7l14,6.9l-16.6,-.9l4.6,12.6l-14.5,-8.9l-2.7,12.9L1268.1,263l-7.1,16.4l-2.8,-14.7l-10.3,4.9l3.2,-9l-19.4,1.6l12.6,-6.9l-13,-7.7l16.2,-2.4l-14.9,-13l24.3,9.8l3.6,-9.8l8.6,8.5Z" class="g3"/>
<path fill-rule="evenodd" d="M1391,751.2l14.4,-12.7l-1.1,16.9l15,-7.6l-7,9.9l22.6,.3l-20,8.1l5.6,5.5l-8.2,3l10.8,9.8l-18.3,-3.8l1.3,8.9l-12,-4.2l-2.5,8.5l-7.5,-4.3l-5.1,6.9l-5,-4.7l-11.4,10.2l-.5,-9.9l-15.2,-1.2l8.9,-7.2l-14.4,-7.3l17,-3.8l-12,-9.7l18.2,-1.4l-3.8,-12.3l17.6,8.1l5,-13.2l7.6,7.2Z" class="g2"/>
<path d="M1391,751.2l14.4,-12.7l-1.1,16.9l15,-7.6l-7,9.9l22.6,.3l-20,8.1l5.6,5.5l-8.2,3l10.8,9.8l-18.3,-3.8l1.3,8.9l-12,-4.2l-2.5,8.5l-7.5,-4.3l-5.1,6.9l-5,-4.7l-11.4,10.2l-.5,-9.9l-15.2,-1.2l8.9,-7.2l-14.4,-7.3l17,-3.8l-12,-9.7l18.2,-1.4l-3.8,-12.3l17.6,8.1l5,-13.2l7.6,7.2Z" class="g3"/>
</svg>