<?xml version="1.0" encoding="UTF-8" standalone="no"?>
<!DOCTYPE svg PUBLIC "-//W3C//DTD SVG 1.1//EN"
"http://www.w3.org/Graphics/SVG/1.1/DTD/svg11.dtd">
<svg viewBox="0 0 1466 825" version="1.1" xmlns="http://www.w3.org/2000/svg" xmlns:xlink="http://www.w3.org/1999/xlink">
<defs>
<clipPath id="c0_3"><path d="M0,825V0H1466.6V825Z"/></clipPath>
<style type="text/css"><![CDATA[
.g0_3{
fill: #FFFFFF;
}
.g1_3{
fill: #FF0000;
}
.g2_3{
fill: none;
stroke: #43729D;
stroke-width: 1.515;
stroke-linecap: butt;
stroke-linejoin: miter;
stroke-miterlimit: 3;
}
.g3_3{
fill: #F4B183;
}
.g4_3{
fill: #FFC000;
}
.g5_3{
fill: #5B9BD5;
}
]]></style>
</defs>
<g clip-path="url(#c0_3)">
<path fill-rule="evenodd" d="M0,0H1466.6V825H0V0Z" class="g0_3"/>
<path fill-rule="evenodd" d="M0,0H1466.7V825H0V0Z" class="g0_3"/>
<path fill-rule="evenodd" d="M437.5,673.5c0,-27.3,12,-54.1,34.9,-77.7c22.7,-23.7,55.6,-43.3,95.1,-56.9C606.9,525.2,651.7,518,697.4,518c45.6,0,90.4,7.2,129.9,20.9c39.4,13.6,72.3,33.2,95.1,56.9c22.8,23.6,34.8,50.4,34.8,77.7c0,27.3,-12,54.1,-34.8,77.7c-22.8,23.7,-55.7,43.3,-95.1,57C787.8,821.8,743,829,697.4,829c-45.7,0,-90.5,-7.2,-129.9,-20.8C528,794.5,495.1,774.9,472.4,751.2C449.5,727.6,437.5,700.8,437.5,673.5Z" class="g1_3"/>
<path d="M437.5,673.5c0,-27.3,12,-54.1,34.9,-77.7c22.7,-23.7,55.6,-43.3,95.1,-56.9C606.9,525.2,651.7,518,697.4,518c45.6,0,90.4,7.2,129.9,20.9c39.4,13.6,72.3,33.2,95.1,56.9c22.8,23.6,34.8,50.4,34.8,77.7c0,27.3,-12,54.1,-34.8,77.7c-22.8,23.7,-55.7,43.3,-95.1,57C787.8,821.8,743,829,697.4,829c-45.7,0,-90.5,-7.2,-129.9,-20.8C528,794.5,495.1,774.9,472.4,751.2C449.5,727.6,437.5,700.8,437.5,673.5Z" class="g2_3"/>
<path fill-rule="evenodd" d="M519.2,698.4c0,-22.4,8.3,-44.4,24.1,-63.8C559,615.2,581.7,599,609,587.9c27.3,-11.3,58.3,-17.2,89.8,-17.2c31.5,0,62.5,5.9,89.8,17.2c27.3,11.1,50,27.3,65.7,46.7C870,654,878.4,676,878.4,698.4c0,22.4,-8.4,44.4,-24.1,63.8c-15.7,19.4,-38.4,35.6,-65.7,46.8c-27.3,11.2,-58.3,17.1,-89.8,17.1c-31.5,0,-62.5,-5.9,-89.8,-17.1C581.7,797.8,559,781.6,543.3,762.2C527.5,742.8,519.2,720.8,519.2,698.4Z" class="g3_3"/>
<path d="M519.2,698.4c0,-22.4,8.3,-44.4,24.1,-63.8C559,615.2,581.7,599,609,587.9c27.3,-11.3,58.3,-17.2,89.8,-17.2c31.5,0,62.5,5.9,89.8,17.2c27.3,11.1,50,27.3,65.7,46.7C870,654,878.4,676,878.4,698.4c0,22.4,-8.4,44.4,-24.1,63.8c-15.7,19.4,-38.4,35.6,-65.7,46.8c-27.3,11.2,-58.3,17.1,-89.8,17.1c-31.5,0,-62.5,-5.9,-89.8,-17.1C581.7,797.8,559,781.6,543.3,762.2C527.5,742.8,519.2,720.8,519.2,698.4Z" class="g2_3"/>
<path fill-rule="evenodd" d="M595.9,732.7c0,-16.8,5.6,-33.4,16.2,-47.9c10.6,-14.6,25.9,-26.7,44.2,-35.2c18.3,-8.4,39.1,-12.8,60.3,-12.8c21.2,0,42,4.4,60.4,12.8c18.3,8.5,33.5,20.6,44.1,35.2c10.6,14.5,16.2,31.1,16.2,47.9c0,16.9,-5.6,33.4,-16.2,48c-10.6,14.5,-25.8,26.6,-44.1,35.1c-18.4,8.4,-39.2,12.8,-60.4,12.8c-21.2,0,-42,-4.4,-60.3,-12.8C638,807.3,622.7,795.2,612.1,780.7c-10.6,-14.6,-16.2,-31.1,-16.2,-48Z" class="g4_3"/>
<path d="M595.9,732.7c0,-16.8,5.6,-33.4,16.2,-47.9c10.6,-14.6,25.9,-26.7,44.2,-35.2c18.3,-8.4,39.1,-12.8,60.3,-12.8c21.2,0,42,4.4,60.4,12.8c18.3,8.5,33.5,20.6,44.1,35.2c10.6,14.5,16.2,31.1,16.2,47.9c0,16.9,-5.6,33.4,-16.2,48c-10.6,14.5,-25.8,26.6,-44.1,35.1c-18.4,8.4,-39.2,12.8,-60.4,12.8c-21.2,0,-42,-4.4,-60.3,-12.8C638,807.3,622.7,795.2,612.1,780.7c-10.6,-14.6,-16.2,-31.1,-16.2,-48Z" class="g2_3"/>
<path fill-rule="evenodd" d="M621.2,767.8c0,-10.7,4.4,-21.2,12.8,-30.5c8.4,-9.2,20.5,-16.9,35.1,-22.3c14.5,-5.3,31,-8.1,47.8,-8.1c16.9,0,33.4,2.8,47.9,8.1c14.6,5.4,26.6,13.1,35,22.3c8.4,9.3,12.9,19.8,12.9,30.5c0,10.7,-4.5,21.3,-12.9,30.5c-8.4,9.3,-20.4,17,-35,22.4c-14.5,5.3,-31,8.2,-47.9,8.2c-16.8,0,-33.3,-2.9,-47.8,-8.2C654.5,815.3,642.4,807.6,634,798.3c-8.4,-9.2,-12.8,-19.8,-12.8,-30.5Z" class="g5_3"/>
<path d="M621.2,767.8c0,-10.7,4.4,-21.2,12.8,-30.5c8.4,-9.2,20.5,-16.9,35.1,-22.3c14.5,-5.3,31,-8.1,47.8,-8.1c16.9,0,33.4,2.8,47.9,8.1c14.6,5.4,26.6,13.1,35,22.3c8.4,9.3,12.9,19.8,12.9,30.5c0,10.7,-4.5,21.3,-12.9,30.5c-8.4,9.3,-20.4,17,-35,22.4c-14.5,5.3,-31,8.2,-47.9,8.2c-16.8,0,-33.3,-2.9,-47.8,-8.2C654.5,815.3,642.4,807.6,634,798.3c-8.4,-9.2,-12.8,-19.8,-12.8,-30.5Z" class="g2_3"/>
<image preserveAspectRatio="none" x="213" y="148" width="966" height="280" xlink:href="img/1.jpg"/>
</g>
</svg>