<?xml version="1.0" encoding="UTF-8" standalone="no"?>
<!DOCTYPE svg PUBLIC "-//W3C//DTD SVG 1.1//EN"
"http://www.w3.org/Graphics/SVG/1.1/DTD/svg11.dtd">
<svg viewBox="0 0 1466 825" version="1.1" xmlns="http://www.w3.org/2000/svg" xmlns:xlink="http://www.w3.org/1999/xlink">
<defs>
<clipPath id="c0_2"><path d="M0,825V0H1466.6V825Z"/></clipPath>
<style type="text/css"><![CDATA[
.g0_2{
fill: #FFFFFF;
}
.g1_2{
fill: #ED7D31;
}
.g2_2{
fill: #BD6427;
}
.g3_2{
fill: none;
stroke: #AF5C24;
stroke-width: 1.515;
stroke-linecap: butt;
stroke-linejoin: miter;
stroke-miterlimit: 3;
}
.g4_2{
fill: #5B9BD5;
}
.g5_2{
fill: none;
stroke: #43729D;
stroke-width: 1.515;
stroke-linecap: butt;
stroke-linejoin: miter;
stroke-miterlimit: 3;
}
]]></style>
</defs>
<g clip-path="url(#c0_2)">
<path fill-rule="evenodd" d="M0,0H1466.6V825H0V0Z" class="g0_2"/>
<path fill-rule="evenodd" d="M0,0H1466.7V825H0V0Z" class="g0_2"/>
<image preserveAspectRatio="none" x="71" y="362" width="550" height="378" xlink:href="img/1.jpg"/>
</g>
<path fill-rule="evenodd" d="M45.9,320.2H272.2c3.6,0,7.1,-.6,10.3,-1.6c3.1,-1,5.7,-2.5,7.5,-4.3c1.8,-1.8,2.8,-3.8,2.8,-5.9c0,-2,-1,-4.1,-2.8,-5.9c-1.8,-1.8,-4.4,-3.2,-7.5,-4.3c-3.2,-1,-6.7,-1.5,-10.3,-1.5L231,296.6c-3.6,0,-7.1,-.6,-10.3,-1.5c-3.1,-1.1,-5.7,-2.6,-7.5,-4.4c-1.8,-1.8,-2.7,-3.8,-2.7,-5.9c0,-2,.9,-4,2.7,-5.9c1.8,-1.7,4.4,-3.2,7.5,-4.2c3.2,-1.1,6.7,-1.6,10.3,-1.6H519.1c3.6,0,7.1,.6,10.3,1.6c3.1,1,5.7,2.5,7.5,4.3c1.8,1.8,2.7,3.8,2.7,5.9c0,2,-.9,4,-2.7,5.9c-1.8,1.7,-4.4,3.2,-7.5,4.3c-3.2,1,-6.7,1.5,-10.3,1.5H477.9c-3.6,0,-7.1,.6,-10.3,1.6c-3.1,1,-5.7,2.5,-7.5,4.3c-1.8,1.8,-2.7,3.8,-2.7,5.9c0,2,.9,4.1,2.7,5.9c1.8,1.8,4.4,3.2,7.5,4.3c3.2,1,6.7,1.5,10.3,1.5l226.4,.1L621.9,202.5L704.3,84.8H539.6V49.5c0,-2.1,-.9,-4.1,-2.7,-5.9c-1.8,-1.8,-4.4,-3.2,-7.6,-4.3c-3.1,-1,-6.6,-1.6,-10.2,-1.6L231,37.8c-3.6,0,-7.1,.5,-10.3,1.5c-3.1,1.1,-5.7,2.6,-7.5,4.4c-1.8,1.7,-2.7,3.8,-2.7,5.8V84.8H45.9l82.3,117.7L45.9,320.2Z" class="g1_2"/>
<path fill-rule="evenodd" d="M292.8,308.4c0,-2.1,-1,-4.1,-2.8,-5.9c-1.8,-1.8,-4.4,-3.2,-7.6,-4.3c-3.1,-1,-6.6,-1.6,-10.2,-1.6H231c-3.6,0,-7.1,-.6,-10.3,-1.5c-3.1,-1.1,-5.7,-2.6,-7.5,-4.4c-1.8,-1.8,-2.7,-3.8,-2.7,-5.9c0,-2,.9,-4,2.7,-5.9c1.8,-1.7,4.4,-3.2,7.5,-4.2c3.2,-1.1,6.7,-1.6,10.3,-1.6h61.8v35.3Zm164.6,0c0,-2.1,.9,-4.1,2.7,-5.9c1.8,-1.8,4.4,-3.2,7.6,-4.3c3.1,-1,6.6,-1.6,10.2,-1.6h41.2c3.6,0,7.1,-.6,10.3,-1.5c3.1,-1.1,5.7,-2.6,7.5,-4.4c1.8,-1.8,2.7,-3.8,2.7,-5.9c0,-2,-.9,-4,-2.7,-5.9c-1.8,-1.7,-4.4,-3.2,-7.5,-4.2c-3.2,-1.1,-6.7,-1.6,-10.3,-1.6H457.4v35.3Z" class="g2_2"/>
<path d="M45.9,320.2L128.2,202.5L45.9,84.8H210.5V49.5c0,-2.1,.9,-4.1,2.7,-5.9c1.8,-1.8,4.4,-3.2,7.6,-4.3c3.1,-1,6.6,-1.6,10.2,-1.6l288.1,.1c3.6,0,7.1,.5,10.3,1.5c3.1,1.1,5.7,2.6,7.5,4.4c1.8,1.7,2.7,3.8,2.7,5.8V84.8H704.3L621.9,202.5l82.4,117.7H477.9c-3.6,0,-7.1,-.6,-10.3,-1.6c-3.1,-1,-5.7,-2.5,-7.5,-4.3c-1.8,-1.8,-2.7,-3.8,-2.7,-5.9c0,-2,.9,-4.1,2.7,-5.9c1.8,-1.8,4.4,-3.2,7.5,-4.3c3.2,-1,6.7,-1.5,10.3,-1.5l41.2,-.1c3.6,0,7.1,-.6,10.3,-1.5c3.1,-1.1,5.7,-2.6,7.5,-4.4c1.8,-1.8,2.7,-3.8,2.7,-5.9c0,-2,-.9,-4,-2.7,-5.9c-1.8,-1.7,-4.4,-3.2,-7.5,-4.2c-3.2,-1.1,-6.7,-1.6,-10.3,-1.6H231c-3.6,0,-7.1,.6,-10.3,1.6c-3.1,1,-5.7,2.5,-7.5,4.3c-1.8,1.8,-2.7,3.8,-2.7,5.9c0,2,.9,4,2.7,5.9c1.8,1.7,4.4,3.2,7.5,4.3c3.2,1,6.7,1.5,10.3,1.5h41.2c3.6,0,7.1,.6,10.3,1.6c3.1,1,5.7,2.5,7.5,4.3c1.8,1.8,2.8,3.8,2.8,5.9c0,2,-1,4.1,-2.8,5.9c-1.8,1.8,-4.4,3.2,-7.5,4.3c-3.2,1,-6.7,1.5,-10.3,1.5l-226.3,.1ZM292.8,273.1v35.3m164.6,0V273.1M210.5,284.8V84.8m329.1,0v200" class="g3_2"/>
<path fill-rule="evenodd" d="M1164,713l63.5,-11l13.7,-51l13.6,51l63.6,11l-63.6,10.9l-13.6,51l-13.7,-51L1164,713Z" class="g4_2"/>
<path d="M1164,713l63.5,-11l13.7,-51l13.6,51l63.6,11l-63.6,10.9l-13.6,51l-13.7,-51L1164,713Z" class="g5_2"/>
<path fill-rule="evenodd" d="M1275.9,589.1l63.5,-11l13.7,-51l13.6,51l63.6,11L1366.7,600l-13.6,51l-13.7,-51l-63.5,-10.9Z" class="g4_2"/>
<path d="M1275.9,589.1l63.5,-11l13.7,-51l13.6,51l63.6,11L1366.7,600l-13.6,51l-13.7,-51l-63.5,-10.9Z" class="g5_2"/>
<path fill-rule="evenodd" d="M562.7,433.5l63.5,-10.9l13.7,-51l13.6,51L717,433.5l-63.5,11l-13.6,51l-13.7,-51l-63.5,-11Z" class="g4_2"/>
<path d="M562.7,433.5l63.5,-10.9l13.7,-51l13.6,51L717,433.5l-63.5,11l-13.6,51l-13.7,-51l-63.5,-11Z" class="g5_2"/>
</svg>