<?xml version="1.0" encoding="UTF-8" standalone="no"?>
<!DOCTYPE svg PUBLIC "-//W3C//DTD SVG 1.1//EN"
"http://www.w3.org/Graphics/SVG/1.1/DTD/svg11.dtd">
<svg viewBox="0 0 1466 825" version="1.1" xmlns="http://www.w3.org/2000/svg" xmlns:xlink="http://www.w3.org/1999/xlink">
<defs>
<clipPath id="c0_5"><path d="M0,825V0H1466.6V825Z"/></clipPath>
<style type="text/css"><![CDATA[
.g0_5{
fill: #FFFFFF;
}
.g1_5{
fill: none;
stroke: #000000;
stroke-width: 1.515;
stroke-linecap: butt;
stroke-linejoin: miter;
stroke-miterlimit: 3;
}
.g2_5{
fill: #92D050;
}
.g3_5{
fill: none;
stroke: #43729D;
stroke-width: 1.515;
stroke-linecap: butt;
stroke-linejoin: miter;
stroke-miterlimit: 3;
}
.g4_5{
fill: #5B9BD5;
}
]]></style>
</defs>
<g clip-path="url(#c0_5)">
<path fill-rule="evenodd" d="M0,0H1466.6V825H0V0Z" class="g0_5"/>
<path fill-rule="evenodd" d="M0,0H1466.7V825H0V0Z" class="g0_5"/>
<image preserveAspectRatio="none" x="0" y="238" width="405" height="312" xlink:href="img/1.jpg"/>
</g>
<path fill-rule="evenodd" d="M1181.6,95.5H929.2V11.1H1434V95.5H1181.6Z" class="g0_5"/>
<path d="M1181.6,95.5H929.2V11.1H1434V95.5H1181.6Z" class="g1_5"/>
<path fill-rule="evenodd" d="M24.6,728.6c0,-2.8,.7,-5.6,2.2,-8c1.4,-2.5,3.4,-4.5,5.9,-5.9c2.4,-1.5,5.2,-2.2,8.1,-2.2H450.1c2.8,0,5.6,.8,8,2.2c2.5,1.4,4.5,3.5,6,5.9c1.4,2.5,2.1,5.2,2.1,8.1v64.6c0,2.8,-.7,5.6,-2.1,8c-1.5,2.5,-3.5,4.5,-5.9,5.9c-2.5,1.5,-5.3,2.2,-8.1,2.2H40.7c-2.8,0,-5.6,-.7,-8,-2.2c-2.5,-1.4,-4.6,-3.4,-6,-5.8c-1.4,-2.5,-2.1,-5.3,-2.1,-8.1V728.6Z" class="g2_5"/>
<path d="M24.6,728.6c0,-2.8,.7,-5.6,2.2,-8c1.4,-2.5,3.4,-4.5,5.9,-5.9c2.4,-1.5,5.2,-2.2,8.1,-2.2H450.1c2.8,0,5.6,.8,8,2.2c2.5,1.4,4.5,3.5,6,5.9c1.4,2.5,2.1,5.2,2.1,8.1v64.6c0,2.8,-.7,5.6,-2.1,8c-1.5,2.5,-3.5,4.5,-5.9,5.9c-2.5,1.5,-5.3,2.2,-8.1,2.2H40.7c-2.8,0,-5.6,-.7,-8,-2.2c-2.5,-1.4,-4.6,-3.4,-6,-5.8c-1.4,-2.5,-2.1,-5.3,-2.1,-8.1V728.6Z" class="g3_5"/>
<path fill-rule="evenodd" d="M609.3,728.3c0,-2.8,.8,-5.6,2.2,-8c1.4,-2.5,3.5,-4.5,5.9,-5.9c2.5,-1.5,5.2,-2.2,8.1,-2.2h478c2.8,0,5.6,.8,8.1,2.2c2.4,1.4,4.5,3.5,5.9,5.9c1.4,2.5,2.2,5.2,2.2,8.1V793c0,2.8,-.8,5.6,-2.2,8c-1.4,2.5,-3.5,4.5,-5.9,5.9c-2.5,1.5,-5.2,2.2,-8.1,2.2H625.4c-2.8,0,-5.6,-.7,-8,-2.2c-2.5,-1.4,-4.5,-3.4,-5.9,-5.8c-1.5,-2.5,-2.2,-5.3,-2.2,-8.1V728.3Z" class="g4_5"/>
<path d="M609.3,728.3c0,-2.8,.8,-5.6,2.2,-8c1.4,-2.5,3.5,-4.5,5.9,-5.9c2.5,-1.5,5.2,-2.2,8.1,-2.2h478c2.8,0,5.6,.8,8.1,2.2c2.4,1.4,4.5,3.5,5.9,5.9c1.4,2.5,2.2,5.2,2.2,8.1V793c0,2.8,-.8,5.6,-2.2,8c-1.4,2.5,-3.5,4.5,-5.9,5.9c-2.5,1.5,-5.2,2.2,-8.1,2.2H625.4c-2.8,0,-5.6,-.7,-8,-2.2c-2.5,-1.4,-4.5,-3.4,-5.9,-5.8c-1.5,-2.5,-2.2,-5.3,-2.2,-8.1V728.3Z" class="g3_5"/>
<image clip-path="url(#c0_5)" preserveAspectRatio="none" x="466" y="154" width="941" height="512" xlink:href="img/2.jpg"/>
</svg>