<?xml version="1.0" encoding="UTF-8" standalone="no"?>
<!DOCTYPE svg PUBLIC "-//W3C//DTD SVG 1.1//EN"
"http://www.w3.org/Graphics/SVG/1.1/DTD/svg11.dtd">
<svg viewBox="0 0 1466 825" version="1.1" xmlns="http://www.w3.org/2000/svg" xmlns:xlink="http://www.w3.org/1999/xlink">
<defs>
<clipPath id="c0_6"><path d="M0,825V0H1466.6V825Z"/></clipPath>
<style type="text/css"><![CDATA[
.g0_6{
fill: #FFFFFF;
}
.g1_6{
fill: none;
stroke: #0563C1;
stroke-width: 1.213;
stroke-linecap: butt;
stroke-linejoin: miter;
}
.g2_6{
fill: #92D050;
}
.g3_6{
fill: none;
stroke: #43729D;
stroke-width: 1.515;
stroke-linecap: butt;
stroke-linejoin: miter;
stroke-miterlimit: 3;
}
.g4_6{
fill: #ED7D31;
}
.g5_6{
fill: #A6A6A6;
}
]]></style>
</defs>
<g clip-path="url(#c0_6)">
<path fill-rule="evenodd" d="M0,0H1466.6V825H0V0Z" class="g0_6"/>
<path fill-rule="evenodd" d="M0,0H1466.7V825H0V0Z" class="g0_6"/>
<image preserveAspectRatio="none" x="392" y="157" width="682" height="409" xlink:href="img/1.jpg"/>
</g>
<path d="M966.9,638h141.9" class="g1_6"/>
<path fill-rule="evenodd" d="M44.3,745.1c0,-2.3,.7,-4.5,1.8,-6.5c1.1,-1.9,2.7,-3.5,4.7,-4.7c1.9,-1.1,4.2,-1.7,6.4,-1.7H570c2.2,0,4.4,.6,6.4,1.7c2,1.2,3.6,2.8,4.7,4.7c1.1,2,1.7,4.2,1.7,6.5l.1,51.4c0,2.2,-.6,4.4,-1.8,6.4c-1.1,2,-2.7,3.6,-4.7,4.7c-1.9,1.1,-4.1,1.7,-6.4,1.7l-512.8,.1c-2.2,0,-4.5,-.6,-6.4,-1.8c-2,-1.1,-3.6,-2.7,-4.7,-4.7C45,801,44.3,798.8,44.3,796.5V745.1Z" class="g2_6"/>
<path d="M44.3,745.1c0,-2.3,.7,-4.5,1.8,-6.5c1.1,-1.9,2.7,-3.5,4.7,-4.7c1.9,-1.1,4.2,-1.7,6.4,-1.7H570c2.2,0,4.4,.6,6.4,1.7c2,1.2,3.6,2.8,4.7,4.7c1.1,2,1.7,4.2,1.7,6.5l.1,51.4c0,2.2,-.6,4.4,-1.8,6.4c-1.1,2,-2.7,3.6,-4.7,4.7c-1.9,1.1,-4.1,1.7,-6.4,1.7l-512.8,.1c-2.2,0,-4.5,-.6,-6.4,-1.8c-2,-1.1,-3.6,-2.7,-4.7,-4.7C45,801,44.3,798.8,44.3,796.5V745.1Z" class="g3_6"/>
<path fill-rule="evenodd" d="M758.8,736.3c0,-2.3,.6,-4.5,1.7,-6.5c1.1,-1.9,2.7,-3.5,4.7,-4.7c2,-1.1,4.2,-1.7,6.4,-1.7h512.8c2.3,0,4.5,.6,6.5,1.7c1.9,1.2,3.5,2.8,4.6,4.8c1.2,1.9,1.8,4.1,1.8,6.4v51.4c0,2.2,-.6,4.4,-1.7,6.4c-1.2,2,-2.8,3.6,-4.7,4.7c-2,1.1,-4.2,1.7,-6.5,1.7l-512.8,.1c-2.2,0,-4.4,-.6,-6.4,-1.8c-2,-1.1,-3.6,-2.7,-4.7,-4.7c-1.1,-1.9,-1.7,-4.1,-1.7,-6.4V736.3Z" class="g4_6"/>
<path d="M758.8,736.3c0,-2.3,.6,-4.5,1.7,-6.5c1.1,-1.9,2.7,-3.5,4.7,-4.7c2,-1.1,4.2,-1.7,6.4,-1.7h512.8c2.3,0,4.5,.6,6.5,1.7c1.9,1.2,3.5,2.8,4.6,4.8c1.2,1.9,1.8,4.1,1.8,6.4v51.4c0,2.2,-.6,4.4,-1.7,6.4c-1.2,2,-2.8,3.6,-4.7,4.7c-2,1.1,-4.2,1.7,-6.5,1.7l-512.8,.1c-2.2,0,-4.4,-.6,-6.4,-1.8c-2,-1.1,-3.6,-2.7,-4.7,-4.7c-1.1,-1.9,-1.7,-4.1,-1.7,-6.4V736.3Z" class="g3_6"/>
<path fill-rule="evenodd" d="M637.4,756.4h30.8V741h14.5v15.4h30.9v14.5H682.7v15.4H668.2V770.9H637.4V756.4Z" class="g5_6"/>
<path d="M637.4,756.4h30.8V741h14.5v15.4h30.9v14.5H682.7v15.4H668.2V770.9H637.4V756.4Z" class="g3_6"/>
</svg>