<?xml version="1.0" encoding="UTF-8" standalone="no"?>
<!DOCTYPE svg PUBLIC "-//W3C//DTD SVG 1.1//EN"
"http://www.w3.org/Graphics/SVG/1.1/DTD/svg11.dtd">
<svg viewBox="0 0 1466 825" version="1.1" xmlns="http://www.w3.org/2000/svg" xmlns:xlink="http://www.w3.org/1999/xlink">
<defs>
<clipPath id="c0_3"><path d="M0,825V0H1466.6V825Z"/></clipPath>
<style type="text/css"><![CDATA[
.g0_3{
fill: #FFFFFF;
}
.g1_3{
fill: #FFD966;
}
.g2_3{
fill: none;
stroke: #43729D;
stroke-width: 1.515;
stroke-linecap: butt;
stroke-linejoin: miter;
stroke-miterlimit: 3;
}
]]></style>
</defs>
<g clip-path="url(#c0_3)">
<path fill-rule="evenodd" d="M0,0H1466.6V825H0V0Z" class="g0_3"/>
<path fill-rule="evenodd" d="M0,0H1466.7V825H0V0Z" class="g0_3"/>
<image preserveAspectRatio="none" x="314" y="223" width="828" height="423" xlink:href="img/1.jpg"/>
</g>
<path fill-rule="evenodd" d="M75.5,48.4c0,-4.5,1.2,-8.9,3.4,-12.8c2.3,-3.8,5.5,-7,9.4,-9.3c3.8,-2.2,8.2,-3.4,12.7,-3.4L1355.3,23c4.5,0,8.9,1.1,12.7,3.4c3.9,2.2,7.1,5.4,9.3,9.3c2.3,3.8,3.5,8.3,3.5,12.7V150.2c0,4.4,-1.2,8.9,-3.5,12.7c-2.2,3.9,-5.4,7.1,-9.3,9.3c-3.8,2.3,-8.2,3.5,-12.7,3.5H100.9c-4.4,0,-8.8,-1.2,-12.7,-3.5c-3.8,-2.2,-7,-5.4,-9.3,-9.3c-2.2,-3.8,-3.4,-8.3,-3.4,-12.7V48.4Z" class="g1_3"/>
<path d="M75.5,48.4c0,-4.5,1.2,-8.9,3.4,-12.8c2.3,-3.8,5.5,-7,9.4,-9.3c3.8,-2.2,8.2,-3.4,12.7,-3.4L1355.3,23c4.5,0,8.9,1.1,12.7,3.4c3.9,2.2,7.1,5.4,9.3,9.3c2.3,3.8,3.5,8.3,3.5,12.7V150.2c0,4.4,-1.2,8.9,-3.5,12.7c-2.2,3.9,-5.4,7.1,-9.3,9.3c-3.8,2.3,-8.2,3.5,-12.7,3.5H100.9c-4.4,0,-8.8,-1.2,-12.7,-3.5c-3.8,-2.2,-7,-5.4,-9.3,-9.3c-2.2,-3.8,-3.4,-8.3,-3.4,-12.7V48.4Z" class="g2_3"/>
</svg>